<?xml version="1.0" encoding="utf-8"?>
<!-- Generator: Adobe Illustrator 28.3.0, SVG Export Plug-In . SVG Version: 6.00 Build 0)  -->
<svg version="1.1" id="layer" xmlns="http://www.w3.org/2000/svg" xmlns:xlink="http://www.w3.org/1999/xlink" x="0px" y="0px"
	 viewBox="0 0 450 450" style="enable-background:new 0 0 450 450;" xml:space="preserve">
<style type="text/css">
	.st0{fill:#FAFAFA;}
	.st1{fill:#5D5D5D;}
</style>
<g>
	<rect class="st0" width="450" height="450"/>
</g>
<g>
	<path class="st1" d="M185.14,371.94c-5.08-7.34-18.42-10.68-28.67-10.68c-3.16,0-6.09,0.29-8.71,0.85
		c-9.64,2.08-17.87,3.94-25.13,5.59c-19.44,4.41-31.17,7.08-40.92,7.08c-8.12,0-15.08-1.81-24.82-6.46
		c-10.17-4.86-17.64-9.48-23.63-13.2c-9.41-5.83-15.62-9.67-24.12-9.67c-2.78,0-5.78,0.43-9.14,1.31v0.72
		c3.37-0.89,6.37-1.32,9.14-1.32c8.31,0,14.45,3.81,23.75,9.57c6.01,3.72,13.49,8.36,23.7,13.23c9.85,4.7,16.89,6.53,25.12,6.53
		c9.83,0,21.59-2.67,41.07-7.09c7.26-1.65,15.48-3.51,25.12-5.59c2.57-0.55,5.45-0.83,8.56-0.83c10.08,0,23.17,3.25,28.1,10.38
		c2.17,3.15,2.53,6.72,1.06,10.63c-2.94,7.8-16.69,14.68-28.83,20.76c-7.33,3.67-14.26,7.14-17.82,10.36
		c-10.41,9.41-7.91,22.17-3.69,35.92h0.73c-4.19-13.61-6.72-26.22,3.42-35.4c3.49-3.16,10.38-6.6,17.67-10.25
		c12.25-6.13,26.13-13.09,29.17-21.14C187.84,379.07,187.46,375.28,185.14,371.94z"/>
	<path class="st1" d="M3.18,291.9c1.42-30.84,21.08-53.33,36.88-71.4l1.12-1.28c1.83-1.93,6.06-7.09,5.73-13.32
		c-0.2-3.79-2.08-7.23-5.58-10.21c-2.1-1.79-4.04-3.45-5.89-5.04c-8.17-7.02-14.63-12.56-24.65-19.51
		c-3.66-2.54-7.27-4.94-10.78-7.2v0.36c3.46,2.23,7.01,4.59,10.61,7.09c10.01,6.94,16.46,12.48,24.62,19.49
		c1.85,1.59,3.79,3.26,5.89,5.04c3.44,2.92,5.28,6.28,5.48,9.99c0.33,6.12-3.84,11.2-5.65,13.11l-1.13,1.29
		C24,238.41,4.3,260.94,2.88,291.89c-0.15,3.3-1.43,5.31-2.88,6v0.36C1.56,297.6,3.01,295.56,3.18,291.9z"/>
	<path class="st1" d="M178.33,418.77c-1.31-1.32-3.02-1.99-5.08-1.99c-6.28,0-14.15,6.22-16.77,9.05
		c-9.66,10.45-10.77,16.3-8.84,24.17h0.52c-1.92-7.77-0.84-13.53,8.69-23.83c2.58-2.79,10.29-8.89,16.41-8.89
		c1.92,0,3.51,0.62,4.72,1.84c2.09,2.09,3.13,5.98,3.1,11.55c-0.03,6.76-1.19,13.01-2.67,19.33h0.51
		c1.47-6.32,2.62-12.56,2.66-19.33C181.61,424.96,180.52,420.96,178.33,418.77z"/>
	<path class="st1" d="M10.17,292.22c1.31-28.4,20.08-49.86,35.16-67.11l1.13-1.29c3.17-3.62,5.73-6.84,7.63-9.54
		c2.35-3.36,6.71-9.61-3.6-19.56c-11.12-10.74-23.14-20.6-35.71-29.32c-5.13-3.56-10.06-6.76-14.77-9.64v0.35
		c4.66,2.85,9.53,6.02,14.6,9.54c12.56,8.71,24.56,18.57,35.67,29.29c10.13,9.78,5.86,15.89,3.56,19.17
		c-1.89,2.7-4.45,5.9-7.61,9.52l-1.13,1.29c-15.11,17.28-33.92,38.79-35.23,67.29c-0.61,13.22-2.96,20.91-7.39,24.21
		c-0.88,0.65-1.71,1.01-2.48,1.09v0.3c0.84-0.08,1.72-0.45,2.66-1.15C7.17,313.31,9.55,305.54,10.17,292.22z"/>
	<path class="st1" d="M132.23,89.09c-1.94-7.67-17.62-9.73-35.78-12.1c-4.49-0.59-9.13-1.19-13.63-1.91
		c-19.91-3.14-38.13-13.13-55.75-22.8C18.24,47.44,9.23,42.5,0,38.43v0.76c9.1,4.03,18.01,8.91,26.73,13.7
		c17.67,9.69,35.95,19.72,55.98,22.88c4.52,0.71,9.16,1.32,13.65,1.91c17.16,2.25,33.36,4.37,35.19,11.58
		c1.42,5.62-5.9,14.15-22.38,26.07c-23.13,16.73-42.53,24.52-61.07,24.52c-10.54,0-20.98-2.62-31.05-7.77
		c-6.27-3.21-11.78-7.11-17.04-11.05v0.87c5.16,3.85,10.58,7.65,16.73,10.8c10.17,5.21,20.72,7.85,31.37,7.85c0,0,0,0,0,0
		c18.69,0,38.23-7.83,61.48-24.65C126.55,103.62,133.75,95.1,132.23,89.09z"/>
	<path class="st1" d="M2.59,246.93c2.69-4.74,6.19-9.04,9.57-13.2c4.87-6,9.91-12.2,12.62-19.82c4.78-13.44-4.59-19.64-14.52-26.22
		c-0.92-0.61-1.84-1.22-2.76-1.84c-1.64-1.11-3.18-2.15-4.7-3.21c-0.75-0.52-1.67-1.18-2.81-2.01v0.37c1.05,0.77,1.93,1.4,2.64,1.89
		c1.52,1.06,3.07,2.1,4.71,3.21c0.92,0.62,1.84,1.23,2.75,1.84c9.82,6.51,19.1,12.65,14.4,25.87c-2.7,7.57-7.72,13.75-12.58,19.73
		c-3.39,4.17-6.89,8.48-9.59,13.24c-0.81,1.43-1.55,3.28-2.33,5.25v0.81c0.08-0.2,0.16-0.41,0.24-0.61
		C1.03,250.24,1.78,248.36,2.59,246.93z"/>
	<path class="st1" d="M316.38,420.38c-0.38-3.38-2.51-6.32-6.33-8.72c-6.89-4.34-21.31-6.28-32.55-6.28c-2.19,0-4.2,0.07-5.97,0.22
		c-10.97,0.91-22.39,3.07-34.91,6.62c-1.79,0.51-3.58,1.05-5.3,1.63c-20.89,6.94-32.97,17.91-38.77,36.16h0.53
		c5.78-17.99,17.74-28.83,38.39-35.69c1.72-0.57,3.49-1.11,5.28-1.62c12.5-3.53,23.88-5.69,34.82-6.6c1.76-0.15,3.75-0.22,5.93-0.22
		c11.16,0,25.47,1.92,32.28,6.21c3.68,2.32,5.73,5.13,6.1,8.35c0.92,8.11-8.53,17.62-16.13,25.26c-1.53,1.54-2.96,2.98-4.21,4.3
		h0.69c1.16-1.23,2.47-2.54,3.87-3.95C307.78,438.33,317.33,428.72,316.38,420.38z"/>
	<path class="st1" d="M125.38,394.95c1.62-1.02,3.49-1.15,5.1-1.15c0.76,0,1.53,0.03,2.34,0.07c0.81,0.04,1.64,0.08,2.47,0.08
		c1.86,0,4.29-0.18,6.49-1.54c5.68-3.52,7.57-7.61,6.91-9.91c-0.43-1.52-1.91-2.4-4.05-2.4c-1.91,0-4.33,0.68-7.01,1.98
		c-1.71,0.83-3.25,2.3-4.74,3.74c-1.8,1.73-3.66,3.52-5.8,4.1c-0.66,0.18-1.31,0.27-1.99,0.27c-1.35,0-2.56-0.35-3.84-0.71
		c-1.27-0.36-2.57-0.74-4.01-0.74c-0.5,0-1,0.05-1.5,0.14c-2.54,0.47-4.27,2.08-5.95,3.64c-1.4,1.3-2.84,2.64-4.74,3.3
		c-2.15,0.75-5.07,1.12-8.92,1.12c-5,0-10.54-0.63-15-1.13c-1.28-0.15-2.47-0.28-3.53-0.39c-9.25-0.93-18.88-3.83-29.42-8.86
		c-11.16-5.33-19.14-10.27-25.56-14.25c-3.5-2.17-7.09-3.27-10.65-3.27c-4.53,0-8.55,1.72-11.98,4.37v0.37
		c3.41-2.69,7.44-4.44,11.98-4.44c3.51,0,7.04,1.08,10.5,3.23c6.42,3.98,14.41,8.93,25.59,14.26c10.57,5.05,20.23,7.96,29.51,8.89
		c1.06,0.11,2.25,0.24,3.53,0.39c4.46,0.51,10.02,1.13,15.03,1.13c3.88,0,6.83-0.37,9.01-1.13c1.96-0.68,3.43-2.05,4.85-3.37
		c1.72-1.6,3.35-3.11,5.8-3.57c0.48-0.09,0.95-0.13,1.44-0.13c1.4,0,2.69,0.37,3.93,0.73c1.24,0.36,2.53,0.73,3.93,0.73
		c0.7,0,1.38-0.09,2.07-0.28c2.21-0.61,4.1-2.42,5.93-4.17c1.47-1.41,3-2.88,4.67-3.68c2.64-1.27,5.02-1.95,6.88-1.95
		c2.03,0,3.36,0.77,3.76,2.18c0.63,2.2-1.23,6.14-6.78,9.58c-2.14,1.33-4.51,1.5-6.34,1.5c-0.82,0-1.65-0.04-2.45-0.08
		c-0.78-0.04-1.58-0.07-2.35-0.07c-1.66,0-3.58,0.14-5.26,1.2c-1.85,1.16-3.26,4.1-4.62,6.95c-0.82,1.72-1.6,3.34-2.42,4.46
		c-6.84,9.32-7.26,19.36-5.78,31.56c0.51,4.19,1.36,8.32,2.38,12.35h0.31c-1.03-4.04-1.89-8.18-2.4-12.38
		c-1.47-12.13-1.06-22.1,5.73-31.34c0.84-1.15,1.62-2.78,2.45-4.51C122.22,398.96,123.6,396.06,125.38,394.95z"/>
	<path class="st1" d="M156.74,60.93c-1.72,0-4.15,1.1-5.94,6.32c-2.01,5.88,1.86,7.24,5.96,8.69c0.72,0.25,1.46,0.52,2.18,0.81
		c1.61,0.65,2.97,0.98,4.03,0.98c1.18,0,2.03-0.4,2.52-1.18c1.53-2.43-0.92-7.8-2.05-9.99C161.63,63.03,159.12,60.93,156.74,60.93z
		 M165.08,76.28c-0.8,1.27-2.82,1.26-5.95,0.01c-0.73-0.29-1.48-0.56-2.2-0.81c-4.02-1.42-7.5-2.65-5.65-8.06
		c1.34-3.92,3.23-5.99,5.46-5.99c2.19,0,4.53,2,6.26,5.35C165.27,71.2,166.04,74.75,165.08,76.28z"/>
	<path class="st1" d="M27.03,224.91c0.45-0.53,0.9-1.07,1.36-1.61c6.44-7.57,13.09-15.4,5.53-24.76
		c-5.85-7.24-14.68-13.21-22.48-18.48c-1.61-1.09-3.14-2.12-4.64-3.16c-1.01-0.7-2.37-1.7-3.96-2.85c-0.87-0.63-1.82-1.33-2.84-2.07
		v0.37c0.95,0.69,1.85,1.34,2.66,1.94c1.58,1.16,2.95,2.15,3.96,2.85c1.5,1.04,3.03,2.07,4.64,3.17
		c7.77,5.26,16.59,11.22,22.41,18.42c7.41,9.17,0.83,16.9-5.52,24.38c-0.46,0.54-0.91,1.07-1.36,1.61
		c-5.59,6.66-12.73,15.58-18.38,25.52c-3.43,6.03-6.25,12.37-8.42,18.87v0.98c2.19-6.8,5.1-13.42,8.68-19.71
		C14.31,240.48,21.44,231.57,27.03,224.91z"/>
	<path class="st1" d="M162.63,448.33c-0.44-1.6-1.19-2.74-1.91-3.83c-1.11-1.67-2.06-3.12-1.68-5.85
		c0.52-3.73,5.04-12.95,9.92-12.95c0.05,0,0.1,0,0.15,0c2.44,0.09,3.99,0.71,4.61,1.83c1.13,2.05-0.91,5.53-2.54,8.32
		c-0.88,1.51-1.65,2.82-1.78,3.67c-0.27,1.69,0.48,2.66,1.2,3.59c0.58,0.74,1.12,1.44,1.1,2.48c-0.05,2.17-1.01,3.19-2.03,4.27
		c-0.05,0.05-0.09,0.1-0.14,0.15h0.41c1.04-1.1,2.01-2.16,2.06-4.41c0.03-1.14-0.58-1.92-1.16-2.67c-0.68-0.88-1.39-1.8-1.14-3.36
		c0.13-0.79,0.88-2.08,1.75-3.56c1.67-2.86,3.75-6.41,2.54-8.62c-0.68-1.24-2.27-1.89-4.86-1.99c-0.05,0-0.1,0-0.16,0
		c-5.04,0-9.68,9.4-10.21,13.21c-0.4,2.85,0.64,4.41,1.73,6.06c0.71,1.08,1.45,2.19,1.87,3.74c0.17,0.61,0.25,1.13,0.3,1.6h0.3
		C162.9,449.51,162.81,448.96,162.63,448.33z"/>
	<path class="st1" d="M21.33,123.7c7.6,3.89,14.06,5.71,20.32,5.71c6.56,0,12.39-1.97,19.14-4.25c3.83-1.29,8.17-2.76,13.09-4
		c2.5-0.63,4.67-0.7,6.09-0.7c0.95,0,1.87,0.04,2.75,0.07c0.84,0.03,1.63,0.07,2.41,0.07c4.05,0,7.28-0.96,10.81-5.73
		c2.38-3.22,3.28-5.71,4.06-7.9c1.18-3.28,2.11-5.87,7.29-9.58c1.33-0.95,3.23-1.7,5.08-2.42c2.96-1.17,5.52-2.17,5.63-3.88
		c0.09-1.38-1.52-2.92-5.07-4.85c-4.24-2.3-10.3-2.61-15.67-2.61c-2.39,0-4.91,0.07-7.34,0.14c-2.44,0.07-4.97,0.15-7.38,0.15
		c-5.39,0-9.16-0.37-12.24-1.21c-17.4-4.73-33.72-13.67-48.12-21.57C14.65,56.99,7.32,52.97,0,49.52v0.55
		c7.24,3.42,14.49,7.4,21.97,11.5c14.42,7.91,30.76,16.87,48.23,21.61c3.12,0.85,6.94,1.23,12.37,1.23c2.42,0,4.95-0.07,7.4-0.15
		c2.43-0.07,4.94-0.14,7.32-0.14c5.3,0,11.28,0.3,15.43,2.55c3.26,1.77,4.88,3.25,4.81,4.38c-0.09,1.39-2.63,2.39-5.31,3.44
		c-1.87,0.74-3.8,1.5-5.18,2.48c-5.31,3.8-6.31,6.59-7.47,9.82c-0.78,2.16-1.66,4.61-4,7.77c-3.41,4.6-6.51,5.53-10.41,5.53
		c-0.77,0-1.56-0.03-2.39-0.07c-0.89-0.04-1.81-0.07-2.77-0.07c-1.45,0-3.66,0.07-6.21,0.71c-4.94,1.24-9.29,2.71-13.13,4.01
		c-6.71,2.27-12.5,4.23-18.98,4.23c-6.18,0-12.57-1.8-20.1-5.65c-6.88-3.53-13.07-8.22-19.06-12.76c-0.83-0.63-1.66-1.26-2.5-1.89
		v0.63c0.74,0.55,1.47,1.11,2.2,1.66C8.2,115.45,14.41,120.16,21.33,123.7z"/>
	<path class="st1" d="M264.68,436.08c-0.48-0.21-1.23-0.31-2.22-0.31c-5.8,0-18.09,3.46-18.22,3.49c-1.38,0.39-2.74,0.81-4.07,1.25
		c-6.8,2.26-11.83,5.28-15.49,9.49h0.4c3.62-4.07,8.56-7,15.19-9.21c1.32-0.44,2.69-0.86,4.06-1.25c0.12-0.04,12.38-3.48,18.13-3.48
		c0.95,0,1.66,0.1,2.1,0.29c2.22,0.95,1.41,3.48-0.38,9.03c-0.43,1.33-0.93,2.89-1.44,4.62h0.31c0.51-1.69,1-3.22,1.42-4.52
		C266.26,439.92,267.16,437.14,264.68,436.08z"/>
	<path class="st1" d="M251.11,445.08c-1.39,0-3.07,0.28-4.99,0.82c-1.28,0.36-2.55,0.75-3.77,1.16c-2.57,0.86-4.8,1.83-6.75,2.94
		h1.05c1.73-0.91,3.66-1.74,5.86-2.47c1.22-0.4,2.48-0.79,3.75-1.15c1.88-0.53,3.51-0.8,4.85-0.8c2.49,0,4.01,0.91,4.49,2.71
		c0.14,0.51,0.17,1.09,0.14,1.71h0.5c0.02-0.66-0.01-1.29-0.16-1.84C255.71,446.76,254.53,445.08,251.11,445.08z"/>
	<path class="st1" d="M282.52,428.55c-0.87-1.75-3.87-2.37-9.25-1.93c-9.6,0.79-19.71,2.72-30.91,5.89
		c-1.5,0.42-2.97,0.88-4.39,1.35c-10.17,3.38-17.26,8.56-21.88,16.13h0.35c4.58-7.43,11.6-12.52,21.62-15.85
		c1.41-0.47,2.89-0.92,4.38-1.34c11.18-3.16,21.28-5.09,30.86-5.88c1.1-0.09,2.11-0.14,3.01-0.14c3.37,0,5.31,0.62,5.95,1.9
		c1.12,2.25-2.03,6.41-5.07,10.44c-0.54,0.71-1.08,1.43-1.6,2.14c-2.11,2.87-3.99,5.8-5.68,8.74h0.35c1.66-2.88,3.51-5.75,5.57-8.56
		c0.52-0.71,1.06-1.42,1.6-2.14C280.66,435.02,283.72,430.96,282.52,428.55z"/>
	<path class="st1" d="M292.62,433.7c4.61-4.33,6.46-7.76,5.5-10.19c-1.14-2.88-6.23-4.35-15.12-4.35c-2.96,0-6.33,0.16-10.3,0.49
		c-10.05,0.83-20.6,2.84-32.24,6.13c-1.58,0.45-3.16,0.93-4.69,1.44c-13.34,4.43-22.34,11.81-27.64,22.78h0.34
		c5.27-10.83,14.2-18.11,27.4-22.49c1.53-0.51,3.11-0.99,4.68-1.44c11.63-3.29,22.15-5.29,32.19-6.12
		c3.96-0.33,7.32-0.49,10.28-0.49c8.75,0,13.74,1.4,14.84,4.16c0.91,2.3-0.91,5.62-5.42,9.86c-0.91,0.85-1.78,1.68-2.52,2.42
		c-3.45,3.47-6.43,6.47-8.66,9.5c-1.11,1.51-2.15,3.05-3.17,4.6h0.36c0.98-1.5,1.99-2.97,3.06-4.42c2.22-3.01,5.19-6,8.63-9.47
		C290.84,435.37,291.71,434.55,292.62,433.7z"/>
	<path class="st1" d="M25.94,114.71c7.39,3.79,14.63,5.63,22.15,5.63c4.21,0,13.3-1.72,21.22-4.59c6.94-2.52,15.22-6.7,15.24-12.32
		c0.02-6.62-12.76-10.3-20.4-12.5c-1.66-0.48-3.1-0.89-4.05-1.24c-13.68-4.96-27.26-11.22-42.73-19.7
		C11.45,66.75,5.68,63.59,0,60.75v0.34c5.63,2.82,11.35,5.95,17.21,9.17c15.49,8.49,29.08,14.76,42.77,19.72
		c0.97,0.35,2.41,0.76,4.07,1.24c7.56,2.17,20.21,5.81,20.19,12.21c-0.03,9.72-27.43,16.61-36.16,16.61
		c-7.47,0-14.67-1.83-22.01-5.6c-6.11-3.13-11.95-7.56-17.59-11.83c-2.73-2.07-5.54-4.2-8.48-6.27v0.37
		c2.87,2.03,5.62,4.11,8.3,6.14C13.96,107.14,19.8,111.57,25.94,114.71z"/>
	<path class="st1" d="M29.13,108.48c6.37,3.27,12.57,4.85,18.96,4.86c5.55,0,12.79-1.65,15.58-5.26c1.21-1.57,1.56-3.41,1.02-5.47
		c-1.27-4.85-11.42-8.28-18.84-10.78c-2.4-0.81-4.47-1.51-5.74-2.1c-8.57-3.98-17.05-8.63-25.25-13.12l-0.91-0.5
		c-4.74-2.6-9.38-5.14-13.95-7.5v0.34c4.52,2.34,9.11,4.85,13.8,7.43l0.91,0.5c8.2,4.5,16.69,9.15,25.26,13.13
		c1.29,0.6,3.36,1.3,5.77,2.11c6.94,2.34,17.42,5.88,18.64,10.57c0.51,1.97,0.19,3.72-0.96,5.21c-2.73,3.53-9.86,5.14-15.36,5.14
		c-6.32,0-12.48-1.58-18.81-4.83c-5.56-2.85-11.15-7.09-16.56-11.19C8.8,94.07,4.6,90.89,0,87.89v0.36
		c4.53,2.97,8.67,6.1,12.53,9.03C17.94,101.38,23.54,105.62,29.13,108.48z"/>
	<path class="st1" d="M177.48,5.99c0.5-2.02,0.99-4.01,1.45-5.99h-0.51c-0.45,1.94-0.93,3.89-1.42,5.87
		c-0.92,3.71-1.87,7.54-2.64,11.46c-2.56,13.05-4.77,30.16,0.94,46.76c2.32,6.75,8.11,12.26,13.21,17.12
		c4.54,4.33,8.46,8.07,8.11,11.21c-0.16,1.44-1.22,2.73-3.23,3.93c-0.93,0.55-2.51,0.83-4.71,0.83c-7.68,0-21.22-3.39-31.24-6.75
		c-10.9-3.65-24.32-9.47-26.4-16.45c-0.66-2.22-0.12-4.47,1.62-6.67c2.23-2.83,4.62-5.31,6.93-7.72c4.55-4.73,8.85-9.2,11.7-15.83
		c4.06-9.46,4.55-19.33,1.46-29.33c-0.75-2.42-1.5-4.65-2.17-6.62c-0.98-2.91-1.84-5.45-2.42-7.81h-0.52c0.59,2.41,1.46,5,2.47,7.97
		c0.66,1.97,1.42,4.19,2.16,6.61c3.05,9.88,2.56,19.63-1.45,28.98c-2.81,6.55-7.08,10.99-11.6,15.68c-2.32,2.41-4.72,4.91-6.97,7.76
		c-1.84,2.34-2.42,4.74-1.71,7.13c2.14,7.18,15.72,13.09,26.72,16.78c10.06,3.37,23.66,6.77,31.4,6.77c2.29,0,3.96-0.3,4.97-0.9
		c2.15-1.28,3.29-2.69,3.47-4.3c0.38-3.39-3.62-7.21-8.26-11.63c-5.06-4.82-10.8-10.29-13.08-16.93
		c-5.67-16.49-3.47-33.52-0.92-46.5C175.61,13.52,176.56,9.69,177.48,5.99z"/>
	<path class="st1" d="M94.63,239.88c-0.5,0.83-0.97,1.61-1.38,2.19c-5.06,7.13-11.05,13.45-17.79,20.39
		c-0.91,0.93-1.84,1.88-2.78,2.83c-5.56,5.62-11.32,11.43-14.76,18.3c-1.33,2.66-1.75,4.74-1.19,6.01c0.25,0.58,0.69,0.96,1.31,1.13
		c0.25,0.07,0.54,0.11,0.85,0.11c1.23,0,2.87-0.6,4.73-1.72c3.7-2.24,7.21-5,10.61-7.68c2.78-2.19,5.66-4.46,8.63-6.42
		c11.97-7.93,19.88-13.18,23.58-27.97c0.77-3.07,1.22-10.05-1.15-13.09c-0.82-1.05-1.89-1.54-3.21-1.48
		C99,232.64,96.48,236.82,94.63,239.88z M102.31,232.78c1.11,0,2.04,0.46,2.74,1.37c2.3,2.95,1.85,9.81,1.1,12.83
		c-3.67,14.68-11.54,19.89-23.46,27.79c-2.98,1.97-5.86,4.24-8.65,6.44c-3.39,2.67-6.9,5.43-10.58,7.66
		c-2.24,1.36-4.16,1.92-5.34,1.58c-0.53-0.15-0.9-0.48-1.12-0.97c-0.51-1.17-0.09-3.21,1.18-5.75c3.42-6.83,9.16-12.62,14.7-18.23
		c0.94-0.95,1.88-1.9,2.79-2.83c6.75-6.95,12.74-13.28,17.82-20.42c0.42-0.59,0.89-1.37,1.39-2.2c1.81-3,4.28-7.1,7.2-7.25
		C102.17,232.78,102.24,232.78,102.31,232.78z"/>
	<path class="st1" d="M32.27,102.34c1.99,1.02,7.6,2.85,11.66,2.85c1.45,0,2.56-0.24,3.29-0.72c1.58-1.03,2.28-1.99,2.14-2.95
		c-0.32-2.11-4.91-3.38-8.59-4.4c-1.52-0.42-2.82-0.79-3.57-1.13c-8.78-4.07-17.36-8.78-25.66-13.33l-0.92-0.5
		C7.03,80.18,3.49,78.24,0,76.4v0.57c3.41,1.81,6.87,3.71,10.39,5.63l0.92,0.5c8.31,4.56,16.9,9.27,25.69,13.35
		c0.78,0.36,2.11,0.73,3.64,1.16c3.36,0.93,7.95,2.21,8.23,4c0.11,0.73-0.53,1.56-1.92,2.45c-0.65,0.42-1.66,0.63-3.02,0.63
		c-3.93,0-9.54-1.82-11.44-2.79c-5-2.56-10.33-6.6-15.5-10.52c-4.93-3.73-10.53-7.98-17-11.85v0.59
		c6.34,3.81,11.86,7.99,16.71,11.67C21.88,95.7,27.23,99.76,32.27,102.34z"/>
	<path class="st1" d="M17.26,292.55c1.2-25.92,19.06-46.35,33.41-62.76l1.13-1.29c17.07-19.54,16.38-26.36,8.37-34.26
		c-8.78-8.66-22.62-21.68-41.35-34.67C12.42,155.13,6.1,151.07,0,147.47v0.58c6.01,3.56,12.24,7.56,18.53,11.92
		c18.7,12.97,32.52,25.97,41.29,34.62c7.78,7.67,8.41,14.34-8.39,33.58l-1.13,1.29c-14.4,16.47-32.33,36.97-33.53,63.07
		C15.63,317.02,6.41,324.21,0,326.23v0.52C6.56,324.76,16.11,317.53,17.26,292.55z"/>
	<path class="st1" d="M307.06,419.78c-2.94-6.26-14.81-7.58-24.26-7.58c-3.32,0-6.91,0.16-10.68,0.47
		c-10.5,0.87-21.48,2.95-33.57,6.37c-1.69,0.48-3.37,1-4.99,1.53c-10.4,3.45-18.4,8.45-24.45,15.27c-3.62,4.08-6.48,8.78-8.66,14.16
		h0.31c5.79-14.28,16.45-23.68,32.9-29.14c1.62-0.54,3.29-1.05,4.98-1.53c12.07-3.41,23.03-5.49,33.51-6.36
		c3.76-0.31,7.35-0.47,10.66-0.47c9.36,0,21.11,1.28,23.98,7.4c3.15,6.71-4.5,13.9-9.57,18.66c-0.86,0.81-1.67,1.58-2.36,2.26
		c-3.25,3.27-6.06,6.1-7.99,8.72c-0.11,0.15-0.22,0.3-0.33,0.46h0.37c0.07-0.09,0.13-0.18,0.2-0.28c1.91-2.6,4.71-5.42,7.96-8.68
		c0.68-0.68,1.49-1.45,2.35-2.25C302.55,433.97,310.29,426.68,307.06,419.78z"/>
	<path class="st1" d="M101.05,403.63c-4.45-1.14-9.23-1.22-13.85-1.29c-2.67-0.04-5.43-0.08-8.06-0.33
		c-12.59-1.2-23.38-4.11-33.95-9.16c-11.5-5.49-19.67-10.55-26.23-14.62c-2.38-1.47-4.72-2.22-6.97-2.22
		c-4.18,0-8.51,2.74-11.98,7.31v0.5c3.45-4.69,7.79-7.51,11.98-7.51c2.19,0,4.48,0.73,6.81,2.18c6.57,4.07,14.74,9.13,26.26,14.63
		c10.61,5.07,21.43,7.98,34.05,9.19c2.65,0.25,5.41,0.29,8.09,0.34c4.61,0.07,9.37,0.15,13.79,1.28c6.87,1.77,6.63,6.79,5.65,12.68
		c-1.16,7.03-2.13,13.99-1.17,21.9c0.48,3.93,1.23,7.77,2.13,11.5h0.31c-0.91-3.75-1.66-7.6-2.14-11.54
		c-0.95-7.87,0.01-14.81,1.17-21.81C107.88,410.83,108.16,405.46,101.05,403.63z"/>
	<path class="st1" d="M127.64,8.65c6.85,21.34,9.64,32.94-7.37,42.77c-2.79,1.61-5.96,2.81-9.42,3.54
		c-2.93,0.62-6.16,0.94-9.58,0.94c-31.62,0-75.04-26.42-98.38-40.61l-0.8-0.48C1.38,14.37,0.68,13.95,0,13.53v0.58
		c0.6,0.36,1.21,0.73,1.83,1.11l0.8,0.48C26,29.94,69.51,56.4,101.26,56.4c3.46,0,6.72-0.32,9.69-0.95c3.51-0.75,6.73-1.96,9.56-3.6
		c17.34-10.02,14.53-21.76,7.6-43.36c-0.88-2.73-1.79-5.58-2.63-8.5h-0.52C125.81,2.97,126.74,5.87,127.64,8.65z"/>
	<path class="st1" d="M87.72,5.6c0.2,0.75,0.48,1.68,0.8,2.72c0.9,2.96,0.74,4.95-0.48,5.93c-0.61,0.49-1.5,0.74-2.65,0.74
		c-4.88,0-13-4.35-15.67-5.79c-1.3-0.7-2.29-1.22-3.06-1.61l-4.1-2.02C58.79,3.73,55.12,1.87,51.57,0h-0.64
		c3.71,1.96,7.55,3.91,11.49,5.84l4.1,2.02c0.77,0.38,1.75,0.91,3.05,1.6c2.69,1.44,10.86,5.82,15.82,5.82
		c1.22,0,2.18-0.27,2.84-0.8c1.33-1.06,1.52-3.16,0.58-6.25c-0.32-1.04-0.6-1.96-0.8-2.72C87.53,3.71,87.04,1.88,86.59,0h-0.31
		C86.74,1.91,87.23,3.77,87.72,5.6z"/>
	<path class="st1" d="M118.21,11.68c2.77,8.64,5.43,19.48,1.28,26.64c-2.05,3.55-5.66,5.89-10.7,6.96C106.53,45.76,104,46,101.27,46
		C72.42,46,30.54,20.52,8.03,6.83L3.88,4.31C2.61,3.54,1.31,2.82,0,2.14v0.34c1.26,0.65,2.5,1.34,3.73,2.08l4.15,2.52
		C30.4,20.79,72.34,46.3,101.27,46.3c2.75,0,5.31-0.25,7.58-0.73c5.13-1.09,8.8-3.48,10.9-7.11c4.21-7.26,1.54-18.18-1.25-26.88
		c-1.2-3.73-2.38-7.61-3.4-11.58h-0.31C115.81,4.01,117,7.92,118.21,11.68z"/>
	<path class="st1" d="M94.49,3.8c0.18,0.68,0.44,1.51,0.73,2.48c1.45,4.76,3.65,11.95,1.57,15.27c-0.85,1.35-2.16,2.24-3.89,2.63
		c-0.7,0.16-1.48,0.24-2.33,0.24c-7.3,0-18.27-5.88-24.16-9.04c-1.14-0.61-2.13-1.14-2.87-1.51l-0.51-0.25
		c-0.58-0.29-1.12-0.56-1.62-0.8l-1.93-0.95C51.51,7.96,43.94,3.96,36.98,0h-0.6c7.1,4.05,14.82,8.14,22.96,12.12l1.93,0.95
		c0.5,0.24,1.04,0.51,1.62,0.8l0.51,0.25c0.74,0.37,1.72,0.9,2.86,1.51c5.91,3.17,16.92,9.08,24.3,9.08c0.87,0,1.67-0.08,2.39-0.24
		c1.82-0.41,3.19-1.34,4.08-2.76c2.15-3.43-0.07-10.7-1.54-15.51c-0.29-0.96-0.55-1.79-0.73-2.47C94.45,2.5,94.12,1.26,93.8,0h-0.31
		C93.82,1.28,94.15,2.55,94.49,3.8z"/>
	<path class="st1" d="M101.25,2c1.42,5.33,2.89,10.85,3.04,16.54c0.2,7.36-2.67,11.57-8.52,12.52c-0.87,0.14-1.82,0.21-2.82,0.21
		c-10.17,0-24.72-7.26-32.54-11.16c-0.76-0.38-1.46-0.73-2.1-1.04l-1.93-0.95C44.22,12.18,32.94,6,23.26,0h-0.57
		c9.78,6.08,21.21,12.36,33.56,18.41l1.93,0.95c0.63,0.31,1.33,0.66,2.1,1.04c7.84,3.91,22.44,11.19,32.68,11.19
		c1.02,0,1.99-0.07,2.87-0.22c6.03-0.98,8.98-5.29,8.77-12.83c-0.16-5.73-1.63-11.26-3.05-16.61c-0.17-0.64-0.34-1.28-0.51-1.92
		h-0.31C100.9,0.67,101.07,1.34,101.25,2z"/>
	<path class="st1" d="M111.55,13.82c0.15,0.46,0.3,0.92,0.45,1.38c1.6,4.86,3.25,9.89,0.58,14.75c-2.23,4.05-6.74,7.34-11.5,8.37
		c-0.49,0.11-0.98,0.19-1.46,0.24c-1.19,0.14-2.44,0.21-3.71,0.21c-13.43,0-29.18-7.74-40.68-13.39l-1.93-0.94
		C38.53,17.19,24.26,8.51,11.67,0.85c-0.53-0.32-0.99-0.6-1.4-0.85H9.69c0.95,0.58,1.82,1.11,1.82,1.11
		c12.59,7.66,26.87,16.34,41.66,23.59l1.92,0.94c11.53,5.66,27.31,13.42,40.81,13.42c1.29,0,2.55-0.07,3.75-0.21
		c0.49-0.06,0.99-0.14,1.49-0.25c4.84-1.05,9.43-4.39,11.7-8.52c2.73-4.97,1.06-10.06-0.56-14.99c-0.15-0.46-0.3-0.92-0.45-1.38
		c-1.41-4.38-2.79-8.97-3.94-13.72h-0.31C108.74,4.78,110.13,9.41,111.55,13.82z"/>
	<path class="st1" d="M100.66,223.23c-4.39,1.08-8.22,7.16-11.31,12.04c-1.08,1.71-2.1,3.32-2.99,4.47
		c-4.96,6.41-10.56,12.18-15.98,17.75c-1.41,1.45-3.19,3.1-5.06,4.84c-5.58,5.17-12.52,11.61-14.63,17.5
		c-1.77,4.95-0.73,9.68,0.28,14.24c0.83,3.75,1.69,7.63,1.01,11.65c-0.42,2.5-1.93,4.96-3.54,7.56c-1.92,3.12-3.9,6.34-4.02,9.81
		c-0.04,1.18,0.14,2.34,0.54,3.46c1.32,3.71,2.7,5.43,4.34,5.43c1.65,0,3.39-1.69,6.01-5.82c2.5-3.95,3.48-8.52,4.43-12.94
		c0.95-4.44,1.94-9.03,4.46-13c4.8-7.56,13.26-13.14,20.72-18.05c0.63-0.41,1.25-0.83,1.87-1.23c12.39-8.21,22.18-14.7,26.55-32.16
		c1.16-4.62,0.85-16.4-3.85-22.42C107.2,223.43,104.2,222.36,100.66,223.23z M109.09,226.66c4.21,5.4,5.05,16.81,3.76,21.99
		c-4.32,17.28-14.04,23.72-26.34,31.87c-0.61,0.41-1.24,0.82-1.87,1.23c-7.51,4.94-16.02,10.55-20.87,18.2
		c-2.57,4.05-3.56,8.68-4.53,13.17c-0.94,4.38-1.91,8.91-4.36,12.78c-1.75,2.76-3.78,5.59-5.58,5.59c-1.38,0-2.64-1.67-3.87-5.1
		c-0.38-1.07-0.55-2.15-0.51-3.28c0.12-3.33,2.06-6.5,3.95-9.56c1.63-2.65,3.17-5.15,3.6-7.74c0.7-4.12-0.17-8.05-1.01-11.84
		c-1.04-4.71-2.03-9.15-0.3-13.97c2.07-5.77,8.96-12.16,14.5-17.3c1.88-1.75,3.66-3.39,5.08-4.86c5.43-5.59,11.04-11.37,16.02-17.8
		c0.91-1.17,1.93-2.8,3.02-4.51c3.04-4.8,6.81-10.78,11-11.82c0.76-0.19,1.5-0.28,2.2-0.28
		C105.36,223.44,107.42,224.52,109.09,226.66z"/>
	<path class="st1" d="M105.26,201.52c-2.38-3.43-4.45-3.87-6.65-4.34c-1.51-0.32-3.08-0.66-4.87-2.01l-0.15-0.17
		c-5.1-5.71-22.21-24.33-28-24.33c-0.68,0-1.21,0.24-1.58,0.72c-0.77,1.01-0.73,3.04,0.12,6.21c0.51,1.88,5.35,4.48,10.48,7.24
		c4.27,2.29,8.69,4.66,10.19,6.44c1.34,1.6,3.11,3.81,2.95,4.57c-0.04,0.21-0.27,0.33-0.66,0.52c-0.89,0.44-2.24,1.12-1.52,4.27
		c0.5,2.18,1.85,4.35,3.15,6.45c1.22,1.95,2.37,3.8,2.83,5.59c1.28,4.92-6.78,13.95-12.11,19.92c-1.76,1.97-3.28,3.67-4.25,4.96
		c-3.88,5.15-8.73,9.93-13.41,14.54c-9.11,8.98-18.52,18.26-21.84,31.07c-4.95,19.15-5.94,36.06-2.93,50.26
		c1.6,7.58,7.12,18.14,12.47,18.14c3.33,0,5.76-4,7.21-11.9c5.6-30.42,20.87-40.54,35.65-50.33c13.09-8.67,25.45-16.86,30.77-38.14
		c2-8.03-1.08-20.37-5.09-27.2c-1.79-3.05-4.04-4.76-6.22-6.42c-1.91-1.46-3.72-2.83-5.12-5.03c-0.99-1.55-0.81-3.37-0.63-5.28
		C106.27,205.31,106.47,203.26,105.26,201.52z M106.11,212.95c1.46,2.3,3.32,3.71,5.29,5.21c2.12,1.62,4.32,3.29,6.04,6.22
		c3.94,6.71,6.97,18.82,5.01,26.68c-5.25,21.01-17.5,29.13-30.48,37.72c-14.89,9.87-30.3,20.08-35.95,50.79
		c-1.36,7.41-3.62,11.33-6.53,11.33c-4.54,0-10.07-9.46-11.79-17.59c-2.98-14.09-2-30.9,2.93-49.94
		c3.26-12.63,12.61-21.84,21.65-30.75c4.7-4.63,9.56-9.42,13.48-14.62c0.95-1.26,2.46-2.95,4.21-4.91
		c5.76-6.45,13.64-15.29,12.26-20.56c-0.5-1.9-1.67-3.78-2.92-5.78c-1.28-2.05-2.59-4.16-3.06-6.23c-0.6-2.62,0.33-3.08,1.15-3.49
		c0.45-0.23,0.92-0.46,1.04-1.01c0.15-0.73-0.31-1.85-3.1-5.16c-1.58-1.88-6.06-4.28-10.39-6.61c-4.55-2.44-9.7-5.21-10.13-6.8
		c-0.98-3.62-0.67-5.04-0.24-5.6c0.23-0.3,0.56-0.44,1.02-0.44c4.37,0,17.06,12.45,27.48,24.09c0.13,0.14,0.2,0.22,0.21,0.22
		c1.95,1.48,3.67,1.85,5.18,2.17c2.14,0.46,3.99,0.85,6.22,4.06c1.06,1.52,0.88,3.36,0.69,5.3
		C105.19,209.17,104.99,211.19,106.11,212.95z"/>
	<path class="st1" d="M0,136.61c33.72,19.08,70.06,49.44,76.68,64.53c3.97,9.06-5.66,19.89-17.85,33.6
		c-13.86,15.58-31.1,34.97-32.18,58.24C25.34,321.35,11.28,333,0,336.52v0.73c11.54-3.52,26.02-15.32,27.35-44.24
		c1.06-23.02,18.22-42.31,32-57.81c12.36-13.9,22.12-24.87,17.97-34.35c-6.67-15.2-43.36-45.83-77.32-65V136.61z"/>
	<path class="st1" d="M169.87,0.06c0.02-0.02,0.03-0.04,0.05-0.06h-0.41c-0.63,0.67-1.26,1.37-1.7,2.39
		c-1.24,2.92-0.89,5.96-0.55,8.9c0.19,1.64,0.39,3.33,0.31,4.99c-0.12,2.61-0.66,5.31-1.17,7.93c-0.42,2.16-0.86,4.39-1.07,6.57
		c-1.28,13.23-0.12,25.19,3.44,35.55c0.74,2.15,3.64,5.46,6.71,8.96c3.92,4.48,7.98,9.11,8.14,11.92c0.04,0.63-0.12,1.12-0.49,1.51
		c-1.06,1.12-3.9,1.33-8.45,0.61c-3.3-0.52-6.48-1.9-9.55-3.24c-1.79-0.78-3.65-1.59-5.5-2.21c-0.52-0.18-1.06-0.35-1.62-0.54
		c-6.65-2.19-15.75-5.2-17.06-10.46c-0.62-2.51,0.6-5.38,3.63-8.53c4.77-4.96,9.71-10.09,13.05-17.88c3.2-7.47,6.89-22,5.48-29.86
		c-0.29-1.61-0.96-2.7-1.61-3.75c-0.87-1.41-1.69-2.74-1.32-5.15c0.28-1.78,0.97-2.82,1.58-3.73c0.73-1.1,1.37-2.1,1.19-3.98h-0.3
		c0.18,1.79-0.42,2.72-1.14,3.82c-0.63,0.94-1.34,2.01-1.62,3.85c-0.39,2.52,0.46,3.9,1.36,5.35c0.64,1.03,1.29,2.09,1.57,3.65
		c1.4,7.81-2.27,22.26-5.46,29.69c-3.32,7.74-8.24,12.85-12.99,17.79c-3.1,3.23-4.35,6.19-3.7,8.81
		c1.34,5.42,10.54,8.46,17.26,10.68c0.56,0.18,1.1,0.36,1.62,0.54c1.84,0.62,3.69,1.42,5.47,2.2c3.09,1.34,6.28,2.73,9.62,3.26
		c1.79,0.28,3.33,0.43,4.59,0.43c2.06,0,3.41-0.37,4.12-1.13c0.42-0.45,0.61-1.03,0.57-1.73c-0.17-2.91-4.26-7.58-8.22-12.1
		c-3.05-3.48-5.93-6.77-6.65-8.86c-3.55-10.32-4.7-22.24-3.43-35.42c0.21-2.16,0.65-4.39,1.07-6.54c0.52-2.63,1.05-5.34,1.17-7.97
		c0.08-1.68-0.12-3.39-0.31-5.04c-0.35-3.04-0.69-5.9,0.53-8.75C168.54,1.47,169.21,0.75,169.87,0.06z"/>
	<path class="st1" d="M137.06,5.62c6.33,19.71,12.87,40.08-11.84,54.37c-3.69,2.14-7.84,3.7-12.31,4.65
		c-3.61,0.77-7.53,1.16-11.65,1.16C67.85,65.8,26.06,40.96,0,25.12v0.82C26.15,41.82,67.82,66.5,101.26,66.5
		c4.17,0,8.13-0.39,11.79-1.17c4.55-0.97,8.76-2.56,12.52-4.73c25.2-14.57,18.57-35.22,12.16-55.19c-0.58-1.82-1.16-3.62-1.71-5.41
		h-0.73C135.85,1.86,136.46,3.73,137.06,5.62z"/>
	<path class="st1" d="M95.87,413.11c-3.64-3.37-9.08-3.65-13.88-3.9c-1.23-0.06-2.4-0.12-3.52-0.23c-13.43-1.28-24.97-4.4-36.3-9.81
		c-9.75-4.66-17.31-8.91-23.78-13.37c-1.77-1.22-3.58-1.84-5.39-1.84c-4.1,0-7.96,3.22-10.32,8.6c-0.89,2.03-1.77,4.03-2.68,6.01
		v0.72c1-2.17,1.97-4.37,2.95-6.61c2.31-5.27,6.07-8.42,10.05-8.42c1.74,0,3.5,0.6,5.22,1.79c6.48,4.47,14.05,8.73,23.82,13.4
		c11.37,5.43,22.94,8.56,36.41,9.84c1.13,0.11,2.3,0.17,3.54,0.23c4.75,0.25,10.13,0.53,13.69,3.82c4.13,3.82,3.55,11.07,3.03,17.46
		c-0.25,3.14-0.49,6.12-0.2,8.54c0.44,3.61,1.31,7.18,2.22,10.66h0.31c-0.92-3.5-1.79-7.08-2.23-10.7c-0.29-2.4-0.05-5.36,0.2-8.49
		C99.52,424.35,100.1,417.03,95.87,413.11z"/>
	<path class="st1" d="M2.41,430.47c-0.88-0.35-1.68-0.68-2.41-1.05v0.34c0.71,0.36,1.48,0.67,2.29,0.99
		c0.42,0.17,0.85,0.34,1.3,0.53c6.43,2.71,11.35,5.27,15.46,8.04c5.16,3.48,10.99,7.07,17.32,10.68h0.6
		c-6.5-3.7-12.47-7.37-17.75-10.93c-4.13-2.78-9.06-5.35-15.51-8.07C3.26,430.81,2.83,430.63,2.41,430.47z"/>
	<path class="st1" d="M15.15,445.12c2.38,1.61,4.91,3.23,7.55,4.88h0.57c-2.79-1.73-5.45-3.44-7.95-5.12
		c-3.53-2.38-9.47-5.44-15.31-7.84v0.32C5.79,439.74,11.65,442.77,15.15,445.12z"/>
	<path class="st1" d="M9.34,208.18c-0.49-3.22-2.72-6.11-6.8-8.81c-0.84-0.55-1.68-1.11-2.54-1.7v0.36c0.8,0.54,1.59,1.07,2.38,1.59
		c4.01,2.65,6.19,5.47,6.67,8.6c0.79,5.19-3.15,10.53-7.98,16.49c-0.33,0.4-0.69,0.9-1.06,1.43v0.52c0.47-0.67,0.9-1.28,1.3-1.76
		C6.18,218.89,10.16,213.49,9.34,208.18z"/>
	<path class="st1" d="M7.51,448.33L7.51,448.33c-2.41-1.47-4.93-2.77-7.51-3.93v0.33c2.53,1.15,4.99,2.42,7.36,3.85
		c0.02,0.01,1.23,0.74,2.33,1.42h0.58C8.21,448.75,7.67,448.42,7.51,448.33z"/>
	<path class="st1" d="M68.19,0.99c1.88,0.95,4.44,2.25,6.71,2.25c0.95,0,1.77-0.23,2.45-0.7c0.06-0.04,0.11-0.08,0.17-0.12
		c0.74-0.59,1.22-1.45,1.51-2.42h-0.52c-0.27,0.83-0.68,1.54-1.3,2.03c-0.04,0.04-0.09,0.07-0.14,0.1c-0.59,0.4-1.32,0.61-2.17,0.61
		c-2.15,0-4.66-1.27-6.49-2.2c-0.28-0.14-0.53-0.27-0.77-0.39c0,0-0.13-0.06-0.32-0.16h-1.14l1.24,0.61
		C67.66,0.72,67.92,0.85,68.19,0.99z"/>
	<path class="st1" d="M72.89,441c0.37-1.29,0.25-2.42-0.35-3.34c-1.47-2.27-5.43-2.85-8.32-3.27c-0.48-0.07-0.93-0.14-1.32-0.2
		c-0.13-0.02-0.35-0.07-0.64-0.12c-1.51-0.3-4.66-0.94-7.02-0.94c-1.41,0-2.31,0.23-2.75,0.69c-0.22,0.23-0.33,0.52-0.31,0.86
		c0.14,2.58,4.1,4.18,6.47,5.13c0.37,0.15,0.7,0.28,0.98,0.4c0.64,0.28,1.36,0.64,2.13,1.02c2.44,1.21,5.21,2.59,7.58,2.59
		c0.31,0,0.6-0.02,0.88-0.07C71.54,443.52,72.44,442.6,72.89,441z M70.11,443.18c-0.24,0.04-0.51,0.06-0.78,0.06
		c-2.24,0-4.94-1.35-7.32-2.53c-0.77-0.38-1.5-0.75-2.15-1.03c-0.28-0.12-0.62-0.26-0.99-0.41c-2.24-0.9-5.99-2.41-6.11-4.62
		c-0.01-0.17,0.04-0.31,0.15-0.43c0.22-0.23,0.81-0.51,2.33-0.51c2.3,0,5.41,0.62,6.91,0.93c0.3,0.06,0.52,0.1,0.66,0.13
		c0.4,0.07,0.85,0.13,1.34,0.21c2.63,0.38,6.6,0.96,7.92,3.01c0.51,0.79,0.6,1.73,0.28,2.87C71.95,442.23,71.22,442.99,70.11,443.18
		z"/>
	<path class="st1" d="M92.38,427.63c0.48-2.94,0.97-5.98-0.97-8.29c-2.32-2.76-6.1-2.95-9.44-3.12l-0.34-0.02
		c-1.19-0.06-2.53-0.13-3.82-0.25c-14.27-1.36-26.56-4.68-38.66-10.46c-3.81-1.82-7.55-3.89-11.17-5.9
		c-1.99-1.1-4.04-2.24-6.09-3.33l-0.14-0.07c-2.4-1.27-4.88-2.59-7.43-2.59c-1.35,0-2.56,0.37-3.71,1.12
		c-4.07,2.65-6.02,7.79-7.91,12.76c-0.86,2.26-1.69,4.39-2.68,6.26v0.63c1.12-1.99,2.02-4.32,2.96-6.78
		c1.87-4.93,3.81-10.02,7.8-12.62c1.1-0.72,2.27-1.07,3.55-1.07c2.48,0,4.93,1.3,7.29,2.56l0.14,0.07c2.04,1.08,4.1,2.22,6.09,3.32
		c3.62,2.01,7.37,4.08,11.19,5.91c12.13,5.8,24.45,9.13,38.76,10.49c1.3,0.12,2.65,0.19,3.84,0.25l0.34,0.02
		c3.28,0.17,6.99,0.36,9.22,3.02c1.85,2.21,1.37,5.18,0.9,8.05c-0.15,0.92-0.29,1.8-0.36,2.66c-0.27,3.35-0.55,6.81-0.17,9.94
		c0.41,3.41,1.14,6.66,1.94,9.82h0.31c-0.81-3.17-1.54-6.44-1.95-9.86c-0.38-3.1-0.1-6.54,0.17-9.89
		C92.09,429.42,92.23,428.55,92.38,427.63z"/>
	<path class="st1" d="M18.19,211.57c2.6-7.3-0.02-10.24-11.79-18.03c-0.93-0.62-1.87-1.24-2.83-1.89c-1.23-0.83-2.41-1.63-3.57-2.43
		v0.36c1.11,0.76,2.23,1.52,3.41,2.32c0.95,0.64,1.89,1.27,2.83,1.88c11.61,7.69,14.2,10.57,11.67,17.68
		c-2.29,6.44-6.72,11.89-11.41,17.66c-2.18,2.69-4.41,5.43-6.5,8.36v0.52c2.15-3.05,4.46-5.9,6.73-8.69
		C11.44,223.52,15.88,218.05,18.19,211.57z"/>
	<path class="st1" d="M79.09,423.7c-3.16-1.38-6.61-1.71-9.94-2.03c-1.9-0.18-3.86-0.37-5.74-0.75c-9.42-1.91-18.6-4.98-27.28-9.12
		c-4-1.91-7.83-4.03-11.55-6.09c-0.53-0.29-1.14-0.68-1.79-1.1c-2.14-1.37-4.81-3.07-7.2-3.07c-0.89,0-1.69,0.24-2.38,0.72
		c-1.82,1.28-2.68,3.84-3.44,6.11c-0.19,0.56-0.37,1.1-0.55,1.58c-0.32,0.85-0.97,2.03-1.66,3.28c-1.66,3.02-3.73,6.77-2.99,9.03
		c0.75,2.28,3.72,3.53,6.11,4.53c0.54,0.23,1.05,0.44,1.49,0.65c4.08,1.94,7.61,3.92,10.8,6.07c7.9,5.33,17.43,10.93,27.96,16.49
		h0.64c-10.73-5.64-20.41-11.33-28.43-16.74c-3.2-2.16-6.74-4.15-10.83-6.09c-0.44-0.21-0.96-0.43-1.5-0.66
		c-2.33-0.98-5.23-2.2-5.94-4.35c-0.7-2.13,1.33-5.83,2.96-8.79c0.72-1.31,1.35-2.44,1.68-3.31c0.19-0.49,0.37-1.03,0.56-1.6
		c0.74-2.22,1.59-4.74,3.33-5.96c0.63-0.44,1.38-0.67,2.2-0.67c2.3,0,4.93,1.68,7.04,3.02c0.65,0.42,1.27,0.81,1.81,1.11
		c3.71,2.06,7.55,4.18,11.56,6.1c8.7,4.16,17.9,7.23,27.35,9.15c1.89,0.38,3.86,0.57,5.77,0.75c3.31,0.32,6.74,0.64,9.85,2
		c5.51,2.4,5.48,7.1,5.46,12.08c-0.01,1.64-0.02,3.34,0.18,4.97c0.38,3.16,0.99,6.12,1.68,8.98h0.31c-0.69-2.87-1.3-5.84-1.69-9.01
		c-0.2-1.61-0.19-3.3-0.18-4.93C84.75,430.98,84.77,426.18,79.09,423.7z"/>
	<path class="st1" d="M65.68,449.2c-14.82-7.26-28.16-14.8-38.58-21.82c-1.37-0.92-2.86-1.69-4.3-2.44
		c-1.99-1.03-4.05-2.09-5.79-3.57c-2.37-2.01-2.98-3.99-1.98-6.42c0.79-1.9,2.11-2.83,4.05-2.83c3.24,0,7.55,2.62,10.7,4.54
		c1.24,0.75,2.31,1.41,3.15,1.81c9.23,4.41,18.98,7.67,29,9.7c2.26,0.46,4.41,0.66,6.5,0.86c0.36,0.03,0.74,0.06,1.12,0.09
		c2.51,0.2,5.36,0.42,7.05,2.29c1.7,1.87,1.86,5.66,1.99,8.71c0.04,0.84,0.07,1.64,0.13,2.33l0.03,0.38
		c0.19,2.01,0.46,4.99-0.26,7.16h0.52c0.69-2.26,0.42-5.2,0.23-7.21l-0.03-0.38c-0.06-0.68-0.1-1.47-0.13-2.31
		c-0.13-3.13-0.3-7.02-2.12-9.02c-1.83-2.02-4.78-2.25-7.38-2.45c-0.38-0.03-0.75-0.06-1.11-0.09c-2.08-0.2-4.22-0.4-6.45-0.86
		c-9.97-2.02-19.69-5.27-28.88-9.66c-0.82-0.39-1.88-1.04-3.11-1.78c-3.2-1.95-7.58-4.61-10.96-4.61c-2.14,0-3.66,1.05-4.52,3.13
		c-1.09,2.62-0.41,4.84,2.12,6.99c1.79,1.51,3.87,2.59,5.89,3.63c1.43,0.74,2.9,1.5,4.25,2.41c10.44,7.03,23.8,14.59,38.64,21.86
		c0.28,0.14,0.52,0.25,0.72,0.36h1.14C66.76,449.73,65.68,449.2,65.68,449.2z"/>
	<path class="st1" d="M97.07,249.26l-0.07,0c-1.42,0-2.86,1.8-3.91,3.12c-0.23,0.28-0.43,0.54-0.61,0.74
		c-0.99,1.13-1.95,2.32-2.87,3.48c-0.6,0.75-1.19,1.49-1.8,2.22l-0.07,0.09c-2,2.37-2.81,3.91-2.49,4.71
		c0.09,0.22,0.31,0.5,0.85,0.56c0.08,0.01,0.16,0.01,0.24,0.01l0.05,0c4-0.09,7.24-3.71,8.82-5.86c1.5-2.05,2.57-4.27,2.95-6.08
		c0.09-0.42,0.33-1.86-0.24-2.58C97.7,249.42,97.41,249.28,97.07,249.26z M97.66,252.16c-0.36,1.74-1.4,3.89-2.86,5.88
		c-1.52,2.08-4.64,5.58-8.43,5.66l-0.04,0.25v-0.25c-0.06,0-0.12,0-0.18-0.01c-0.36-0.04-0.42-0.2-0.44-0.25
		c-0.11-0.28-0.09-1.24,2.41-4.21l0.08-0.09c0.61-0.74,1.21-1.48,1.81-2.23c0.92-1.15,1.87-2.34,2.86-3.46
		c0.18-0.2,0.39-0.47,0.62-0.76c0.93-1.17,2.34-2.93,3.57-2.93h0c0.2,0.01,0.35,0.08,0.47,0.23
		C97.86,250.43,97.81,251.44,97.66,252.16z"/>
	<path class="st1" d="M202.57,350.57c13.27-1.51,27.5-16.88,27.68-29.9c0.28-19.96-11.19-35.91-22.29-51.33
		c-1.88-2.62-3.83-5.33-5.67-7.99l-1.11-1.6c-5.22-7.52-11.14-16.05-13.07-25.26c-1.63-7.81-4.12-25.98-1.41-32.26
		c1.99-4.6,7.65-7.23,13.12-9.77c3.78-1.76,7.35-3.42,9.86-5.69l0.12-0.11c8.58-7.77,8.58-7.77,14.43-7.97
		c1.77-0.06,3.97-0.14,7.08-0.43c4.17-0.39,6.63-1,8.43-1.44c1.14-0.28,1.97-0.49,2.7-0.49c1.8,0,3.31,1.28,8.3,5.5
		c14.75,12.49,14.47,34.21,14.21,55.22c-0.34,26.43-0.69,53.77,29.23,62.42c4.3,1.24,8.49,1.88,12.45,1.88
		c11.25,0,20.82-5.03,27.69-14.53c10.08-13.95,12.76-35.71,6.66-54.16c-14.07-42.58-47.69-66.93-83.85-90.13
		c-32.87-21.09-64.17-26.9-90.94-30.69c-1.94-0.27-3.78-0.41-5.48-0.41c-10.85,0-16.01,5.52-22.54,12.51
		c-2.5,2.68-5.09,5.44-8.3,8.27c-3.68,3.23-8.35,5.44-12.88,7.58c-7.38,3.49-14.35,6.78-17.23,14.11
		c-6.11,15.55,8.9,27.66,22.15,38.35c6.13,4.95,11.92,9.62,15.32,14.29c13.45,18.52,9.43,49.75-2.77,67.3
		c-3.81,5.48-11.11,12.25-18.84,19.43c-12.8,11.88-27.31,25.35-29.87,36.66c-1.21,5.32-0.89,9.04,0.96,11.36
		c1.55,1.94,4.16,2.88,7.98,2.88c6.29,0,15.29-2.59,24.82-5.33c11.65-3.35,24.86-7.15,36.12-7.15c5.37,0,9.82,0.83,13.59,2.55
		c4.34,1.98,8.02,4.83,11.57,7.6c5.87,4.56,11.41,8.87,19.25,8.87C200.87,350.71,201.72,350.66,202.57,350.57z M169.44,333.79
		c-3.84-1.75-8.35-2.6-13.8-2.6c-11.33,0-24.58,3.81-36.26,7.17c-9.5,2.73-18.47,5.31-24.69,5.31c-3.66,0-6.14-0.88-7.58-2.69
		c-1.75-2.19-2.04-5.77-0.87-10.93c2.53-11.16,16.98-24.57,29.72-36.41c7.75-7.19,15.07-13.99,18.91-19.51
		c12.3-17.69,16.34-49.19,2.76-67.88c-3.43-4.72-9.25-9.42-15.41-14.39c-13.11-10.58-27.97-22.58-22-37.78
		c2.81-7.14,9.69-10.4,16.98-13.84c4.56-2.15,9.27-4.38,13-7.66c3.23-2.84,5.83-5.62,8.34-8.3c6.45-6.9,11.54-12.35,22.18-12.35
		c1.68,0,3.5,0.14,5.41,0.41c26.71,3.78,57.95,9.58,90.74,30.62c36.08,23.15,69.63,47.44,83.65,89.87
		c6.05,18.31,3.4,39.89-6.59,53.71c-6.77,9.37-16.21,14.32-27.29,14.32c-3.91,0-8.05-0.62-12.31-1.86
		c-13.25-3.83-21.64-11.71-25.63-24.07c-3.58-11.07-3.4-24.69-3.23-37.86c0.27-21.12,0.55-42.96-14.38-55.61
		c-7.13-6.04-7.33-6.14-11.45-5.12c-1.78,0.44-4.23,1.04-8.36,1.43c-3.09,0.29-5.29,0.37-7.05,0.43c-6.03,0.21-6.03,0.21-14.75,8.1
		l-0.12,0.11c-2.45,2.22-5.99,3.87-9.74,5.61c-5.56,2.58-11.31,5.26-13.37,10.03c-2.76,6.39-0.26,24.69,1.38,32.56
		c1.94,9.31,7.89,17.88,13.14,25.45l1.11,1.6c1.84,2.66,3.79,5.37,5.68,7.99c11.05,15.36,22.48,31.23,22.2,51.03
		c-0.18,12.81-14.18,27.92-27.24,29.41c-0.83,0.09-1.66,0.14-2.46,0.14c-7.67,0-13.14-4.26-18.94-8.76
		C177.53,338.67,173.83,335.79,169.44,333.79z"/>
	<path class="st1" d="M450,2.14c-1.5-0.77-3.03-1.49-4.59-2.14h-0.81c1.84,0.75,3.64,1.57,5.41,2.48V2.14z"/>
	<path class="st1" d="M436.39,196.58c-0.51-0.37-1.29-1.05-2.28-1.92c-3.8-3.32-10.17-8.87-14.66-8.87c-1.76,0-3.07,0.85-3.9,2.53
		c-1.04,2.1,1.25,6.98,2.77,10.21c0.37,0.79,0.69,1.47,0.89,1.96c0.41,1.01,0.79,1.93,1.1,2.76c2.12,5.56,4.32,11.3,5.95,17.54
		c0.17,0.65,0.34,1.39,0.51,2.17c0.75,3.33,1.67,7.46,3.97,9.49c0.89,0.79,1.76,1.31,2.59,1.56c0.38,0.11,0.75,0.17,1.12,0.17
		c2.72,0,4.59-3.09,6.4-6.08c0.41-0.68,0.84-1.39,1.26-2.03l0.4-0.61c6.89-10.49,11.05-16.83-1.62-25.62
		C439.66,198.96,438.06,197.8,436.39,196.58z M442.09,225.17l-0.4,0.61c-0.43,0.66-0.86,1.36-1.27,2.05
		c-1.74,2.87-3.53,5.84-5.97,5.84c-0.32,0-0.64-0.05-0.97-0.15c-0.75-0.22-1.56-0.71-2.4-1.45c-2.18-1.92-3.09-5.97-3.82-9.23
		c-0.18-0.79-0.34-1.53-0.51-2.18c-1.64-6.26-3.84-12.02-5.97-17.59c-0.32-0.83-0.69-1.76-1.11-2.77c-0.21-0.5-0.53-1.19-0.9-1.99
		c-1.39-2.95-3.71-7.89-2.77-9.77c0.75-1.51,1.88-2.25,3.45-2.25c4.3,0,10.58,5.48,14.33,8.75c1,0.87,1.79,1.56,2.32,1.95
		c1.67,1.22,3.27,2.39,4.51,3.25C452.87,208.75,448.81,214.93,442.09,225.17z"/>
	<path class="st1" d="M444.59,185.36c-2.21-1.61-4.41-3.41-6.74-5.31c-7.13-5.82-15.2-12.42-22.46-12.42
		c-1.43,0-2.79,0.25-4.16,0.77c-12.82,4.85-10.98,18.4-8.75,26.05c1.37,4.67,3.13,9.3,4.84,13.77c1.99,5.21,4.05,10.6,5.48,16.09
		c0.87,3.31,1.3,6.8,1.72,10.17c1.29,10.35,2.51,20.12,16.31,20.12c1.09,0,2.27-0.06,3.5-0.18c1.57-0.16,2.86-0.4,3.96-0.75
		c3.67-1.18,4.77-3.41,6.43-6.78c0.5-1.02,1.07-2.17,1.78-3.41c1.08-1.91,2.26-3.72,3.49-5.46v-0.52c-1.32,1.86-2.59,3.79-3.75,5.83
		c-0.71,1.25-1.28,2.41-1.79,3.43c-1.63,3.3-2.7,5.48-6.25,6.62c-1.08,0.35-2.35,0.59-3.9,0.74c-1.22,0.12-2.39,0.18-3.47,0.18
		c-13.54,0-14.68-9.2-16.01-19.86c-0.42-3.38-0.86-6.88-1.73-10.21c-1.44-5.51-3.5-10.9-5.5-16.12c-1.71-4.47-3.47-9.08-4.84-13.74
		c-2.21-7.55-4.03-20.93,8.56-25.69c1.33-0.5,2.66-0.75,4.05-0.75c7.15,0,15.18,6.56,22.27,12.35c2.33,1.91,4.54,3.71,6.75,5.32
		c1.67,1.22,3.14,2.29,4.24,3.05c0.45,0.31,0.9,0.62,1.35,0.93v-0.36c-0.39-0.27-0.79-0.54-1.18-0.81
		C447.72,187.64,446.25,186.57,444.59,185.36z"/>
	<path class="st1" d="M436.69,408.75c-4.4,6.85-9.6,13.42-13.63,18.38c-0.22,0.27-0.46,0.56-0.71,0.85
		c-1.8,2.11-4.04,4.73-2.46,7.38c1.53,2.55,5.9,3.07,9.09,3.44c0.57,0.07,1.12,0.13,1.57,0.2c6.87,1.04,13.38,2.97,19.45,5.72v-0.33
		c-6.07-2.73-12.56-4.65-19.41-5.69c-0.46-0.07-1.01-0.13-1.58-0.2c-3.13-0.37-7.42-0.87-8.87-3.3c-1.47-2.46,0.69-4.99,2.42-7.03
		c0.25-0.3,0.5-0.58,0.72-0.86c4.04-4.97,9.25-11.55,13.65-18.41c3.91-6.08,6.67-12.38,9.6-19.05c0.99-2.25,2.16-4.27,3.46-6.04
		v-0.5c-1.41,1.86-2.68,4.01-3.74,6.42C443.34,396.4,440.58,402.69,436.69,408.75z"/>
	<path class="st1" d="M329.7,5.27c1.56,5.28,12.73,8.2,19.85,8.2c10.16,0,20.81-2,32.09-4.12c11.39-2.14,23.16-4.35,34.62-4.35
		c12.56,0,23.1,2.69,32.24,8.22c0.48,0.29,1,0.61,1.5,0.91v-0.59c-0.41-0.25-0.84-0.51-1.25-0.76c-9.22-5.58-19.85-8.29-32.5-8.29
		c-11.5,0-23.3,2.22-34.71,4.36c-11.25,2.12-21.88,4.11-32,4.11c-7.12,0-17.93-2.98-19.37-7.84c-0.48-1.63,0.1-3.34,1.73-5.13h-0.65
		C329.72,1.81,329.19,3.57,329.7,5.27z"/>
	<path class="st1" d="M414.05,39.93c-1.31,0-2.59-0.01-3.85-0.02c-1.21-0.01-2.4-0.02-3.57-0.02c-6.82,0-12.25,0.37-18.23,2.18
		c-3.13,0.95-6.06,2.44-8.9,3.89c-4.73,2.41-9.21,4.69-14.56,4.69c-0.89,0-1.79-0.06-2.67-0.19c-3.95-0.57-6.9-2.9-9.76-5.15
		c-3.21-2.53-6.25-4.92-10.5-4.92c-0.39,0-0.78,0.02-1.18,0.06c-2.63,0.27-6.83,2.63-10.9,4.92c-2.62,1.47-5.09,2.86-6.84,3.5
		c-2.55,0.94-4.46,1.39-5.85,1.73c-4.2,1-4.73,1.37-6.78,9.11c-0.56,2.14-0.97,4.14-1.37,6.07c-1.47,7.18-2.63,12.85-10.28,18.26
		c-5.16,3.64-11.71,5.42-20.03,5.42c-8.24,0-16.85-1.72-24.45-3.25c-3.97-0.8-7.73-1.55-10.51-1.84c-1.62-0.17-4.12-0.28-6.68-0.28
		c-7.34,0-15.94,2.69-16.54,6.54c-0.28,1.83,1.14,4.57,9.56,7.26l0.94,0.3c32.07,10.29,54.44,23.71,77.2,46.33
		c6.28,6.24,11.08,9.15,15.09,9.15c0.94,0,1.87-0.17,2.74-0.49c4.27-1.59,7.38-6.98,10.99-13.22c1.86-3.22,3.97-6.87,6.47-10.39
		c12.08-17.02,29.41-29.46,48.8-35.02c5.72-1.64,11.31-2.47,16.6-2.47c17.27,0,29.46,8.46,41,17.16v-0.63
		c-11.52-8.67-23.71-17.03-41-17.03c-5.34,0-10.97,0.84-16.74,2.49c-19.5,5.59-36.93,18.1-49.07,35.21
		c-2.51,3.53-4.62,7.2-6.49,10.43c-3.56,6.16-6.63,11.47-10.73,13c-0.82,0.31-1.68,0.46-2.57,0.46c-3.88,0-8.56-2.86-14.74-9
		c-22.82-22.68-45.25-36.14-77.4-46.45l-0.94-0.3c-6.3-2.01-9.57-4.4-9.21-6.7c0.5-3.2,8.15-6.12,16.05-6.12
		c2.54,0,5.02,0.1,6.62,0.27c2.76,0.29,6.51,1.04,10.47,1.84c7.62,1.53,16.26,3.26,24.55,3.26c8.42,0,15.07-1.8,20.32-5.51
		c7.81-5.53,8.99-11.29,10.48-18.57c0.4-1.93,0.8-3.92,1.37-6.05c2.03-7.71,2.45-7.81,6.41-8.75c1.41-0.33,3.33-0.79,5.91-1.74
		c1.79-0.66,4.28-2.06,6.91-3.54c3.83-2.15,8.18-4.6,10.7-4.86c0.38-0.04,0.76-0.06,1.13-0.06c4.08,0,7.05,2.34,10.2,4.81
		c2.91,2.29,5.92,4.66,10,5.25c0.91,0.13,1.84,0.2,2.75,0.2c5.47,0,10.21-2.41,14.78-4.74c2.82-1.43,5.73-2.92,8.81-3.85
		c5.93-1.8,11.31-2.16,18.08-2.16c1.17,0,2.35,0.01,3.56,0.02c1.26,0.01,2.54,0.02,3.85,0.02c6.11,0,11.57,0.71,16.71,2.18
		c6.49,1.85,12.86,4.44,19.24,7.46v-0.55c-6.33-2.98-12.65-5.55-19.1-7.39C425.71,40.65,420.2,39.93,414.05,39.93z"/>
	<path class="st1" d="M439.17,416.93c-3.24,3.89-6.91,8.29-6.73,12.51c0.13,3.25,3.28,3.8,6.06,4.28c0.67,0.12,1.3,0.23,1.89,0.37
		c2.84,0.68,6.21,1.86,9.61,3.26v-0.32c-3.38-1.39-6.72-2.55-9.54-3.23c-0.6-0.15-1.24-0.26-1.91-0.37c-2.8-0.49-5.69-0.99-5.81-4
		c-0.17-4.11,3.46-8.46,6.67-12.31c1.32-1.58,2.57-3.08,3.43-4.43c2.85-4.44,5.08-8.87,7.17-13.41v-0.72
		c-2.16,4.74-4.46,9.36-7.42,13.97C441.72,413.87,440.48,415.36,439.17,416.93z"/>
	<path class="st1" d="M444.83,194.15c-1.16-0.81-2.73-1.95-4.37-3.15c-2.35-1.72-4.62-3.57-7.04-5.54
		c-0.54-0.44-1.14-0.95-1.77-1.48c-4.03-3.42-9.55-8.1-14.63-8.1c-1.4,0-2.7,0.36-3.86,1.08c-8.78,5.43-3.5,18.39-0.35,26.13
		c0.38,0.94,0.75,1.83,1.05,2.62c2.06,5.38,4.19,10.95,5.72,16.82c0.29,1.1,0.58,2.4,0.88,3.77c1.4,6.28,3.31,14.89,8.12,17.99
		c0.79,0.51,1.63,0.83,2.48,0.95c0.25,0.04,0.52,0.05,0.78,0.05c5.88,0,11.74-8.93,16.03-15.46c0.78-1.18,1.48-2.25,2.13-3.18v-0.52
		c-0.71,1.01-1.5,2.2-2.38,3.54c-4.24,6.47-10.06,15.32-15.78,15.32c-0.25,0-0.49-0.02-0.74-0.05c-0.81-0.11-1.6-0.42-2.36-0.9
		c-4.71-3.03-6.61-11.57-7.99-17.8c-0.31-1.37-0.59-2.67-0.88-3.78c-1.54-5.88-3.67-11.46-5.73-16.85c-0.3-0.79-0.66-1.68-1.05-2.62
		c-3.12-7.66-8.33-20.47,0.23-25.76c1.12-0.69,2.36-1.04,3.7-1.04c4.97,0,10.44,4.64,14.43,8.03c0.63,0.54,1.23,1.04,1.79,1.5
		c2.41,1.96,4.68,3.82,7.04,5.54c1.64,1.2,3.21,2.34,4.37,3.15c1.56,1.08,3.14,2.15,4.82,3.29c0.18,0.12,0.35,0.23,0.52,0.35v-0.36
		c-0.12-0.08-0.24-0.16-0.37-0.25C447.96,196.3,446.39,195.23,444.83,194.15z"/>
	<path class="st1" d="M392.85,265.12c0.57,0.74,1.63,1.75,4.3,1.97c9.99,0.82,25.1,2.05,37.85,13.67l0.15,0.13
		c4.36,3.98,7.9,9.02,10.52,14.98c0.73,1.64,1.9,2.59,3.23,2.59c0.36,0,0.73-0.07,1.1-0.22v-0.36c-0.36,0.17-0.73,0.28-1.1,0.28
		c-1.2,0-2.28-0.88-2.96-2.41c-2.64-6-6.21-11.07-10.6-15.08l-0.15-0.13c-12.83-11.69-28-12.93-38.03-13.75
		c-2.55-0.21-3.56-1.16-4.09-1.85c-1.27-1.67-1.43-4.23-1.29-5.02c1.39-6.12,3.12-13.74,2.47-22.07
		c-1.09-14.11-6.74-26.24-12.19-37.97c-4.38-9.41-9.34-20.08-7.62-24.94c3.07-8.65,15.61-21.06,20.85-25.99
		c3.33-3.13,7.3-4.72,11.78-4.72c2.56,0,4.77,0.54,6.18,0.99c9.2,2.96,22.22,9.76,36.74,19.09v-0.36
		c-14.47-9.29-27.46-16.06-36.65-19.02c-1.42-0.46-3.67-1.01-6.27-1.01c-4.56,0-8.59,1.62-11.98,4.81
		c-5.26,4.95-17.84,17.4-20.93,26.11c-1.76,4.98,3.23,15.7,7.63,25.17c5.44,11.7,11.07,23.8,12.17,37.86
		c0.65,8.29-1.08,15.88-2.46,22C391.35,260.69,391.52,263.38,392.85,265.12z"/>
	<path class="st1" d="M449.11,415.29c-1.61,2.64-3.44,5.63-3,8.88c0.43,3.2,1.89,4.57,3.89,5.57v-0.34
		c-1.88-0.97-3.18-2.28-3.59-5.28c-0.42-3.15,1.37-6.09,2.96-8.69l0.3-0.49c0.12-0.19,0.22-0.41,0.33-0.61v-0.62
		c-0.19,0.36-0.38,0.74-0.59,1.08L449.11,415.29z"/>
	<path class="st1" d="M318.79,15.51c8.63,5.42,18.69,8.05,30.75,8.05c11.1,0,22.72-2.18,33.96-4.3c10.94-2.06,22.24-4.18,32.75-4.18
		c10.66,0,19.49,2.21,27.01,6.76c1.31,0.79,2.69,1.63,4.12,2.51c0.85,0.52,1.72,1.05,2.61,1.59v-0.82
		c-0.76-0.46-1.51-0.92-2.25-1.37c-1.44-0.87-2.81-1.71-4.12-2.51c-7.62-4.62-16.58-6.86-27.37-6.86c-10.58,0-21.92,2.13-32.88,4.19
		c-11.21,2.11-22.79,4.28-33.83,4.28c-11.93,0-21.87-2.6-30.38-7.95c-5.72-3.59-8.48-7.37-8.21-11.22c0.09-1.23,0.49-2.47,1.19-3.7
		h-0.78c-0.64,1.21-1.02,2.43-1.1,3.65C309.97,7.78,312.84,11.77,318.79,15.51z"/>
	<path class="st1" d="M411.67,256.06c2.28,1.25,5.4,1.78,8.42,2.29c2.24,0.38,4.55,0.77,6.43,1.45c1.19,0.43,2.5,1.08,3.89,1.76
		c2.87,1.41,6.12,3.02,9.08,3.02c0.57,0,1.12-0.06,1.64-0.18c0.14-0.03,0.27-0.07,0.41-0.11c4.24-1.26,6.5-6.58,8.45-11.46v-0.81
		c-0.01,0.03-0.02,0.06-0.04,0.09c-1.98,4.98-4.22,10.62-8.5,11.9c-0.13,0.04-0.26,0.07-0.39,0.1c-0.49,0.11-1.02,0.17-1.57,0.17
		c-2.89,0-6.11-1.59-8.95-2.99c-1.4-0.69-2.72-1.34-3.92-1.77c-1.91-0.69-4.24-1.08-6.49-1.47c-3-0.51-6.1-1.04-8.33-2.26
		c-4.94-2.71-4.42-7.67-3.88-12.92c0.21-2.05,0.43-4.18,0.28-6.12c-1.29-16.64-7.47-29.93-13.45-42.77
		c-2.71-5.83-2.91-12.23-0.56-18c2.55-6.25,7.89-11.3,14.65-13.85c2.11-0.8,4.3-1.2,6.53-1.2c9.65,0,18.71,7.4,26.7,13.93
		c2.26,1.85,4.4,3.59,6.45,5.09c0.53,0.39,1.01,0.74,1.46,1.07v-0.37c-0.4-0.29-0.83-0.6-1.29-0.94c-2.04-1.49-4.18-3.23-6.44-5.08
		c-8.03-6.56-17.14-13.99-26.89-13.99c-2.26,0-4.49,0.41-6.63,1.22c-6.84,2.58-12.24,7.69-14.82,14.02
		c-2.39,5.85-2.18,12.33,0.57,18.24c5.97,12.83,12.14,26.09,13.42,42.67c0.15,1.91-0.07,4.03-0.28,6.07
		C407.11,247.96,406.56,253.25,411.67,256.06z"/>
	<path class="st1" d="M414.05,50.03c-8.41,0-17.35,1.52-26.84,3.14c-10.67,1.82-21.71,3.7-33.46,3.7c-0.85,0-1.69-0.01-2.49-0.03
		c-4.08-0.1-7.54-0.77-10.59-1.36c-2.64-0.51-4.92-0.96-7.11-0.96c-5.2,0-9.02,2.74-13.19,9.44c-2.01,3.23-3.48,7.1-4.9,10.83
		c-2.51,6.61-5.11,13.45-10.84,17.5c-1.97,1.39-5.75,2.47-9.75,3.62c-6.99,2-14.91,4.26-15.99,8.98
		c-1.34,5.92,10.81,14.01,17.34,18.36c1.21,0.81,2.26,1.51,2.95,2.01c7.66,5.62,13.99,9.36,20.01,9.36c0.82,0,1.64-0.07,2.44-0.22
		c4.8-0.86,9.16-4.26,13.72-10.69c13.4-18.88,32.67-32.69,54.26-38.89c6.63-1.9,13.15-2.86,19.39-2.86c17.25,0,30.02,6.97,41,14.73
		v-0.37c-10.98-7.74-23.75-14.66-41-14.66c-6.26,0-12.81,0.97-19.47,2.88c-21.66,6.21-40.98,20.06-54.42,39
		c-4.51,6.36-8.81,9.72-13.53,10.56c-0.78,0.14-1.58,0.21-2.39,0.21c-5.94,0-12.22-3.72-19.83-9.3c-0.69-0.51-1.75-1.21-2.96-2.02
		c-6.47-4.31-18.51-12.33-17.22-18.05c1.04-4.55,8.87-6.78,15.78-8.75c4.03-1.15,7.83-2.23,9.84-3.66
		c5.81-4.1,8.42-10.98,10.95-17.63c1.41-3.72,2.88-7.57,4.87-10.78c4.11-6.61,7.85-9.3,12.93-9.3c2.16,0,4.42,0.44,7.05,0.95
		c3.06,0.6,6.54,1.27,10.64,1.37c0.81,0.02,1.65,0.03,2.5,0.03c11.78,0,22.83-1.88,33.53-3.71c9.46-1.61,18.39-3.14,26.77-3.14
		c5.18,0,9.75,0.59,13.99,1.8c7.27,2.07,14.54,5.24,21.96,8.95v-0.34c-7.39-3.69-14.63-6.84-21.88-8.91
		C423.86,50.63,419.25,50.03,414.05,50.03z"/>
	<path class="st1" d="M405.2,261.45c2.05,0.51,4.04,0.98,5.98,1.42c10.46,2.42,19.48,4.52,28.51,12.69l0.18,0.16
		c2.08,1.88,3.71,2.79,5.01,2.79c0.2,0,0.4-0.02,0.59-0.07c1.96-0.45,2.94-3.19,4.01-6.72c0.17-0.55,0.35-1.09,0.52-1.64v-0.98
		c-0.28,0.84-0.55,1.69-0.81,2.53c-1.05,3.44-1.99,6.1-3.79,6.52c-1.3,0.3-3.01-0.56-5.33-2.66l-0.18-0.16
		c-9.09-8.23-18.15-10.33-28.65-12.76c-1.93-0.45-3.93-0.91-5.97-1.42c-7.33-1.84-6.09-8.74-4.89-15.4
		c0.52-2.91,1.07-5.93,0.87-8.45c-1.19-15.37-7.1-28.08-12.82-40.38c-0.68-1.47-1.42-2.9-2.12-4.29
		c-3.67-7.21-6.85-13.43-2.31-21.09c3.41-5.76,8.53-10.48,13.47-15.04c0.89-0.82,1.78-1.64,2.65-2.46c1.91-1.79,4.51-2.7,7.72-2.7
		c12.32,0,31.27,13.11,42.17,21.01v-0.37c-10.96-7.93-29.83-20.94-42.17-20.94c-3.29,0-5.96,0.94-7.93,2.78
		c-0.87,0.82-1.76,1.64-2.65,2.46c-4.96,4.58-10.09,9.31-13.53,15.11c-4.62,7.8-1.26,14.4,2.3,21.38c0.71,1.39,1.44,2.82,2.12,4.29
		c5.7,12.27,11.61,24.95,12.79,40.27c0.19,2.48-0.35,5.48-0.87,8.37C398.86,252.5,397.59,259.54,405.2,261.45z"/>
	<path class="st1" d="M194.75,405.46c-2.53,3.82-5.68,8.56-4.59,11.84c0.44,1.34,1.56,2.34,3.32,2.97c0.33,0.12,0.7,0.18,1.09,0.18
		c3.86,0,9.98-5.97,15.38-11.23c3.43-3.35,6.68-6.51,8.63-7.4c9.32-4.23,22.18-6.24,33.52-8.02c4.48-0.7,8.71-1.36,12.61-2.13
		c8.9-1.74,17.49-2.63,25.54-2.63c26.34,0,48.45,9.48,65.73,28.17c1.94,2.1,4.75,3.16,8.38,3.16c11.28,0,30.63-10.98,44.25-31.33
		c8.15-12.17,19.99-37.06,7.68-66.95c-4.93-11.98-12.26-17.56-23.07-17.56c-8.22,0-17.6,3.02-28.46,6.52
		c-13.36,4.31-28.51,9.19-44.81,9.19c-12.69,0-24.34-2.93-35.62-8.94c-34.8-18.56-35.81-52.41-32.81-79.83
		c1.17-10.66-0.73-19.1-5.48-24.41c-3.36-3.75-7.93-5.73-13.23-5.73c-10.04,0-22.57,7.79-27.09,22.69
		c-4.25,14.02,5.83,26.77,17.5,41.53c13.17,16.64,28.09,35.5,25.19,60.67c-1.44,12.48-5.99,24.45-12.19,32.03
		c-4.7,5.75-8.85,6.26-13.25,6.8c-3.36,0.41-6.83,0.84-10.9,3.42c-3.11,1.97-4.08,5.33-5.11,8.88c-0.71,2.45-1.45,4.98-2.94,7.06
		c-0.82,1.14-2.25,1.39-3.75,1.65c-1.99,0.35-4.25,0.74-5.44,3.31c-0.83,1.79,0.27,3.9,1.33,5.94c0.89,1.7,1.8,3.46,1.53,4.92
		C197.44,401.41,196.19,403.29,194.75,405.46z M196.64,395.05c-1.04-2-2.03-3.9-1.32-5.43c1.07-2.3,3.08-2.65,5.02-2.99
		c1.56-0.27,3.17-0.55,4.12-1.88c1.55-2.16,2.3-4.74,3.03-7.23c1-3.45,1.95-6.7,4.87-8.55c3.96-2.51,7.37-2.93,10.66-3.34
		c4.52-0.56,8.78-1.08,13.63-7.01c6.26-7.66,10.87-19.75,12.32-32.33c2.92-25.41-12.08-44.37-25.31-61.1
		c-11.57-14.63-21.57-27.27-17.4-41c4.44-14.63,16.71-22.28,26.54-22.28c5.13,0,9.56,1.91,12.8,5.53
		c4.64,5.18,6.49,13.46,5.34,23.96c-3.02,27.6-1.99,61.68,33.11,80.4c11.37,6.06,23.11,9.01,35.9,9.01c16.39,0,31.58-4.9,44.98-9.22
		c10.81-3.49,20.15-6.5,28.28-6.5c10.69,0,17.64,5.31,22.54,17.2c12.21,29.65,0.46,54.33-7.62,66.41
		c-13.03,19.45-32.49,31.08-43.78,31.08c-3.45,0-6.13-1-7.95-2.97c-17.39-18.81-39.65-28.35-66.15-28.35
		c-8.08,0-16.71,0.89-25.65,2.64c-3.89,0.76-8.12,1.42-12.59,2.12c-11.38,1.78-24.27,3.8-33.67,8.06c-2.04,0.93-5.17,3.98-8.79,7.51
		c-5.32,5.19-11.35,11.07-14.98,11.07c-0.32,0-0.62-0.05-0.89-0.14c-1.6-0.58-2.57-1.43-2.96-2.61c-1-3.01,2.06-7.63,4.52-11.34
		c1.48-2.23,2.75-4.15,2.99-5.43C198.53,398.69,197.57,396.84,196.64,395.05z"/>
	<path class="st1" d="M132.67,407.11c4.51-4.08,11.65-7.65,19.92-11.79c5.77-2.89,13.53-9.99,13.06-15.8
		c-0.25-3.17-2.81-5.55-7.59-7.05c-1.88-0.59-3.94-0.88-6.29-0.88c-6.12,0-13.02,2.03-19.1,3.83c-2.78,0.82-5.4,1.59-7.8,2.14
		c-20.12,4.57-32.27,7.33-43.16,7.33c-9.64,0-18.09-2.16-29.17-7.45c-10.66-5.09-18.39-9.88-24.6-13.72
		c-9.14-5.66-13.4-8.16-18.8-8.16c-2.52,0-5.53,0.56-9.14,1.71v0.52c3.62-1.16,6.64-1.74,9.14-1.74c5.27,0,9.49,2.48,18.55,8.09
		c6.22,3.85,13.95,8.64,24.64,13.75c11.15,5.33,19.67,7.5,29.39,7.5c10.94,0,23.11-2.76,43.27-7.34c2.41-0.55,5.04-1.32,7.83-2.14
		c6.05-1.78,12.91-3.8,18.96-3.8c2.3,0,4.31,0.28,6.14,0.86c4.57,1.44,7,3.67,7.24,6.62c0.45,5.59-7.14,12.48-12.79,15.31
		c-8.3,4.16-15.47,7.75-20.03,11.87c-13.76,12.44-11.54,28.68-7.37,43.26h0.52C121.33,435.52,119.08,419.39,132.67,407.11z"/>
	<path class="st1" d="M436.44,337.21c1.29,0.82,3.37,1.27,5.88,1.27c2.23,0,4.87-0.37,7.68-1.23v-0.73
		c-2.81,0.88-5.45,1.26-7.68,1.26c-2.34,0-4.34-0.42-5.5-1.16c-5.88-3.75-8.47-10.38-11.22-17.39c-2.37-6.05-4.83-12.31-9.59-16.72
		L416,302.3l-0.21,0.01c-5.48-4.83-12.85-7.18-22.55-7.18c-9.46,0-19.41,2.27-27.4,4.09c-5.46,1.25-10.18,2.32-13.22,2.32
		c-1.78,0-2.87-0.37-3.32-1.12c-0.6-1-0.15-2.89,1.33-5.59c6.91-12.62,20.87-42.7,19.9-55.15c-0.76-9.82-5.48-19.97-10.05-29.78
		c-6.61-14.21-13.44-28.89-8.47-42.93c5.68-16.01,30.69-44.63,48.48-47.05c1.04-0.14,2.16-0.21,3.33-0.21
		c11.58,0,28.51,6.9,46.16,16.89v-0.75c-17.66-9.97-34.58-16.84-46.16-16.84c-1.2,0-2.35,0.07-3.42,0.22
		c-18.02,2.46-43.32,31.35-49.05,47.51c-5.07,14.3,1.83,29.12,8.49,43.46c4.54,9.75,9.23,19.84,9.98,29.54
		c0.86,11.1-11.31,39.23-19.81,54.76c-1.65,3.02-2.08,5.02-1.32,6.29c0.58,0.99,1.87,1.46,3.92,1.46c3.12,0,7.87-1.08,13.37-2.34
		c7.96-1.82,17.87-4.08,27.25-4.08c9.58,0,16.84,2.32,22.19,7.09l0,0c4.71,4.31,7.15,10.54,9.52,16.56
		C427.74,326.61,430.38,333.34,436.44,337.21z"/>
	<path class="st1" d="M430.61,382.87c-2.64,6.02-5.14,11.71-8.3,16.64c-18.43,28.67-38.98,33.5-60.74,38.61
		c-1.66,0.39-3.4,0.76-5.08,1.12c-7.25,1.54-14.74,3.14-20.85,7.1c-1.91,1.24-3.37,2.46-4.39,3.67h0.65
		c0.97-1.06,2.3-2.14,4.01-3.25c6.03-3.91,13.48-5.5,20.68-7.03c1.69-0.36,3.43-0.73,5.09-1.12c21.85-5.14,42.5-9.99,61.04-38.83
		c3.19-4.96,5.69-10.66,8.35-16.72c4.21-9.6,8.99-20.47,15.58-24.11c1.17-0.45,2.28-0.83,3.35-1.17v-0.52
		c-1.13,0.36-2.31,0.77-3.55,1.24C439.67,362.22,434.86,373.18,430.61,382.87z"/>
	<path class="st1" d="M326.65,439.15c11.79-5.26,22.45-7.76,32.77-10.19c20.72-4.87,38.61-9.08,54.98-34.54
		c2.76-4.29,5.11-9.65,7.6-15.33c5.2-11.86,10.58-24.12,20.57-29.18c2.69-1.04,5.14-1.85,7.43-2.45v-0.72
		c-2.38,0.62-4.94,1.46-7.75,2.55c-10.2,5.17-15.63,17.55-20.89,29.52c-2.48,5.65-4.82,10.99-7.55,15.23
		c-16.23,25.23-33.99,29.41-54.56,34.24c-10.34,2.43-21.04,4.95-32.89,10.23c-7.71,3.44-12.86,7.42-15,11.49h0.78
		C314.29,446.19,319.27,442.44,326.65,439.15z"/>
	<path class="st1" d="M328.96,415.23c-1.85-5.86-9.97-10.24-24.11-13.01c-9.32-1.82-18.84-2.75-28.3-2.75
		c-13.91,0-27.99,1.99-41.86,5.91c-1.88,0.53-3.76,1.11-5.6,1.72c-23.93,7.94-37.74,21.18-43.94,42.9h0.73
		c6.17-21.36,19.83-34.4,43.43-42.23c1.83-0.61,3.71-1.18,5.57-1.71c13.8-3.9,27.82-5.88,41.66-5.88c9.42,0,18.89,0.92,28.17,2.74
		c13.88,2.72,21.81,6.93,23.58,12.53c1.36,4.29-0.89,9.52-6.68,15.56c-5.99,6.24-12.04,12.55-17.48,19h0.92
		c5.33-6.28,11.22-12.43,17.06-18.51C328.09,425.25,330.4,419.78,328.96,415.23z"/>
	<path class="st1" d="M273.48,359.6c0.41,0.23,0.85,0.34,1.31,0.34c1.78,0,3.52-1.74,5.07-3.27c0.89-0.89,1.74-1.73,2.43-2.06
		c0.9-0.43,1.74-0.64,2.57-0.64c1.59,0,2.94,0.76,4.5,1.64c0.56,0.31,1.14,0.64,1.76,0.95c1.49,0.74,2.95,1.09,4.46,1.09
		c1.52,0,2.92-0.35,4.41-0.71c1.55-0.38,3.15-0.77,5.02-0.81l0.24,0c3.8,0,7.28,1.97,10.65,3.87c3.35,1.89,6.81,3.85,10.58,3.85
		c1.81,0,3.55-0.44,5.31-1.33c1.41-0.72,2.49-1.6,3.44-2.39c1.55-1.28,2.89-2.38,5.15-2.38c0.66,0,1.37,0.09,2.16,0.28
		c6.42,1.52,9.25,7.42,11.98,13.13c1.28,2.68,2.6,5.44,4.27,7.65c3.35,4.43,7.67,6.87,12.17,6.87l0.23,0c4.51-0.08,8.84-2.57,12.2-7
		c4.55-6.01,12.82-25.6,9.39-35.35c-1.01-2.88-2.96-4.7-5.78-5.41c-1-0.25-1.92-0.38-2.83-0.38c-2.92,0-5.11,1.31-7.64,2.82
		c-0.57,0.34-1.16,0.69-1.78,1.04c-5.13,2.9-10.21,3.5-15.6,4.14c-2.11,0.25-4.3,0.51-6.51,0.91c-2.46,0.45-4.68,1.31-6.82,2.14
		c-2.82,1.09-5.48,2.12-8.41,2.12c-1.98,0-3.91-0.48-5.91-1.46c-4.12-2.03-8.61-3.9-13.57-3.9c-1.64,0-3.26,0.19-4.93,0.59
		c-0.76,0.18-1.51,0.37-2.24,0.56c-2.87,0.73-5.58,1.42-8.33,1.42c-2.23,0-4.33-0.46-6.41-1.42l-0.88-0.41
		c-3.78-1.75-7.69-3.55-11.68-3.55c-2.21,0-4.24,0.54-6.23,1.64c-2.5,1.39-5.85,7.23-5.85,11.3
		C271.37,357.42,272.1,358.84,273.48,359.6z M277.46,344.63c1.91-1.06,3.87-1.58,5.99-1.58c3.89,0,7.74,1.78,11.47,3.51l0.88,0.41
		c2.14,0.98,4.31,1.46,6.62,1.46c2.81,0,5.55-0.7,8.45-1.44c0.73-0.19,1.47-0.38,2.23-0.56c1.63-0.39,3.2-0.58,4.81-0.58
		c4.86,0,9.29,1.85,13.35,3.85c2.07,1.02,4.07,1.51,6.13,1.51c3.02,0,5.73-1.05,8.59-2.16c2.12-0.82,4.31-1.67,6.73-2.12
		c2.2-0.4,4.37-0.66,6.48-0.91c5.43-0.64,10.57-1.25,15.78-4.2c0.62-0.35,1.22-0.71,1.79-1.05c2.47-1.47,4.6-2.75,7.38-2.75
		c0.86,0,1.75,0.12,2.7,0.36c2.65,0.67,4.48,2.38,5.43,5.09c3.37,9.59-4.82,28.94-9.32,34.88c-3.26,4.3-7.45,6.72-11.81,6.8l-0.22,0
		c-4.34,0-8.52-2.37-11.77-6.67c-1.64-2.17-2.89-4.79-4.22-7.56c-2.78-5.82-5.66-11.83-12.32-13.4c-0.83-0.2-1.57-0.29-2.27-0.29
		c-2.44,0-3.84,1.16-5.47,2.49c-0.98,0.8-1.98,1.63-3.35,2.33c-1.69,0.86-3.35,1.28-5.08,1.28c-3.64,0-6.89-1.84-10.33-3.79
		c-3.42-1.94-6.96-3.94-10.89-3.94l-0.25,0c-1.93,0.04-3.55,0.44-5.13,0.83c-1.46,0.36-2.84,0.7-4.29,0.7
		c-1.45,0-2.8-0.33-4.24-1.04c-0.61-0.3-1.18-0.62-1.73-0.93c-1.56-0.88-3.03-1.7-4.74-1.7c-0.91,0-1.82,0.23-2.79,0.69
		c-0.77,0.37-1.64,1.23-2.56,2.15c-1.47,1.46-3.14,3.12-4.71,3.12c-0.37,0-0.72-0.09-1.06-0.28c-1.23-0.68-1.86-1.91-1.86-3.67
		C271.86,351.36,275.35,345.8,277.46,344.63z"/>
	<path class="st1" d="M208.98,394.95c0.64,0.17,1.79,0.25,3.25,0.25c3.04,0,14.33-0.45,31.94-6.27c14.72-4.86,31.94-7.54,48.47-7.54
		c27.22,0,45.3,4.08,68.59,26.37c1.65,1.58,3.87,2.38,6.58,2.38c10.12,0,25.43-11.02,34.85-25.09c7.36-10.99,18.06-33.43,7.01-60.26
		c-4.76-11.55-10.73-13.14-16.47-13.14c-7.1,0-15.98,2.86-26.27,6.18c-13.86,4.47-29.58,9.53-47,9.53c-13.89,0-26.64-3.2-38.98-9.78
		c-39.01-20.8-39.54-59.56-36.54-86.9c0.93-8.47-0.39-15.17-3.7-18.86c-1.99-2.22-4.66-3.35-7.92-3.35
		c-7.41,0-16.75,6.05-20.26,17.62c-3.17,10.45,5.84,21.84,16.27,35.03c13.33,16.85,29.92,37.82,26.68,65.91
		c-0.93,8.05-3.07,15.7-6.38,22.74c-5.27,11.21-12.23,20.72-20.7,28.27c-5.59,4.98-11.2,8.47-15.29,11.01
		c-3.73,2.32-5.98,3.71-5.82,4.78C207.36,394.32,207.9,394.67,208.98,394.95z M213.27,389.32c4.1-2.55,9.72-6.04,15.33-11.04
		c8.5-7.58,15.49-17.12,20.78-28.36c3.33-7.07,5.48-14.76,6.41-22.83c3.25-28.22-13.38-49.25-26.75-66.14
		c-10.38-13.12-19.34-24.45-16.22-34.75c3.47-11.43,12.67-17.41,19.97-17.41c3.17,0,5.76,1.09,7.7,3.25
		c3.26,3.63,4.54,10.25,3.63,18.63c-3,27.43-2.47,66.31,36.7,87.2c12.39,6.61,25.19,9.82,39.12,9.82c17.47,0,33.21-5.07,47.1-9.55
		c10.26-3.31,19.11-6.16,26.17-6.16c5.64,0,11.5,1.57,16.19,12.95c10.99,26.7,0.34,49.04-6.98,59.98
		c-9.21,13.76-24.74,24.95-34.6,24.95c-2.64,0-4.78-0.77-6.38-2.3c-11.29-10.8-21.79-17.67-33.06-21.62
		c-9.7-3.39-20.39-4.84-35.75-4.84c-16.57,0-33.82,2.68-48.57,7.55c-17.56,5.8-28.81,6.25-31.84,6.25c-1.43,0-2.56-0.09-3.17-0.25
		c-0.92-0.24-1.42-0.53-1.47-0.87C207.46,392.93,209.89,391.41,213.27,389.32z"/>
	<path class="st1" d="M232.79,215.38c-5.36,0-11.25,5.42-13.18,10.29c-1.28,3.23-0.3,8.74,2.61,14.76c2.74,5.67,6.4,10.03,9.1,10.84
		c0.41,0.12,0.83,0.19,1.23,0.19c0.45,0,0.9-0.08,1.33-0.23c3.48-1.21,3.4-3.35,3.23-8.03c-0.11-2.88-0.25-6.82,0.34-12.23
		c0.8-7.27-0.34-12.81-1.88-14.52C235.08,215.89,234.4,215.38,232.79,215.38z M236.95,230.91c-0.6,5.45-0.45,9.41-0.34,12.31
		c0.17,4.69,0.24,6.45-2.9,7.54c-0.73,0.25-1.49,0.27-2.26,0.04c-2.57-0.77-6.11-5.02-8.79-10.58c-2.85-5.89-3.82-11.26-2.59-14.36
		c1.87-4.72,7.55-9.97,12.72-9.98c1.41,0,1.99,0.43,2.41,0.89C236.66,218.41,237.73,223.79,236.95,230.91z"/>
	<path class="st1" d="M353.84,360.3c1.09,0.44,1.73,0.8,2.54,1.25c0.32,0.18,0.66,0.37,1.07,0.59c4.12,2.21,7.57,4.46,9.99,6.5
		c1.37,1.16,2.49,1.72,3.42,1.72c1.37,0,2.17-1.16,2.82-2.26c2.42-4.12,3.27-7.3,4.27-12.88c0.12-0.68,0.14-1.64-0.43-2.32
		c-0.72-0.86-2.15-1.01-4.25-0.43c-6.34,1.76-10.61,2.56-16.02,3.59c-0.95,0.18-1.92,0.36-2.95,0.56c-1.04,0.2-1.83,0.94-1.92,1.79
		C352.34,358.79,352.41,359.72,353.84,360.3z M354.4,357.19c1.02-0.2,2-0.38,2.94-0.56c5.42-1.03,9.71-1.84,16.07-3.6
		c0.79-0.22,1.47-0.33,2.04-0.33c0.75,0,1.3,0.19,1.61,0.57c0.43,0.51,0.4,1.29,0.3,1.85c-0.98,5.5-1.82,8.64-4.2,12.69
		c-0.7,1.18-1.36,1.97-2.32,1.97c-0.79,0-1.79-0.52-3.05-1.58c-2.45-2.07-5.94-4.34-10.09-6.57c-0.4-0.22-0.75-0.41-1.06-0.59
		c-0.83-0.46-1.48-0.83-2.61-1.28c-0.75-0.3-1.15-0.78-1.1-1.3C353.01,357.87,353.62,357.34,354.4,357.19z"/>
	<path class="st1" d="M262,370.83c0.92,0,2.05-0.08,3.46-0.24c0.61-0.07,15.12-1.69,30.69-1.69c6.07,0,11.48,0.25,16.08,0.75
		c22.99,2.47,42.89,13.44,52.41,23.21c1.75,1.8,3.84,2.71,6.22,2.71c5.33,0,11.89-4.64,18.01-12.72
		c10.72-14.16,13.96-41.27,8.65-51.94c-1.41-2.83-3.38-4.33-5.7-4.33c-0.19,0-0.39,0.01-0.59,0.03c-4.2,0.43-10.04,2.14-17.42,4.31
		c-13.83,4.06-32.77,9.61-53.31,9.94c-17.55,0.29-37.61-6.66-44.43-9.98c-2.23-1.09-3.67-1.57-4.67-1.57
		c-2.04,0-2.12,1.93-2.27,5.14c-0.12,2.55-0.27,6.04-1.52,10.02c-2.26,7.24-4.82,12.73-6.69,16.74c-2.07,4.45-3.33,7.13-2.44,8.53
		C258.97,370.49,260.06,370.83,262,370.83z M261.19,361.32c1.87-4.02,4.44-9.52,6.7-16.78c1.25-4.02,1.41-7.54,1.53-10.1
		c0.14-3.13,0.22-4.85,1.97-4.85c0.94,0,2.38,0.49,4.54,1.54c6.71,3.27,26.18,10.02,43.54,10.02c0.34,0,0.69,0,1.03-0.01
		c20.58-0.33,39.54-5.89,53.39-9.96c7.37-2.16,13.19-3.87,17.37-4.3c2.48-0.25,4.5,1.14,5.98,4.13c5.27,10.6,2.04,37.54-8.62,51.62
		c-6.06,8.01-12.54,12.6-17.77,12.6c-2.29,0-4.31-0.88-6-2.62c-9.56-9.81-29.52-20.81-52.59-23.29c-4.61-0.5-10.03-0.75-16.11-0.75
		c-15.58,0-30.11,1.63-30.72,1.69c-1.4,0.16-2.52,0.24-3.43,0.24c-1.81,0-2.85-0.31-3.27-0.97
		C257.94,368.31,259.16,365.68,261.19,361.32z"/>
	<path class="st1" d="M239.62,382.29c0.93,0,2.12-0.24,3.36-0.67c14-4.86,30.24-7.22,49.65-7.22c24.17,0,48.12,2.21,75.33,28.97
		c0.78,0.77,1.81,1.16,3.05,1.16h0c7.61,0,21.67-14.58,25.84-23.37c0.38-0.8,0.79-1.65,1.23-2.54c5.31-10.88,14.19-29.1,5.11-51.14
		c-3.63-8.81-7.01-8.81-10-8.81c-6,0-14.4,2.71-24.12,5.84c-14.35,4.63-30.62,9.87-49.14,9.87c-15.85,0-28.67-2.91-41.59-9.44
		c-2-1.01-3.92-2.12-5.62-3.09c-3.4-1.95-6.08-3.49-7.81-3.49c-1.35,0-2.01,0.94-2.04,2.88c0,0.31,0.04,0.8,0.11,1.49
		c1.85,18.98-5.5,36.7-21.84,52.67c-2.85,2.79-4.06,4.79-3.59,5.95C237.81,381.96,238.52,382.29,239.62,382.29z M241.35,375.61
		c10.51-10.27,17.4-21.41,20.47-33.12c2.47-9.41,1.76-16.69,1.46-19.79c-0.07-0.68-0.11-1.17-0.11-1.46
		c0.03-2.31,1.01-2.58,1.74-2.58c1.65,0,4.44,1.6,7.66,3.45c1.7,0.98,3.63,2.08,5.64,3.1c12.96,6.55,25.82,9.48,41.72,9.48
		c18.57,0,34.86-5.25,49.24-9.89c9.7-3.13,18.08-5.83,24.03-5.83c2.89,0,6.17,0,9.72,8.62c9.02,21.91,0.18,40.05-5.11,50.89
		c-0.44,0.9-0.85,1.74-1.23,2.55c-4.14,8.73-18.06,23.2-25.57,23.2c-1.16,0-2.12-0.36-2.84-1.07c-12.64-12.43-25.73-20.57-40-24.89
		c-12.72-3.85-24.53-4.17-35.54-4.17c-19.44,0-35.71,2.37-49.75,7.24c-1.21,0.42-2.37,0.65-3.26,0.65c-0.68,0-1.54-0.13-1.79-0.75
		C237.6,380.65,237.74,379.14,241.35,375.61z"/>
	<path class="st1" d="M185.88,0h-0.73c-1.54,5.39-2.62,11.29-3.25,17.78c-1.11,11.28-2.09,26.05,0.22,40.28
		c1.68,10.38,5.06,15,10.95,15c0,0,0,0,0,0c3.76,0,8.13-1.82,13.2-3.94c3.52-1.47,7.16-2.98,11.04-4.08
		c0.37-0.11,0.74-0.21,1.12-0.31c11.07-2.97,23.55-3.39,36.79-1.24c3.55,0.58,7.15,1.57,10.64,2.53c5.08,1.4,10.33,2.85,15.66,3.09
		c2.89,0.13,4.95-0.17,6.4-0.89c4.25-2.12,2.18-7.41,0-13.01c-1.29-3.31-2.63-6.74-2.85-9.81c-1.17-16.32,7.95-31.19,20-45.4h-0.92
		c-11.96,14.18-20.95,29.06-19.77,45.45c0.23,3.18,1.58,6.66,2.9,10.02c2.16,5.53,4.02,10.3,0.34,12.13
		c-1.33,0.66-3.34,0.94-6.06,0.82c-5.25-0.23-10.46-1.67-15.5-3.06c-3.5-0.97-7.12-1.97-10.71-2.55
		c-13.34-2.16-25.92-1.73-37.08,1.26c-0.38,0.1-0.75,0.2-1.13,0.31c-3.93,1.11-7.59,2.64-11.12,4.11
		c-4.99,2.08-9.31,3.88-12.93,3.88c-5.48,0-8.65-4.45-10.26-14.42c-2.3-14.16-1.32-28.87-0.22-40.1
		C183.23,11.33,184.32,5.4,185.88,0z"/>
	<path class="st1" d="M176.91,279.84c-0.67-0.61-1.27-0.9-1.83-0.9c-1.4,0-2.38,1.78-3.86,4.47c-1.54,2.79-3.64,6.61-7.28,10.48
		l-1.07,1.13c-4.17,4.42-6.08,6.44-5.61,7.53c0.21,0.49,0.86,0.71,2.09,0.71c1.05,0,2.59-0.15,5.16-0.51
		c1.06-0.15,2.14-0.22,3.21-0.22c8.67,0,15.9,4.86,21.18,8.41c3.09,2.08,5.53,3.72,7.28,3.72c0.73,0,1.33-0.29,1.78-0.87
		C203.5,306.69,184.13,286.39,176.91,279.84z M197.57,313.49c-0.35,0.46-0.81,0.68-1.39,0.68c-1.6,0-3.98-1.6-7-3.64
		c-5.33-3.59-12.63-8.5-21.46-8.5c-1.09,0-2.2,0.08-3.28,0.23c-2.54,0.36-4.07,0.51-5.09,0.51c-0.96,0-1.51-0.14-1.63-0.41
		c-0.34-0.78,1.99-3.25,5.52-6.99l1.07-1.13c3.68-3.91,5.81-7.77,7.35-10.58c1.4-2.54,2.32-4.21,3.43-4.21
		c0.43,0,0.92,0.25,1.49,0.77C185.54,288.35,202.48,307.18,197.57,313.49z"/>
	<path class="st1" d="M177.05,288.18c-3.5,0-8.01,5.52-8.03,8.14c-0.01,1.07,0.66,1.7,1.83,1.72c5.16,0.09,10.61,3.36,14.59,5.75
		c2.36,1.41,4.06,2.44,5.07,2.44h0c0.32,0,0.58-0.1,0.76-0.3c0.23-0.25,0.32-0.63,0.28-1.16c-0.37-4.81-9.5-14.44-13.2-16.29
		C177.95,288.28,177.52,288.18,177.05,288.18z M190.85,304.82c0.03,0.42-0.05,0.58-0.1,0.63c-0.02,0.02-0.07,0.08-0.25,0.08h0
		c-0.82,0-2.62-1.08-4.71-2.34c-4.05-2.43-9.59-5.75-14.93-5.84c-0.79-0.01-1.15-0.33-1.14-1.02c0.02-2.34,4.21-7.45,7.33-7.45
		c0.36,0,0.69,0.07,0.98,0.22C182.02,291.1,190.52,300.46,190.85,304.82z"/>
	<path class="st1" d="M164.68,197.48C164.68,197.48,164.68,197.48,164.68,197.48c0.86,0,1.55-1.22,2.22-3.95
		c2.51-10.21,10.8-23.72,23.68-30.9c13.03-7.27,21.71-9.16,26.38-10.17c2.32-0.5,3.48-0.76,3.76-1.37c0.11-0.23,0.07-0.51-0.1-0.83
		c-0.9-1.64-17.04-10.67-40.25-12.55l-0.98-0.08c-2.09-0.17-3.9-0.32-5.63-0.32c-6.06,0-10.94,1.69-22.34,11.32
		c-1.8,1.52-3.64,2.93-5.42,4.3c-5.51,4.23-10.27,7.87-9.96,12.02c0.24,3.18,3.39,6.34,9.91,9.93c7.22,3.98,11.62,11.88,14.53,17.1
		C162.31,195.29,163.53,197.48,164.68,197.48z M146.07,174.62c-6.34-3.49-9.53-6.66-9.76-9.69c-0.3-3.98,4.4-7.58,9.85-11.75
		c1.78-1.37,3.63-2.78,5.43-4.31c11.32-9.57,16.16-11.25,22.14-11.25c1.72,0,3.52,0.15,5.61,0.32l0.98,0.08
		c22.68,1.83,39.16,10.83,40.01,12.39c0.17,0.32,0.14,0.47,0.09,0.56c-0.22,0.47-1.47,0.75-3.55,1.2
		c-4.68,1.02-13.39,2.91-26.46,10.2c-12.95,7.23-21.3,20.83-23.82,31.1c-0.62,2.5-1.25,3.72-1.93,3.72h0
		c-0.98,0-2.29-2.36-3.96-5.34C157.8,186.58,153.37,178.64,146.07,174.62z"/>
	<path class="st1" d="M166.57,214.65c0.87,0,1.47-1.04,1.89-3.28c2.6-13.77,8.23-33.27,27.04-43.67c5.81-3.22,12.38-5.76,20.07-7.79
		c1.55-0.41,3.2-1.52,4.81-2.6c2.07-1.4,4.22-2.84,6.2-2.84c0.23,0,0.46,0.02,0.67,0.06c1.11,0.2,1.94,0.84,2.74,1.46
		c0.9,0.7,1.75,1.36,2.93,1.36c0.44,0,0.9-0.09,1.39-0.29c0.84-0.33,1.28-0.98,1.7-1.61c0.6-0.89,1.16-1.73,2.86-1.58
		c1.69,0.14,2.6,1.43,3.56,2.79c0.67,0.95,1.37,1.94,2.36,2.49c0.72,0.4,2.02,0.83,3.17,0.83c0.8,0,1.37-0.21,1.69-0.63
		c0.3-0.4,0.36-0.97,0.16-1.68c-0.66-2.36-5.71-4.56-9.06-6.02c-0.99-0.43-1.84-0.8-2.39-1.09c-4.98-2.64-9.95-4.87-14.15-6.71
		c-17.72-7.75-33.88-12.48-49.39-14.46c-1.75-0.22-3.26-0.33-4.63-0.33c-7.64,0-13.56,3.34-25.34,14.3c-2.89,2.69-5.87,5-8.74,7.23
		c-6.44,5-11.53,8.95-11.41,13.92c0.1,3.92,3.5,8.1,10.72,13.15c11.62,8.13,19.33,20.48,24.44,28.65
		C162.98,211.33,165.06,214.65,166.57,214.65z M135.57,177.39c-7.13-4.99-10.5-9.1-10.59-12.92c-0.12-4.82,4.92-8.73,11.3-13.68
		c2.88-2.24,5.86-4.55,8.76-7.25c11.72-10.9,17.59-14.22,25.14-14.22c1.36,0,2.86,0.11,4.59,0.33c15.48,1.97,31.61,6.7,49.3,14.44
		c4.2,1.84,9.16,4.07,14.13,6.7c0.56,0.3,1.42,0.67,2.41,1.1c3.29,1.43,8.27,3.6,8.89,5.82c0.17,0.62,0.14,1.1-0.11,1.42
		c-0.32,0.42-0.97,0.51-1.45,0.51c-1.04,0-2.31-0.4-3.02-0.8c-0.93-0.51-1.6-1.47-2.26-2.4c-0.96-1.36-1.95-2.76-3.78-2.92
		c-1.88-0.17-2.51,0.8-3.13,1.72c-0.42,0.62-0.81,1.2-1.56,1.5c-0.46,0.18-0.87,0.27-1.28,0.27c-1.07,0-1.89-0.63-2.75-1.29
		c-0.83-0.64-1.69-1.31-2.87-1.51c-0.23-0.04-0.48-0.06-0.72-0.06c-2.07,0-4.25,1.47-6.36,2.89c-1.65,1.11-3.22,2.17-4.71,2.56
		c-7.72,2.03-14.3,4.59-20.14,7.82c-18.92,10.46-24.58,30.05-27.19,43.88c-0.39,2.04-0.91,3.04-1.6,3.04c-1.35,0-3.5-3.45-6.48-8.22
		C154.97,197.94,147.23,185.56,135.57,177.39z"/>
	<path class="st1" d="M203.51,340.12c6.84-0.78,13.28-5.48,16.42-11.97c2.86-5.93,4.41-15.99-4.47-30.23
		c-3.81-6.12-7.97-12.29-11.99-18.26c-11.5-17.07-22.36-33.2-26.85-49.38c-5.07-18.3-1-33.4,12.82-47.51
		c11.97-12.22,27.78-19.23,43.39-19.23c11.73,0,22.2,4.13,29.47,11.62c7.99,8.23,11.99,20.28,11.55,34.83
		c-0.1,3.38-0.26,6.87-0.43,10.57c-0.6,13.14-1.29,28.03,0.83,40.42c2.44,14.25,8.23,23.05,17.69,26.91
		c5.07,2.07,9.87,3.11,14.28,3.11c8.01,0,14.83-3.5,19.72-10.11c8.31-11.25,10.3-30.51,4.96-47.93
		c-11.47-37.38-39.05-59.69-79.82-83.59c-30.97-18.15-57.13-23.75-80.78-27.1c-1.76-0.25-3.44-0.38-4.99-0.38
		c-9.88,0-14.58,5.03-20.53,11.4c-2.29,2.45-4.65,4.97-7.59,7.56c-3.38,2.97-6.32,4.78-8.92,6.38c-4.17,2.56-7.76,4.77-11.73,10.69
		c-7.86,11.75,2.66,18.96,13.79,26.59c5.88,4.03,11.97,8.2,15.23,13.14c20.48,31.03,12.22,64.13-2.35,84.76
		c-4.16,5.9-10.24,11.47-16.68,17.36c-7.87,7.21-16.01,14.66-20.67,22.99c-2,3.58-2.57,6.01-1.74,7.43
		c0.61,1.04,1.96,1.54,4.11,1.54c0,0,0,0,0,0c3.84,0,9.94-1.59,17.01-3.44c9.91-2.58,22.24-5.8,33.14-5.8
		c5.77,0,10.72,0.92,14.71,2.73c3.97,1.81,7.33,4.42,10.58,6.95c5.35,4.16,10.39,8.08,17.53,8.08
		C201.97,340.26,202.74,340.21,203.51,340.12z M173.23,324.95c-4.08-1.86-8.93-2.76-14.83-2.76c-10.93,0-23.29,3.22-33.21,5.81
		c-7.05,1.84-13.13,3.42-16.94,3.43c0,0,0,0,0,0c-2.04,0-3.3-0.46-3.86-1.4c-0.77-1.32-0.2-3.65,1.74-7.13
		c4.63-8.28,12.75-15.72,20.61-22.91c6.45-5.91,12.54-11.48,16.72-17.41c8.54-12.09,13.58-25.88,14.57-39.88
		c1.14-16-2.97-31.22-12.22-45.22c-3.29-4.98-9.4-9.17-15.31-13.22c-11.01-7.55-21.41-14.67-13.71-26.18
		c3.92-5.87,7.5-8.06,11.63-10.6c2.61-1.6,5.56-3.42,8.96-6.41c2.95-2.59,5.32-5.13,7.61-7.58c5.9-6.31,10.57-11.3,20.31-11.3
		c1.53,0,3.2,0.13,4.95,0.37c23.62,3.35,49.75,8.94,80.67,27.06c40.71,23.85,68.24,46.13,79.68,83.41
		c5.32,17.34,3.35,36.49-4.91,47.67c-4.83,6.53-11.56,9.99-19.48,9.99c-4.37,0-9.13-1.04-14.16-3.09
		c-9.36-3.82-15.09-12.54-17.51-26.68c-2.12-12.36-1.43-27.24-0.83-40.36c0.17-3.7,0.33-7.19,0.43-10.57
		c0.44-14.64-3.58-26.76-11.63-35.05c-7.33-7.55-17.87-11.71-29.68-11.71c-15.69,0-31.58,7.04-43.61,19.32
		c-7.34,7.5-11.87,15.23-13.86,23.65c-1.77,7.52-1.46,15.41,0.96,24.15c4.5,16.23,15.37,32.37,26.89,49.47
		c4.02,5.97,8.18,12.14,11.99,18.25c8.81,14.13,7.28,24.08,4.45,29.94c-3.09,6.4-9.44,11.04-16.18,11.8
		c-0.76,0.09-1.52,0.13-2.26,0.13c-7.03,0-12.04-3.9-17.34-8.02C180.61,329.4,177.23,326.77,173.23,324.95z"/>
	<path class="st1" d="M210.07,327.72c2.62-1.91,4.16-4.58,4.56-7.93c1.19-9.83-7.53-24.18-15.36-33.47
		c-9.77-11.6-19.47-23.98-24.22-35.96c-0.23-0.59-0.59-2.26-1.04-4.37c-1.53-7.12-4.08-19.03-7.78-19.03c-0.34,0-0.69,0.1-1.03,0.31
		c-1.54,0.91-1.99,2.71-1.39,5.48c0.49,2.27,1.62,4.89,2.62,7.2c1.06,2.44,1.97,4.55,1.95,5.75c-0.04,3.09-1.48,4.45-2.88,5.77
		c-1.09,1.03-2.21,2.09-2.62,3.94c-0.52,2.38,0.46,4.17,1.41,5.9c0.88,1.6,1.78,3.25,1.5,5.38c-0.53,3.91-12.91,18-23.82,30.44
		c-9.04,10.29-16.84,19.18-16.71,20.88c0.01,0.13,0.06,0.23,0.14,0.3c0.75,0.62,2.1,0.92,4.15,0.92h0c3.23,0,7.72-0.72,12.93-1.56
		c6.31-1.01,13.46-2.16,19.67-2.16c4.85,0,8.48,0.69,11.09,2.11c1.42,0.77,3.01,1.69,4.68,2.67c7.46,4.33,16.74,9.73,24.6,9.73
		C205.45,330.01,207.99,329.24,210.07,327.72z M173.4,317.35c-2.66-1.44-6.34-2.15-11.23-2.15c-6.23,0-13.39,1.15-19.72,2.16
		c-5.19,0.83-9.68,1.55-12.88,1.55h0c-1.97,0-3.27-0.28-3.96-0.85c-0.01-0.01-0.03-0.03-0.04-0.09
		c-0.12-1.58,8.02-10.84,16.63-20.66c10.95-12.47,23.35-26.6,23.9-30.59c0.3-2.23-0.63-3.92-1.53-5.56
		c-0.97-1.76-1.88-3.42-1.38-5.69c0.38-1.76,1.43-2.74,2.53-3.78c1.44-1.36,2.93-2.77,2.97-5.98c0.02-1.26-0.91-3.4-1.98-5.88
		c-0.99-2.3-2.12-4.9-2.61-7.14c-0.57-2.63-0.16-4.32,1.25-5.16c0.29-0.17,0.59-0.26,0.88-0.26c3.46,0,6.08,12.22,7.48,18.79
		c0.47,2.21,0.81,3.8,1.06,4.42c4.76,12.02,14.48,24.42,24.27,36.04c7.79,9.25,16.47,23.5,15.29,33.24
		c-0.4,3.27-1.89,5.87-4.44,7.73c-2.03,1.48-4.5,2.22-7.35,2.22c-7.77,0-17.02-5.37-24.45-9.69
		C176.42,319.04,174.83,318.12,173.4,317.35z"/>
	<path class="st1" d="M206.65,315.17c0.89-8.24-7.93-21.16-12.34-26.13c-7.61-8.57-12.92-15.88-16.43-20.71
		c-3.48-4.79-5.4-7.44-6.64-7.44c-0.85,0-1.32,1.1-1.61,3.81c-2.18,20.36-15.35,31.39-23.22,37.97c-3.45,2.89-5.72,4.79-5.82,6.36
		c-0.03,0.45,0.13,0.87,0.48,1.23c0.72,0.76,1.85,1.12,3.58,1.12c1.94,0,4.39-0.45,7.23-0.97c3.68-0.68,7.86-1.44,12.13-1.44
		c5.82,0,10.51,1.45,14.35,4.43c5.41,4.2,13.41,8.69,19.68,8.69c0,0,0,0,0,0c2.26,0,4.19-0.57,5.75-1.71
		C205.44,319.19,206.4,317.43,206.65,315.17z M198.03,321.8C198.03,321.8,198.03,321.8,198.03,321.8c-6.19,0-14.13-4.45-19.49-8.62
		c-3.9-3.03-8.65-4.5-14.53-4.5c-4.3,0-8.49,0.77-12.19,1.45c-2.82,0.52-5.26,0.96-7.17,0.96c-1.64,0-2.71-0.33-3.36-1.03
		c-0.29-0.31-0.42-0.64-0.4-1.01c0.09-1.44,2.45-3.42,5.71-6.15c7.9-6.62,21.13-17.69,23.32-38.17c0.26-2.45,0.67-3.54,1.31-3.54
		c1.09,0,3.09,2.75,6.4,7.31c3.51,4.84,8.83,12.15,16.44,20.73c4.38,4.94,13.15,17.76,12.27,25.9c-0.24,2.17-1.16,3.86-2.74,5.01
		C202.1,321.25,200.23,321.8,198.03,321.8z"/>
	<path class="st1" d="M292.09,232.89c-1.03,15.64,3.46,26.41,8.01,31.26c2.08,2.22,4.36,3.45,6.43,3.45h0c2.91,0,5.1-2.29,6.16-6.45
		c6.83-26.77-16.43-54.99-19.28-57.35c-0.82-0.68-1.39-0.77-1.76-0.36c-0.67,0.73-0.46,3.12-0.08,7.45
		C292.01,216.02,292.69,223.77,292.09,232.89z M292.02,203.78c0.05-0.06,0.1-0.08,0.18-0.08c0.14,0,0.41,0.08,0.9,0.49
		c2.83,2.34,25.89,30.31,19.12,56.84c-1,3.91-3.01,6.07-5.68,6.07h0c-1.92,0-4.08-1.17-6.06-3.29c-4.48-4.78-8.9-15.41-7.88-30.89
		c0.6-9.16-0.07-16.93-0.52-22.07C291.74,207.08,291.5,204.35,292.02,203.78z"/>
	<path class="st1" d="M414.05,57.03c-7.82,0-16.48,1.48-25.66,3.04c-10.96,1.87-22.29,3.8-34.64,3.8c-0.91,0-1.81-0.01-2.66-0.03
		c-0.74-0.02-1.46-0.04-2.18-0.06c-1.87-0.05-3.63-0.1-5.33-0.1c-10.64,0-17.23,2.17-21.57,13.6c-2.74,7.23-5.86,15.42-13.32,20.71
		c-2.11,1.5-4.22,2.77-6.09,3.9c-4.32,2.61-7.73,4.67-7.86,7.52c-0.12,2.62,2.53,5.77,8.58,10.21c5.81,4.26,10.58,6.33,14.6,6.33
		c0.36,0,0.73-0.02,1.08-0.05c5.84-0.54,9.76-5.37,14.72-11.48c2.25-2.78,4.81-5.92,7.81-8.92c12.99-12.99,28.95-22.46,46.15-27.39
		c7.26-2.08,14.43-3.14,21.32-3.14c17.02,0,30.14,6.15,41,13.27v-0.36c-10.86-7.09-23.99-13.21-41-13.21
		c-6.92,0-14.12,1.06-21.4,3.15c-17.25,4.95-33.26,14.45-46.28,27.47c-3.01,3.01-5.57,6.16-7.83,8.94
		c-4.92,6.05-8.8,10.84-14.51,11.37c-0.35,0.03-0.7,0.05-1.05,0.05c-3.95,0-8.67-2.05-14.43-6.27c-5.96-4.38-8.57-7.45-8.46-9.95
		c0.12-2.69,3.47-4.71,7.72-7.28c1.87-1.13,3.99-2.41,6.11-3.91c7.54-5.34,10.67-13.58,13.43-20.85
		c4.28-11.27,10.78-13.41,21.29-13.41c1.7,0,3.46,0.05,5.32,0.1c0.71,0.02,1.44,0.04,2.18,0.06c0.86,0.02,1.75,0.03,2.67,0.03
		c12.37,0,23.72-1.94,34.69-3.81c9.16-1.56,17.82-3.04,25.61-3.04c4.52,0,8.46,0.5,12.07,1.53c7.75,2.21,15.69,5.84,23.88,10.08
		v-0.34c-8.16-4.21-16.07-7.82-23.8-10.03C422.57,57.54,418.59,57.03,414.05,57.03z"/>
	<path class="st1" d="M284.35,231.99c-1.16,15.17,1.84,27.45,8.44,34.58c3.45,3.73,7.69,5.78,11.94,5.78c0,0,0,0,0,0
		c6.06,0,10.9-4.21,12.35-10.72c4.21-19.04-2.31-36.16-8.51-47.18c-7.3-12.94-16.63-22.1-21.13-25.1c-1.64-1.09-2.8-1.77-3.5-1.77
		c-0.26,0-0.46,0.09-0.61,0.26c-0.58,0.65-0.34,2.51,0.13,6.19C284.28,200.55,285.83,212.7,284.35,231.99z M283.54,188.03
		c0.09-0.11,0.22-0.16,0.39-0.16c0.62,0,1.79,0.69,3.34,1.72c10.15,6.77,37.11,37.61,29.51,71.96c-1.41,6.37-6.14,10.49-12.05,10.49
		c-4.17,0-8.33-2.02-11.72-5.68c-6.54-7.06-9.51-19.26-8.36-34.35c1.48-19.32-0.07-31.49-0.91-38.03
		C283.32,190.62,283.06,188.58,283.54,188.03z"/>
	<path class="st1" d="M278.6,232.97c-1.15,18.88,2.46,33.8,10.18,42c3.99,4.24,8.83,6.48,14.01,6.48h0c9.9,0,18.28-8.01,20.87-19.93
		c3.81-17.58,0.53-34.89-9.74-51.45c-10.41-16.77-24.81-27.61-32.47-32.59c-3.9-2.53-5.57-3.59-6.21-2.82
		c-0.53,0.64-0.18,2.46,0.5,6.08C277.22,188.61,280.31,204.94,278.6,232.97z M275.46,174.88c0.08-0.1,0.19-0.14,0.36-0.14
		c0.81,0,2.56,1.14,5.46,3.02c25.52,16.56,49.97,47.26,42.07,83.71c-2.55,11.78-10.82,19.69-20.57,19.69
		c-5.09,0-9.86-2.21-13.79-6.39c-7.66-8.14-11.24-22.98-10.1-41.78c1.71-28.07-1.38-44.42-2.87-52.28
		C275.4,177.4,275.03,175.4,275.46,174.88z"/>
	<path class="st1" d="M163.52,170.23c2.83,0,4.86-2.73,7.03-6.83c3.79-7.16,11.71-10.63,15.96-12.49c2.15-0.94,2.96-1.29,2.86-1.89
		c-0.09-0.5-0.64-0.71-3.58-0.91c-8.86-0.6-28.74,7.85-31.03,14.21c-0.53,1.47-0.14,2.81,1.14,3.86
		C159.3,169.02,161.58,170.23,163.52,170.23C163.52,170.23,163.52,170.23,163.52,170.23z M155.41,162.57
		c2.09-5.81,20.57-13.78,29.42-13.78c0.31,0,0.61,0.01,0.9,0.03c1.73,0.12,2.5,0.24,2.81,0.34c-0.38,0.26-1.36,0.69-2.32,1.11
		c-4.33,1.89-12.39,5.42-16.3,12.8c-2.46,4.64-4.26,6.45-6.41,6.45c-1.75,0-3.9-1.16-7.18-3.87
		C155.28,164.78,154.98,163.78,155.41,162.57z"/>
	<path class="st1" d="M172.22,169.87c6.81-12.41,19.26-16.74,29.34-19.13c0.97-0.23,1.06-0.73,1.03-1
		c-0.24-2.02-9.68-5.89-23.77-5.89c-1.59,0-3.22,0.05-4.83,0.15c-6.44,0.39-21.62,9.37-27.07,16.02c-1.42,1.73-2.06,3.16-1.91,4.27
		c0.38,2.76,2.83,3.98,5.68,5.4c3.01,1.5,6.42,3.2,8.09,7.16c0.97,2.31,2.24,3.48,3.78,3.48
		C165.16,180.32,168.41,176.81,172.22,169.87z M159.23,176.65c-1.73-4.13-5.23-5.88-8.32-7.42c-2.72-1.35-5.07-2.52-5.41-5.02
		c-0.13-0.95,0.49-2.29,1.8-3.88c5.39-6.57,20.38-15.45,26.72-15.83c1.61-0.1,3.22-0.15,4.8-0.15c13.85,0,23.08,3.83,23.27,5.45
		c0.03,0.26-0.39,0.4-0.65,0.46c-10.18,2.41-22.75,6.79-29.66,19.37C166.04,180.08,161.73,182.61,159.23,176.65z"/>
	<path class="st1" d="M303.79,255.62C303.8,255.62,303.8,255.62,303.79,255.62c0.53,0,0.99-0.37,1.38-1.09
		c1.95-3.65,1.91-16.29-3.26-23.98c-0.67-1-1.64-0.87-2.38,0.39c-1.94,3.34-2.76,13.96,2.53,23.23
		C302.62,255.14,303.2,255.62,303.79,255.62z M300.15,231.3c0.26-0.44,0.53-0.71,0.74-0.71c0.18,0,0.36,0.22,0.45,0.36
		c4.94,7.36,5.05,19.83,3.22,23.26c-0.25,0.46-0.52,0.72-0.76,0.72c-0.31,0-0.72-0.4-1.12-1.1
		C297.6,244.92,298.33,234.43,300.15,231.3z"/>
	<path class="st1" d="M368.84,286.31c0.71,1.03,2.46,1.47,5.83,1.47c2.11,0,4.62-0.17,7.53-0.36c3.6-0.24,7.69-0.51,11.91-0.51
		c13.37,0,22.39,2.84,28.4,8.96c5.59,4.3,8.67,11.31,11.39,17.5c3.31,7.52,6.16,14.01,12.47,14.01c0.67,0,1.38-0.08,2.1-0.23
		c0.48-0.1,0.99-0.23,1.52-0.39v-0.52c-0.56,0.18-1.11,0.32-1.62,0.43c-0.69,0.14-1.37,0.22-2,0.22c-5.98,0-8.77-6.35-12.01-13.71
		c-2.75-6.24-5.86-13.31-11.52-17.67c-6.09-6.2-15.22-9.09-28.73-9.09c-4.24,0-8.33,0.27-11.95,0.51c-2.9,0.19-5.41,0.36-7.5,0.36
		c-3.1,0-4.82-0.4-5.41-1.25c-0.32-0.47-0.33-1.1-0.02-1.94c6.36-17.01,11.69-38.54,11.17-45.17c-0.9-11.61-6-22.58-10.94-33.19
		c-6.04-12.97-11.74-25.22-8.12-35.44c5.04-14.2,28.04-38.85,40.49-40.55c0.6-0.08,1.27-0.12,1.99-0.12
		c9.7,0,26.79,6.95,46.16,18.43v-0.58c-19.35-11.44-36.43-18.35-46.16-18.35c-0.75,0-1.44,0.04-2.06,0.13
		c-12.59,1.72-35.82,26.57-40.9,40.88c-3.69,10.41,2.05,22.75,8.13,35.82c4.92,10.57,10,21.49,10.9,33.01
		c0.45,5.81-4.32,26.71-11.14,44.95C368.39,284.91,368.42,285.7,368.84,286.31z"/>
	<path class="st1" d="M416.26,444.59c-0.57,0-1.54,0.06-2.76,0.14c-2.06,0.13-4.88,0.31-7.68,0.31c-6.95,0-10.59-1.14-10.82-3.4
		c-0.35-3.39,7.71-8.43,13.04-11.76c2.12-1.33,3.95-2.47,4.8-3.21c6.64-5.82,12.77-13.07,18.22-21.55
		c3.61-5.62,6.27-11.67,9.08-18.08c2.12-4.82,5.48-9.83,9.87-13.29v-0.37c-4.52,3.5-7.98,8.61-10.14,13.54
		c-2.81,6.4-5.46,12.44-9.06,18.04c-5.44,8.46-11.55,15.68-18.16,21.48c-0.83,0.73-2.65,1.87-4.76,3.19
		c-5.72,3.57-13.54,8.47-13.18,12.04c0.25,2.47,3.89,3.67,11.12,3.67c2.81,0,5.64-0.18,7.7-0.32c1.22-0.08,2.18-0.14,2.74-0.14
		c10.52,0,19.88,1.69,28.34,5.11h0.81C436.73,446.37,427.11,444.59,416.26,444.59z"/>
	<path class="st1" d="M223.02,28.61c1.34,0,2.89-0.2,4.75-0.61c1.84-0.41,3.59-0.8,5.16-1.01c2.68-0.36,5.27-0.51,7.57-0.64
		c2.63-0.15,4.99-0.86,7.22-2.16c9.31-5.44,13.2-16.58,14.44-21.11c0.3-1.09,0.6-2.1,0.89-3.08h-0.31c-0.28,0.95-0.57,1.94-0.86,3
		c-1.23,4.5-5.09,15.54-14.3,20.93c-2.19,1.28-4.5,1.97-7.1,2.12c-2.29,0.13-4.89,0.28-7.58,0.65c-1.59,0.21-3.34,0.6-5.19,1.01
		c-1.83,0.41-3.36,0.6-4.68,0.6c-2.21,0-3.75-0.57-4.71-1.74c-1.42-1.73-1.62-4.82-0.64-9.73l0.16-0.8
		c1.33-6.76,3.63-11.97,7.24-16.04h-0.4c-3.55,4.08-5.81,9.27-7.14,15.98l-0.16,0.8c-1,5.01-0.78,8.18,0.7,9.98
		C219.1,28.01,220.71,28.61,223.02,28.61z"/>
	<path class="st1" d="M414.05,63.93c-7.23,0-15.62,1.43-24.5,2.94c-11.24,1.92-22.87,3.9-35.8,3.9c-0.95,0-1.89-0.01-2.82-0.03
		l-2.2-0.06c-1.82-0.05-3.53-0.1-5.14-0.1c-14.01,0-14.7,7.7-15.44,15.85c-0.4,4.47-0.82,9.1-3.28,13.03
		c-0.88,1.4-3.24,3.18-5.75,5.06c-5.33,4-11.37,8.54-8.47,12.79c1.25,1.83,2.75,2.75,4.46,2.75c0.94,0,1.96-0.28,3.02-0.83
		c4.73-2.44,9.78-9.66,13.84-15.46c2.3-3.29,4.29-6.13,5.38-6.79c1.14-0.68,2.42-0.77,3.51-0.77c0.42,0,0.85,0.02,1.28,0.03
		c0.44,0.02,0.88,0.03,1.31,0.03c1.65,0,3.39-0.2,4.96-1.63c1.89-1.72,2.13-3.96,2.36-6.12c0.21-1.94,0.4-3.77,1.69-5.32
		c3.9-4.66,17.58-7.92,26.63-10.07c2.66-0.63,4.96-1.18,6.68-1.67c7.87-2.26,15.69-3.4,23.22-3.4c16.72,0,30.09,5.48,41,12.04v-0.59
		c-10.92-6.52-24.29-11.95-41-11.95c-7.58,0-15.44,1.15-23.36,3.42c-1.7,0.49-4,1.04-6.66,1.67c-9.66,2.3-22.89,5.45-26.89,10.24
		c-1.39,1.66-1.6,3.66-1.81,5.59c-0.23,2.16-0.45,4.2-2.2,5.8c-1.45,1.32-3.08,1.5-4.62,1.5c-0.43,0-0.87-0.02-1.3-0.03
		c-0.43-0.02-0.87-0.03-1.3-0.03c-1.16,0-2.52,0.1-3.77,0.84c-1.18,0.71-3.1,3.45-5.54,6.93c-3.82,5.45-9.04,12.92-13.66,15.3
		c-2.82,1.45-5.04,0.88-6.85-1.76c-2.63-3.85,3.21-8.24,8.36-12.1c2.65-1.99,4.94-3.71,5.87-5.19c2.53-4.03,2.95-8.72,3.36-13.25
		c0.74-8.26,1.39-15.4,14.94-15.4c1.61,0,3.32,0.05,5.13,0.1l2.2,0.06c0.94,0.02,1.88,0.03,2.83,0.03c12.98,0,24.62-1.99,35.89-3.91
		c8.86-1.51,17.22-2.94,24.41-2.94c3.85,0,7.16,0.41,10.12,1.26c8.17,2.33,16.8,6.48,25.83,11.27V76.4
		c-8.97-4.75-17.55-8.86-25.69-11.18C421.3,64.35,417.94,63.93,414.05,63.93z"/>
	<path class="st1" d="M224.95,18.06c0.77,1.49,2.43,2.25,4.93,2.25c0.65,0,1.37-0.05,2.13-0.16c2.93-0.4,5.67-0.55,8.1-0.69
		c0.72-0.04,1.39-0.15,2.04-0.33c0.72-0.21,1.41-0.5,2.08-0.89c5.41-3.16,11.8-12.47,12.01-18.23h-0.5
		c-0.22,5.53-6.58,14.77-11.76,17.8c-0.64,0.37-1.28,0.65-1.97,0.84c-0.62,0.17-1.25,0.28-1.96,0.32c-2.42,0.14-5.17,0.3-8.12,0.7
		c-3.46,0.47-5.69-0.16-6.55-1.83c-1.17-2.26,0.22-6.63,3.62-11.39c1.85-2.59,4.34-4.69,7.64-6.43h-1.05c-2.96,1.69-5.26,3.7-7,6.14
		C225.04,11.13,223.68,15.59,224.95,18.06z"/>
	<path class="st1" d="M383.94,273.28c1.86,2.67,5.79,2.97,11.22,3.39c0.59,0.05,1.2,0.09,1.82,0.14c1.72,0.14,3.52,0.2,5.42,0.27
		c8.84,0.3,18.86,0.65,27.91,8.89l0.11,0.1c5.02,4.39,8,12.13,10.64,18.96c2.65,6.88,4.95,12.82,8.59,12.82
		c0.11,0,0.23-0.02,0.34-0.03v-0.3c-0.11,0.01-0.23,0.04-0.34,0.04c-3.44,0-5.69-5.85-8.31-12.63c-2.65-6.86-5.65-14.64-10.72-19.08
		l-0.11-0.1c-9.13-8.31-19.21-8.66-28.1-8.96c-1.9-0.07-3.7-0.13-5.41-0.27c-0.62-0.05-1.23-0.1-1.82-0.14
		c-5.35-0.41-9.22-0.71-11-3.26c-1.68-2.42-1.45-6.96,0.77-14.7c2.05-7.17,2.82-13.72,2.33-20.02c-1-12.85-6.37-24.39-11.56-35.56
		c-5.42-11.66-10.55-22.67-7.87-30.23c4.46-12.59,26-34.81,34.92-36.02c0.2-0.03,0.54-0.06,1.06-0.06c7.45,0,24.31,6.2,46.16,19.59
		v-0.35c-21.84-13.35-38.69-19.54-46.16-19.54c-0.53,0-0.89,0.03-1.1,0.06c-8.99,1.23-30.68,23.57-35.16,36.22
		c-2.72,7.68,2.43,18.74,7.88,30.46c5.18,11.14,10.54,22.65,11.53,35.45c0.49,6.27-0.27,12.79-2.32,19.92
		C382.4,266.27,382.18,270.75,383.94,273.28z"/>
	<path class="st1" d="M201.6,363.71c14.89-1.7,32.62-19.39,37.37-32.91c8.25-23.47-6.42-42.37-20.61-60.65
		c-13.69-17.64-26.63-34.3-20.34-54.59c5.48-17.67,23.18-27.21,37.05-27.21c7.48,0,13.94,2.65,18.21,7.47
		c5.07,5.72,7.06,14.41,5.76,25.13c-4.47,36.83-5.8,77.12,35.26,89c4.71,1.36,9.36,2.05,13.83,2.05c17.29,0,28.32-9.9,34.53-18.21
		c11.91-15.93,16.05-39.76,10.29-59.29c-4.88-16.56-14.49-32.63-29.36-49.11c-22.11-24.5-52.23-45.56-92.07-64.4l-1.72-0.82
		c-16.76-7.93-34.09-16.13-52.34-20.65c-1.08-0.27-2.28-0.59-3.56-0.93c-5.64-1.5-12.65-3.36-18.67-3.36c-2.41,0-4.5,0.31-6.2,0.92
		c-2.6,0.93-4.06,2.71-5.48,4.43c-1.06,1.28-2.15,2.61-3.71,3.56c-1.01,0.62-2.99,1.38-5.07,2.19c-3.38,1.3-6.87,2.65-7.97,3.95
		c-2.13,2.5-1.54,4-0.98,5.46c0.41,1.04,0.79,2.03,0.29,3.5l-0.39,1.16c-3.03,8.91-3.03,8.91-10.01,10.93
		c-1.35,0.39-3.03,0.88-5.02,1.51c-5.75,1.83-8.11,4.65-10.39,7.38c-1.75,2.1-3.41,4.08-6.54,5.68c-0.08-0.01-0.18-0.01-0.28-0.01
		c-3.6,0-30.9,1.8-33,8.51c-0.56,1.81,0.66,3.77,3.65,5.84c3.74,2.59,6.57,2.89,8.38,2.89c0.88,0,1.68-0.08,2.45-0.15
		c0.66-0.06,1.28-0.12,1.87-0.12c2.2,0,4.42,0.62,7.46,8.13c0.75,1.85,1.33,3.36,1.81,4.62c2.36,6.18,2.44,6.26,8.43,8.82
		c1.49,0.63,3.34,1.42,5.69,2.51c7.72,3.56,9.3,7.6,11.3,12.72c1.06,2.7,2.26,5.77,4.53,9.22c2.43,3.69,5.28,6.66,8.04,9.53
		c4.89,5.09,9.51,9.9,10.98,17.93c2.55,13.91-5,27.19-13.54,39.47c-4.14,5.96-12.65,12.89-21.66,20.23
		c-15.3,12.46-32.64,26.59-32.7,39.67c-0.04,7.47,1.88,13.2,5.7,17.04c4.16,4.18,10.48,6.21,19.33,6.21
		c12.83,0,28.59-4.33,42.5-8.14c10.95-3,20.41-5.6,26.45-5.6c1.37,0,2.53,0.14,3.44,0.41c5.83,1.73,10.45,5.43,14.93,9.01
		c5.93,4.75,11.54,9.23,19.55,9.23C199.92,363.86,200.76,363.81,201.6,363.71z M164.82,344.95c-1-0.3-2.19-0.44-3.64-0.44
		c-6.14,0-15.64,2.61-26.64,5.62c-13.87,3.8-29.59,8.12-42.32,8.12c-8.65,0-14.81-1.96-18.83-6c-3.68-3.7-5.53-9.26-5.5-16.54
		c0.06-12.75,17.26-26.77,32.44-39.13c9.05-7.37,17.59-14.33,21.79-20.37c8.62-12.41,16.25-25.84,13.65-40
		c-1.51-8.24-6.2-13.12-11.16-18.29c-2.74-2.85-5.57-5.8-7.96-9.43c-2.23-3.39-3.42-6.41-4.46-9.09c-2.06-5.27-3.69-9.42-11.66-13.1
		c-2.36-1.09-4.22-1.88-5.71-2.52c-5.78-2.47-5.78-2.47-8.06-8.43c-0.48-1.26-1.06-2.78-1.81-4.63c-2.91-7.17-5.18-8.57-8.11-8.57
		c-0.62,0-1.26,0.06-1.94,0.13c-0.75,0.07-1.53,0.15-2.38,0.15c-1.86,0-4.44-0.31-7.98-2.76c-2.71-1.87-3.84-3.57-3.38-5.05
		c1.82-5.83,27.27-8.02,32.33-8.02c0.12,0,0.2,0,0.25,0.01l0.08-0.32l0.15,0.31c3.32-1.68,5.13-3.83,6.87-5.92
		c2.32-2.77,4.51-5.39,10.07-7.16c1.98-0.63,3.65-1.11,5-1.5c7.27-2.1,7.36-2.21,10.48-11.38l0.39-1.16
		c0.58-1.71,0.11-2.91-0.3-3.98c-0.54-1.38-1-2.57,0.86-4.75c0.99-1.16,4.55-2.54,7.69-3.75c2.12-0.82,4.12-1.59,5.19-2.24
		c1.66-1.01,2.79-2.38,3.88-3.71c1.42-1.72,2.76-3.35,5.17-4.21c1.63-0.58,3.64-0.88,5.97-0.88c5.93,0,12.89,1.85,18.49,3.34
		c1.28,0.34,2.48,0.66,3.57,0.93c18.18,4.5,35.48,12.69,52.21,20.6l1.72,0.82c39.75,18.79,69.8,39.8,91.85,64.23
		c14.8,16.4,24.36,32.38,29.21,48.84c5.7,19.33,1.61,42.91-10.18,58.67c-6.12,8.18-16.98,17.93-33.97,17.93
		c-4.4,0-8.98-0.68-13.63-2.03c-40.53-11.72-39.2-51.69-34.76-88.24c1.33-10.92-0.72-19.8-5.93-25.67c-4.4-4.97-11.05-7.7-18.73-7.7
		c-14.12,0-32.14,9.71-37.72,27.71c-6.4,20.63,7.25,38.22,20.46,55.23c14.07,18.13,28.63,36.88,20.5,59.99
		c-4.69,13.33-22.15,30.78-36.79,32.45c-0.82,0.09-1.63,0.14-2.42,0.14c-7.77,0-13.28-4.41-19.12-9.08
		C175.46,350.46,170.78,346.72,164.82,344.95z"/>
	<path class="st1" d="M218.82,36.4c3.4,0,7.16-0.83,10.47-1.57c1.7-0.38,3.3-0.73,4.58-0.91c2.42-0.33,4.77-0.46,7.04-0.59
		c4.73-0.27,9.2-0.53,12.75-2.55c2.86-1.63,4.94-4.3,6.37-8.19c2.57-6.98,5.74-14.82,10.23-22.6h-0.35
		c-4.46,7.75-7.61,15.55-10.17,22.5c-1.4,3.81-3.44,6.44-6.24,8.03c-3.49,1.98-7.92,2.24-12.61,2.51c-2.28,0.13-4.63,0.27-7.06,0.59
		c-1.29,0.17-2.9,0.53-4.61,0.91c-3.3,0.73-7.03,1.56-10.4,1.56c-3.31,0-5.65-0.8-7.16-2.46c-3.68-4.03-1.83-13.23-0.84-18.18
		l0.16-0.78c1.12-5.7,2.93-10.55,5.48-14.68h-0.35c-2.51,4.13-4.3,8.96-5.42,14.63l-0.16,0.78c-1,5-2.86,14.29,0.92,18.44
		C213.01,35.56,215.42,36.4,218.82,36.4z"/>
	<path class="st1" d="M296.23,0h-0.69c-1.24,1.32-2.31,2.53-3.11,3.63c-11.03,14.99-15.92,28.83-14.95,42.31
		c0.38,5.24-0.27,8.71-1.97,10.61c-1.08,1.21-2.63,1.79-4.72,1.79c-2.91,0-6.5-1.11-10.29-2.28c-3.45-1.07-7.01-2.17-10.37-2.54
		c-2.53-0.28-5.06-0.41-7.75-0.41c-8.47,0-16.53,1.35-25.05,2.78c-1.43,0.24-2.87,0.48-4.32,0.72l-0.11,0.02
		c-2.99,0.49-6.38,1.04-9.68,1.04c-6.24,0-10.23-2.07-12.21-6.33c-4.13-8.89-2.97-19.6-1.96-29.04c0.14-1.27,0.27-2.53,0.4-3.77
		c0.68-6.9,1.87-13.04,3.63-18.52h-0.53c-1.74,5.48-2.92,11.6-3.6,18.47c-0.12,1.24-0.26,2.5-0.39,3.77
		c-1.02,9.51-2.19,20.29,2,29.31c2.07,4.45,6.21,6.62,12.66,6.62c3.34,0,6.75-0.56,9.76-1.04l0.11-0.02
		c1.45-0.24,2.89-0.48,4.32-0.72c8.5-1.42,16.53-2.77,24.97-2.77c2.67,0,5.18,0.13,7.69,0.41c3.32,0.36,6.86,1.46,10.28,2.52
		c3.83,1.19,7.45,2.31,10.44,2.31c2.24,0,3.91-0.64,5.09-1.96c1.79-2,2.48-5.59,2.09-10.98c-0.96-13.35,3.9-27.08,14.86-41.98
		C293.69,2.76,294.86,1.44,296.23,0z"/>
	<path class="st1" d="M292.98,75.8c-3.39,2.39-8.03,3.56-14.19,3.56c-7.23,0-15.33-1.62-22.46-3.05c-4.21-0.84-8.18-1.64-11.43-1.98
		c-1.59-0.17-5.86-0.56-11.12-0.56c-9.74,0-22.24,1.32-26.43,7.61c-1.83,2.73-1.9,6.17-0.22,10.21c0.79,1.9,2.83,2.93,4.8,3.93
		c1.56,0.79,3.17,1.61,4.07,2.82c1.06,1.44,1.69,3.46,2.29,5.42c0.81,2.6,1.64,5.29,3.53,6.88c2.35,1.97,4.92,2.89,8.11,2.89
		c2.21,0,4.47-0.45,6.65-0.88c2.16-0.43,4.39-0.87,6.55-0.87c2.07,0,3.87,0.41,5.51,1.25c3.97,2.05,5.65,4.81,7.26,7.47
		c2.11,3.48,4.1,6.76,10.66,8.3c13.73,3.21,17.5,6.57,26.59,14.68c1.17,1.05,2.43,2.17,3.81,3.38c3.27,2.87,5.69,6.15,8.03,9.32
		c2.09,2.83,4.24,5.75,7.02,8.43c3.41,3.29,6.63,4.75,9.74,6.16c4.14,1.88,8.06,3.66,11.61,9.76l0.55,0.96
		c4.47,7.72,8.98,14.87,11.76,14.87c0.45,0,0.83-0.17,1.15-0.52c1-1.1,1.27-4.01,0.83-8.9c-0.26-2.87-2.33-5.43-4.34-7.91
		c-2.16-2.67-4.2-5.2-4.08-7.99c0.15-3.34,2.17-4.99,4.31-6.73c1.57-1.27,3.19-2.59,4.14-4.64c2.28-4.91,2.83-9.3,3.37-13.55
		c0.74-5.92,1.44-11.5,6.74-17.82c9.47-11.31,22.76-19.85,37.42-24.06c4.88-1.4,9.4-2.08,13.81-2.08c14.98,0,25.72,8.15,37.1,16.77
		c1.29,0.98,2.59,1.96,3.9,2.94v-0.87c-1.17-0.88-2.33-1.75-3.48-2.62c-11.47-8.7-22.31-16.91-37.52-16.91
		c-4.48,0-9.06,0.69-14.01,2.11c-14.79,4.24-28.2,12.86-37.77,24.28c-5.43,6.48-6.14,12.16-6.9,18.18
		c-0.53,4.2-1.07,8.54-3.31,13.34c-0.88,1.9-2.44,3.16-3.94,4.39c-2.17,1.76-4.41,3.59-4.57,7.25c-0.13,3.05,2.09,5.8,4.23,8.46
		c1.94,2.4,3.94,4.88,4.18,7.53c0.52,5.76-0.06,7.73-0.65,8.36c-0.18,0.2-0.38,0.29-0.63,0.29c-2.75,0-8.64-10.18-11.15-14.52
		l-0.56-0.96c-3.66-6.29-7.68-8.11-11.92-10.05c-3.06-1.39-6.22-2.83-9.54-6.03c-2.73-2.63-4.87-5.53-6.94-8.34
		c-2.36-3.2-4.8-6.51-8.13-9.43c-1.38-1.21-2.64-2.33-3.81-3.38c-9.19-8.2-12.99-11.59-26.9-14.84c-6.28-1.47-8.2-4.63-10.22-7.98
		c-1.67-2.75-3.39-5.59-7.54-7.73c-1.74-0.9-3.64-1.33-5.83-1.33c-2.22,0-4.49,0.45-6.68,0.88c-2.15,0.43-4.38,0.86-6.52,0.86
		c-3.01,0-5.44-0.87-7.66-2.73c-1.73-1.46-2.54-4.05-3.31-6.56c-0.62-2.01-1.27-4.09-2.4-5.63c-0.99-1.35-2.68-2.21-4.31-3.03
		c-1.94-0.98-3.78-1.91-4.47-3.57c-1.58-3.81-1.53-7.03,0.16-9.56c4.03-6.03,16.28-7.3,25.85-7.3c5.23,0,9.46,0.39,11.04,0.56
		c3.21,0.34,7.17,1.14,11.36,1.97c7.17,1.44,15.3,3.06,22.6,3.06c6.31,0,11.08-1.21,14.59-3.69c8.75-6.19,6.24-15.52,3.81-24.54
		c-2.59-9.64-5.27-19.61,5.51-26.11c1.29-0.78,3.02-1.18,5.13-1.18c6.45,0,15.53,3.52,24.31,6.93c7.65,2.97,14.87,5.77,19.57,5.88
		c0.68,0.02,1.35,0.02,2.03,0.02c0,0,0,0,0.01,0c10.1,0,20.31-1.74,30.19-3.43c9.86-1.68,20.05-3.42,30.11-3.42
		c7.04,0,13.4,0.84,19.43,2.56c5.58,1.59,11.08,3.7,16.52,6.1v-0.76c-5.37-2.37-10.81-4.44-16.33-6.01
		c-6.1-1.74-12.52-2.59-19.62-2.59c-10.12,0-20.35,1.74-30.23,3.43c-9.85,1.68-20.03,3.42-30.07,3.42
		c-0.68,0.02-1.34-0.01-2.02-0.02c-4.58-0.11-11.74-2.89-19.33-5.83c-8.84-3.43-17.98-6.98-24.56-6.98c-2.28,0-4.07,0.42-5.5,1.28
		c-11.23,6.78-8.48,17-5.82,26.89C298.99,61.21,301.33,69.9,292.98,75.8z"/>
	<path class="st1" d="M207.93,50.26c2.14,0,4.62-0.26,8.3-0.88c9.33-1.56,18.59-2.29,29.15-2.29c2.65,0,5.37,0.04,8.33,0.14
		c1.03,0.03,1.92,0.05,2.73,0.05c4.89,0,7.74-0.59,9.84-2.05c2.51-1.74,4.01-4.78,4.99-10.19c2.26-12.4,7.23-23.54,15.64-35.04
		h-0.37c-8.35,11.47-13.31,22.6-15.56,34.99c-0.97,5.32-2.43,8.31-4.87,9.99c-2.05,1.42-4.85,1.99-9.67,1.99
		c-0.81,0-1.7-0.02-2.72-0.05c-2.96-0.09-5.68-0.14-8.34-0.14c-10.57,0-19.85,0.73-29.2,2.3c-3.66,0.61-6.13,0.88-8.25,0.88
		c-6.03,0-10.35-2.02-11.86-11.88c-1.44-9.42-0.16-19.4,1.16-26.11c0.85-4.33,2.04-8.31,3.52-11.97h-0.31
		c-1.48,3.64-2.65,7.59-3.5,11.92c-1.33,6.73-2.61,16.75-1.16,26.21C197.09,46.75,200.61,50.26,207.93,50.26z"/>
	<path class="st1" d="M212.05,42.75L212.05,42.75c0.94,0,1.95-0.09,3.02-0.27c7.95-1.33,16.45-2.12,25.28-2.33
		c2.06-0.05,4.04,0,5.93,0.05c1.27,0.03,2.47,0.06,3.64,0.06c3.6,0,7.32-0.28,10.19-2.29c2.38-1.67,4.08-4.45,5.19-8.48
		c3.01-10.95,7.32-20.64,13.12-29.49h-0.36c-5.76,8.83-10.05,18.49-13.05,29.41c-1.09,3.96-2.75,6.68-5.07,8.31
		c-2.81,1.97-6.48,2.24-10.02,2.24c-1.17,0-2.36-0.03-3.63-0.06c-1.89-0.05-3.88-0.1-5.94-0.05c-8.84,0.22-17.37,1-25.33,2.34
		c-4.57,0.77-7.97-0.15-10.09-2.73c-4.83-5.87-2.23-19.05-0.83-26.13c0.98-4.95,2.43-9.37,4.36-13.33h-0.34
		c-1.91,3.95-3.35,8.35-4.32,13.27c-1.41,7.13-4.02,20.39,0.89,26.37C206.39,41.7,208.87,42.75,212.05,42.75z"/>
</g>
</svg>
