<?xml version="1.0" encoding="UTF-8"?>
<svg id="layer" xmlns="http://www.w3.org/2000/svg" viewBox="0 0 450.47 450.53">
  <defs>
    <style>
      .cls-1 {
        stroke-width: .4px;
      }

      .cls-1, .cls-2, .cls-3, .cls-4, .cls-5 {
        stroke-miterlimit: 10;
      }

      .cls-1, .cls-2, .cls-3, .cls-4, .cls-5, .cls-6 {
        fill: none;
        stroke: #B60205;
      }

      .cls-2 {
        stroke-width: .7px;
      }

      .cls-3, .cls-6 {
        stroke-width: .6px;
      }

      .cls-4 {
        stroke-width: .3px;
      }

      .cls-5 {
        stroke-width: .5px;
      }

      .cls-6 {
        stroke-linecap: round;
        stroke-linejoin: round;
      }
    </style>
  </defs>
  <path class="cls-1" d="M156.99,61.15c-1.72,0-4.15,1.1-5.94,6.32-2.01,5.88,1.86,7.24,5.96,8.69.72.25,1.46.52,2.18.81,1.61.65,2.97.98,4.03.98,1.18,0,2.03-.4,2.52-1.18,1.53-2.43-.92-7.8-2.05-9.99-1.81-3.53-4.32-5.63-6.7-5.63Z"/>
  <path class="cls-5" d="M106.4,247.2c-3.67,14.68-11.54,19.89-23.46,27.79-2.98,1.97-5.86,4.24-8.65,6.44-3.39,2.67-6.9,5.43-10.58,7.66-2.24,1.36-4.16,1.92-5.34,1.58-.53-.15-.9-.48-1.12-.97-.51-1.17-.09-3.21,1.18-5.75,3.42-6.83,9.16-12.62,14.7-18.23.94-.95,1.88-1.9,2.79-2.83,6.75-6.95,12.74-13.28,17.82-20.42.42-.59.89-1.37,1.39-2.2,1.81-3,4.28-7.1,7.2-7.25.09-.02.16-.02.23-.02,1.11,0,2.04.46,2.74,1.37,2.3,2.95,1.85,9.81,1.1,12.83Z"/>
  <path class="cls-5" d="M113.1,248.87c-4.32,17.28-14.04,23.72-26.34,31.87-.61.41-1.24.82-1.87,1.23-7.51,4.94-16.02,10.55-20.87,18.2-2.57,4.05-3.56,8.68-4.53,13.17-.94,4.38-1.91,8.91-4.36,12.78-1.75,2.76-3.78,5.59-5.58,5.59-1.38,0-2.64-1.67-3.87-5.1-.38-1.07-.55-2.15-.51-3.28.12-3.33,2.06-6.5,3.95-9.56,1.63-2.65,3.17-5.15,3.6-7.74.7-4.12-.17-8.05-1.01-11.84-1.04-4.71-2.03-9.15-.3-13.97,2.07-5.77,8.96-12.16,14.5-17.3,1.88-1.75,3.66-3.39,5.08-4.86,5.43-5.59,11.04-11.37,16.02-17.8.91-1.17,1.93-2.8,3.02-4.51,3.04-4.8,6.81-10.78,11-11.82.76-.19,1.5-.28,2.2-.28,2.38,0,4.44,1.09,6.11,3.23,4.21,5.4,5.05,16.81,3.76,21.99Z"/>
  <path class="cls-5" d="M122.7,251.28c-5.25,21.01-17.5,29.13-30.48,37.72-14.89,9.87-30.3,20.08-35.95,50.79-1.36,7.41-3.62,11.33-6.53,11.33-4.54,0-10.07-9.46-11.79-17.59-2.98-14.09-2-30.9,2.93-49.94,3.26-12.63,12.61-21.84,21.65-30.75,4.7-4.63,9.56-9.42,13.48-14.62.95-1.26,2.46-2.95,4.21-4.91,5.76-6.45,13.64-15.29,12.26-20.56-.5-1.9-1.67-3.78-2.92-5.78-1.28-2.05-2.59-4.16-3.06-6.23-.6-2.62.33-3.08,1.15-3.49.45-.23.92-.46,1.04-1.01.15-.73-.31-1.85-3.1-5.16-1.58-1.88-6.06-4.28-10.39-6.61-4.55-2.44-9.7-5.21-10.13-6.8-.98-3.62-.67-5.04-.24-5.6.23-.3.56-.44,1.02-.44,4.37,0,17.06,12.45,27.48,24.09.13.14.2.22.21.22,1.95,1.48,3.67,1.85,5.18,2.17,2.14.46,3.99.85,6.22,4.06,1.06,1.52.88,3.36.69,5.3-.19,1.92-.39,3.94.73,5.7,1.46,2.3,3.32,3.71,5.29,5.21,2.12,1.62,4.32,3.29,6.04,6.22,3.94,6.71,6.97,18.82,5.01,26.68Z"/>
  <path class="cls-3" d="M70.36,443.4c-.24.04-.51.06-.78.06-2.24,0-4.94-1.35-7.32-2.53-.77-.38-1.5-.75-2.15-1.03-.28-.12-.62-.26-.99-.41-2.24-.9-5.99-2.41-6.11-4.62,0-.17.04-.31.15-.43.22-.23.81-.51,2.33-.51,2.3,0,5.41.62,6.91.93.3.06.52.1.66.13.4.07.85.13,1.34.21,2.63.38,6.6.96,7.92,3.01.51.79.6,1.73.28,2.87-.4,1.37-1.13,2.13-2.24,2.32Z"/>
  <path class="cls-3" d="M97.91,252.38c-.36,1.74-1.4,3.89-2.86,5.88-1.52,2.08-4.64,5.58-8.43,5.66,0,0-.16,0-.22-.01-.36-.04-.42-.2-.44-.25-.11-.28-.09-1.24,2.41-4.21l.08-.09c.61-.74,1.21-1.48,1.81-2.23.92-1.15,1.87-2.34,2.86-3.46.18-.2.39-.47.62-.76.93-1.17,2.34-2.93,3.57-2.93.2.01.35.08.47.23.33.44.28,1.45.13,2.17Z"/>
  <path class="cls-1" d="M334.18,286.76c-6.77,9.37-16.21,14.32-27.29,14.32-3.91,0-8.05-.62-12.31-1.86-13.25-3.83-21.64-11.71-25.63-24.07-3.58-11.07-3.4-24.69-3.23-37.86.27-21.12.55-42.96-14.38-55.61-7.13-6.04-7.33-6.14-11.45-5.12-1.78.44-4.23,1.04-8.36,1.43-3.09.29-5.29.37-7.05.43q-6.03.21-14.75,8.1l-.12.11c-2.45,2.22-5.99,3.87-9.74,5.61-5.56,2.58-11.31,5.26-13.37,10.03-2.76,6.39-.26,24.69,1.38,32.56,1.94,9.31,7.89,17.88,13.14,25.45l1.11,1.6c1.84,2.66,3.79,5.37,5.68,7.99,11.05,15.36,22.48,31.23,22.2,51.03-.18,12.81-14.18,27.92-27.24,29.41-.83.09-1.66.14-2.46.14-7.67,0-13.14-4.26-18.94-8.76-3.59-2.8-7.29-5.68-11.68-7.68-3.84-1.75-8.35-2.6-13.8-2.6-11.33,0-24.58,3.81-36.26,7.17-9.5,2.73-18.47,5.31-24.69,5.31-3.66,0-6.14-.88-7.58-2.69-1.75-2.19-2.04-5.77-.87-10.93,2.53-11.16,16.98-24.57,29.72-36.41,7.75-7.19,15.07-13.99,18.91-19.51,12.3-17.69,16.34-49.19,2.76-67.88-3.43-4.72-9.25-9.42-15.41-14.39-13.11-10.58-27.97-22.58-22-37.78,2.81-7.14,9.69-10.4,16.98-13.84,4.56-2.15,9.27-4.38,13-7.66,3.23-2.84,5.83-5.62,8.34-8.3,6.45-6.9,11.54-12.35,22.18-12.35,1.68,0,3.5.14,5.41.41,26.71,3.78,57.95,9.58,90.74,30.62,36.08,23.15,69.63,47.44,83.65,89.87,6.05,18.31,3.4,39.89-6.59,53.71Z"/>
  <path class="cls-3" d="M442.34,225.39l-.4.61c-.43.66-.86,1.36-1.27,2.05-1.74,2.87-3.53,5.84-5.97,5.84-.32,0-.64-.05-.97-.15-.75-.22-1.56-.71-2.4-1.45-2.18-1.92-3.09-5.97-3.82-9.23-.18-.79-.34-1.53-.51-2.18-1.64-6.26-3.84-12.02-5.97-17.59-.32-.83-.69-1.76-1.11-2.77-.21-.5-.53-1.19-.9-1.99-1.39-2.95-3.71-7.89-2.77-9.77.75-1.51,1.88-2.25,3.45-2.25,4.3,0,10.58,5.48,14.33,8.75,1,.87,1.79,1.56,2.32,1.95,1.67,1.22,3.27,2.39,4.51,3.25,12.26,8.51,8.2,14.69,1.48,24.93Z"/>
  <path class="cls-5" d="M408.38,388.92c-13.03,19.45-32.49,31.08-43.78,31.08-3.45,0-6.13-1-7.95-2.97-17.39-18.81-39.65-28.35-66.15-28.35-8.08,0-16.71.89-25.65,2.64-3.89.76-8.12,1.42-12.59,2.12-11.38,1.78-24.27,3.8-33.67,8.06-2.04.93-5.17,3.98-8.79,7.51-5.32,5.19-11.35,11.07-14.98,11.07-.32,0-.62-.05-.89-.14-1.6-.58-2.57-1.43-2.96-2.61-1-3.01,2.06-7.63,4.52-11.34,1.48-2.23,2.75-4.15,2.99-5.43.3-1.65-.66-3.5-1.59-5.29-1.04-2-2.03-3.9-1.32-5.43,1.07-2.3,3.08-2.65,5.02-2.99,1.56-.27,3.17-.55,4.12-1.88,1.55-2.16,2.3-4.74,3.03-7.23,1-3.45,1.95-6.7,4.87-8.55,3.96-2.51,7.37-2.93,10.66-3.34,4.52-.56,8.78-1.08,13.63-7.01,6.26-7.66,10.87-19.75,12.32-32.33,2.92-25.41-12.08-44.37-25.31-61.1-11.57-14.63-21.57-27.27-17.4-41,4.44-14.63,16.71-22.28,26.54-22.28,5.13,0,9.56,1.91,12.8,5.53,4.64,5.18,6.49,13.46,5.34,23.96-3.02,27.6-1.99,61.68,33.11,80.4,11.37,6.06,23.11,9.01,35.9,9.01,16.39,0,31.58-4.9,44.98-9.22,10.81-3.49,20.15-6.5,28.28-6.5,10.69,0,17.64,5.31,22.54,17.2,12.21,29.65.46,54.33-7.62,66.41Z"/>
  <path class="cls-1" d="M277.71,344.85c1.91-1.06,3.87-1.58,5.99-1.58,3.89,0,7.74,1.78,11.47,3.51l.88.41c2.14.98,4.31,1.46,6.62,1.46,2.81,0,5.55-.7,8.45-1.44.73-.19,1.47-.38,2.23-.56,1.63-.39,3.2-.58,4.81-.58,4.86,0,9.29,1.85,13.35,3.85,2.07,1.02,4.07,1.51,6.13,1.51,3.02,0,5.73-1.05,8.59-2.16,2.12-.82,4.31-1.67,6.73-2.12,2.2-.4,4.37-.66,6.48-.91,5.43-.64,10.57-1.25,15.78-4.2.62-.35,1.22-.71,1.79-1.05,2.47-1.47,4.6-2.75,7.38-2.75.86,0,1.75.12,2.7.36,2.65.67,4.48,2.38,5.43,5.09,3.37,9.59-4.82,28.94-9.32,34.88-3.26,4.3-7.45,6.72-11.81,6.8h-.22c-4.34,0-8.52-2.37-11.77-6.67-1.64-2.17-2.89-4.79-4.22-7.56-2.78-5.82-5.66-11.83-12.32-13.4-.83-.2-1.57-.29-2.27-.29-2.44,0-3.84,1.16-5.47,2.49-.98.8-1.98,1.63-3.35,2.33-1.69.86-3.35,1.28-5.08,1.28-3.64,0-6.89-1.84-10.33-3.79-3.42-1.94-6.96-3.94-10.89-3.94h-.25c-1.93.04-3.55.44-5.13.83-1.46.36-2.84.7-4.29.7s-2.8-.33-4.24-1.04c-.61-.3-1.18-.62-1.73-.93-1.56-.88-3.03-1.7-4.74-1.7-.91,0-1.82.23-2.79.69-.77.37-1.64,1.23-2.56,2.15-1.47,1.46-3.14,3.12-4.71,3.12-.37,0-.72-.09-1.06-.28-1.23-.68-1.86-1.91-1.86-3.67,0-4.11,3.49-9.67,5.6-10.84Z"/>
  <path class="cls-1" d="M402.67,385.13c-9.21,13.76-24.74,24.95-34.6,24.95-2.64,0-4.78-.77-6.38-2.3-11.29-10.8-21.79-17.67-33.06-21.62-9.7-3.39-20.39-4.84-35.75-4.84-16.57,0-33.82,2.68-48.57,7.55-17.56,5.8-28.81,6.25-31.84,6.25-1.43,0-2.56-.09-3.17-.25-.92-.24-1.42-.53-1.47-.87-.12-.85,2.31-2.37,5.69-4.46,4.1-2.55,9.72-6.04,15.33-11.04,8.5-7.58,15.49-17.12,20.78-28.36,3.33-7.07,5.48-14.76,6.41-22.83,3.25-28.22-13.38-49.25-26.75-66.14-10.38-13.12-19.34-24.45-16.22-34.75,3.47-11.43,12.67-17.41,19.97-17.41,3.17,0,5.76,1.09,7.7,3.25,3.26,3.63,4.54,10.25,3.63,18.63-3,27.43-2.47,66.31,36.7,87.2,12.39,6.61,25.19,9.82,39.12,9.82,17.47,0,33.21-5.07,47.1-9.55,10.26-3.31,19.11-6.16,26.17-6.16,5.64,0,11.5,1.57,16.19,12.95,10.99,26.7.34,49.04-6.98,59.98Z"/>
  <path class="cls-4" d="M237.2,231.13c-.6,5.45-.45,9.41-.34,12.31.17,4.69.24,6.45-2.9,7.54-.73.25-1.49.27-2.26.04-2.57-.77-6.11-5.02-8.79-10.58-2.85-5.89-3.82-11.26-2.59-14.36,1.87-4.72,7.55-9.97,12.72-9.98,1.41,0,1.99.43,2.41.89,1.46,1.64,2.53,7.02,1.75,14.14Z"/>
  <path class="cls-5" d="M354.65,357.41c1.02-.2,2-.38,2.94-.56,5.42-1.03,9.71-1.84,16.07-3.6.79-.22,1.47-.33,2.04-.33.75,0,1.3.19,1.61.57.43.51.4,1.29.3,1.85-.98,5.5-1.82,8.64-4.2,12.69-.7,1.18-1.36,1.97-2.32,1.97-.79,0-1.79-.52-3.05-1.58-2.45-2.07-5.94-4.34-10.09-6.57-.4-.22-.75-.41-1.06-.59-.83-.46-1.48-.83-2.61-1.28-.75-.3-1.15-.78-1.1-1.3.08-.59.69-1.12,1.47-1.27Z"/>
  <path class="cls-1" d="M261.44,361.54c1.87-4.02,4.44-9.52,6.7-16.78,1.25-4.02,1.41-7.54,1.53-10.1.14-3.13.22-4.85,1.97-4.85.94,0,2.38.49,4.54,1.54,6.71,3.27,26.18,10.02,43.54,10.02.34,0,.69,0,1.03-.01,20.58-.33,39.54-5.89,53.39-9.96,7.37-2.16,13.19-3.87,17.37-4.3,2.48-.25,4.5,1.14,5.98,4.13,5.27,10.6,2.04,37.54-8.62,51.62-6.06,8.01-12.54,12.6-17.77,12.6-2.29,0-4.31-.88-6-2.62-9.56-9.81-29.52-20.81-52.59-23.29-4.61-.5-10.03-.75-16.11-.75-15.58,0-30.11,1.63-30.72,1.69-1.4.16-2.52.24-3.43.24-1.81,0-2.85-.31-3.27-.97-.79-1.22.43-3.85,2.46-8.21Z"/>
  <path class="cls-1" d="M241.6,375.83c10.51-10.27,17.4-21.41,20.47-33.12,2.47-9.41,1.76-16.69,1.46-19.79-.07-.68-.11-1.17-.11-1.46.03-2.31,1.01-2.58,1.74-2.58,1.65,0,4.44,1.6,7.66,3.45,1.7.98,3.63,2.08,5.64,3.1,12.96,6.55,25.82,9.48,41.72,9.48,18.57,0,34.86-5.25,49.24-9.89,9.7-3.13,18.08-5.83,24.03-5.83,2.89,0,6.17,0,9.72,8.62,9.02,21.91.18,40.05-5.11,50.89-.44.9-.85,1.74-1.23,2.55-4.14,8.73-18.06,23.2-25.57,23.2-1.16,0-2.12-.36-2.84-1.07-12.64-12.43-25.73-20.57-40-24.89-12.72-3.85-24.53-4.17-35.54-4.17-19.44,0-35.71,2.37-49.75,7.24-1.21.42-2.37.65-3.26.65-.68,0-1.54-.13-1.79-.75-.23-.59-.09-2.1,3.52-5.63Z"/>
  <path class="cls-5" d="M197.82,313.71c-.35.46-.81.68-1.39.68-1.6,0-3.98-1.6-7-3.64-5.33-3.59-12.63-8.5-21.46-8.5-1.09,0-2.2.08-3.28.23-2.54.36-4.07.51-5.09.51-.96,0-1.51-.14-1.63-.41-.34-.78,1.99-3.25,5.52-6.99l1.07-1.13c3.68-3.91,5.81-7.77,7.35-10.58,1.4-2.54,2.32-4.21,3.43-4.21.43,0,.92.25,1.49.77,8.96,8.13,25.9,26.96,20.99,33.27Z"/>
  <path class="cls-5" d="M191,305.67s-.07.08-.25.08c-.82,0-2.62-1.08-4.71-2.34-4.05-2.43-9.59-5.75-14.93-5.84-.79-.01-1.15-.33-1.14-1.02.02-2.34,4.21-7.45,7.33-7.45.36,0,.69.07.98.22,3.99,2,12.49,11.36,12.82,15.72.03.42-.05.58-.1.63Z"/>
  <path class="cls-1" d="M146.32,174.84c-6.34-3.49-9.53-6.66-9.76-9.69-.3-3.98,4.4-7.58,9.85-11.75,1.78-1.37,3.63-2.78,5.43-4.31,11.32-9.57,16.16-11.25,22.14-11.25,1.72,0,3.52.15,5.61.32l.98.08c22.68,1.83,39.16,10.83,40.01,12.39.17.32.14.47.09.56-.22.47-1.47.75-3.55,1.2-4.68,1.02-13.39,2.91-26.46,10.2-12.95,7.23-21.3,20.83-23.82,31.1-.62,2.5-1.25,3.72-1.93,3.72h0c-.98,0-2.29-2.36-3.96-5.34-2.9-5.27-7.33-13.21-14.63-17.23Z"/>
  <path class="cls-1" d="M135.82,177.61c-7.13-4.99-10.5-9.1-10.59-12.92-.12-4.82,4.92-8.73,11.3-13.68,2.88-2.24,5.86-4.55,8.76-7.25,11.72-10.9,17.59-14.22,25.14-14.22,1.36,0,2.86.11,4.59.33,15.48,1.97,31.61,6.7,49.3,14.44,4.2,1.84,9.16,4.07,14.13,6.7.56.3,1.42.67,2.41,1.1,3.29,1.43,8.27,3.6,8.89,5.82.17.62.14,1.1-.11,1.42-.32.42-.97.51-1.45.51-1.04,0-2.31-.4-3.02-.8-.93-.51-1.6-1.47-2.26-2.4-.96-1.36-1.95-2.76-3.78-2.92-1.88-.17-2.51.8-3.13,1.72-.42.62-.81,1.2-1.56,1.5-.46.18-.87.27-1.28.27-1.07,0-1.89-.63-2.75-1.29-.83-.64-1.69-1.31-2.87-1.51-.23-.04-.48-.06-.72-.06-2.07,0-4.25,1.47-6.36,2.89-1.65,1.11-3.22,2.17-4.71,2.56-7.72,2.03-14.3,4.59-20.14,7.82-18.92,10.46-24.58,30.05-27.19,43.88-.39,2.04-.91,3.04-1.6,3.04-1.35,0-3.5-3.45-6.48-8.22-5.12-8.18-12.86-20.56-24.52-28.73Z"/>
  <path class="cls-4" d="M325.94,280.92c-4.83,6.53-11.56,9.99-19.48,9.99-4.37,0-9.13-1.04-14.16-3.09-9.36-3.82-15.09-12.54-17.51-26.68-2.12-12.36-1.43-27.24-.83-40.36.17-3.7.33-7.19.43-10.57.44-14.64-3.58-26.76-11.63-35.05-7.33-7.55-17.87-11.71-29.68-11.71-15.69,0-31.58,7.04-43.61,19.32-7.34,7.5-11.87,15.23-13.86,23.65-1.77,7.52-1.46,15.41.96,24.15,4.5,16.23,15.37,32.37,26.89,49.47,4.02,5.97,8.18,12.14,11.99,18.25,8.81,14.13,7.28,24.08,4.45,29.94-3.09,6.4-9.44,11.04-16.18,11.8-.76.09-1.52.13-2.26.13-7.03,0-12.04-3.9-17.34-8.02-3.26-2.52-6.64-5.15-10.64-6.97-4.08-1.86-8.93-2.76-14.83-2.76-10.93,0-23.29,3.22-33.21,5.81-7.05,1.84-13.13,3.42-16.94,3.43-2.04,0-3.3-.46-3.86-1.4-.77-1.32-.2-3.65,1.74-7.13,4.63-8.28,12.75-15.72,20.61-22.91,6.45-5.91,12.54-11.48,16.72-17.41,8.54-12.09,13.58-25.88,14.57-39.88,1.14-16-2.97-31.22-12.22-45.22-3.29-4.98-9.4-9.17-15.31-13.22-11.01-7.55-21.41-14.67-13.71-26.18,3.92-5.87,7.5-8.06,11.63-10.6,2.61-1.6,5.56-3.42,8.96-6.41,2.95-2.59,5.32-5.13,7.61-7.58,5.9-6.31,10.57-11.3,20.31-11.3,1.53,0,3.2.13,4.95.37,23.62,3.35,49.75,8.94,80.67,27.06,40.71,23.85,68.24,46.13,79.68,83.41,5.32,17.34,3.35,36.49-4.91,47.67Z"/>
  <path class="cls-4" d="M214.58,319.98c-.4,3.27-1.89,5.87-4.44,7.73-2.03,1.48-4.5,2.22-7.35,2.22-7.77,0-17.02-5.37-24.45-9.69-1.67-.98-3.26-1.9-4.69-2.67-2.66-1.44-6.34-2.15-11.23-2.15-6.23,0-13.39,1.15-19.72,2.16-5.19.83-9.68,1.55-12.88,1.55-1.97,0-3.27-.28-3.96-.85-.01-.01-.03-.03-.04-.09-.12-1.58,8.02-10.84,16.63-20.66,10.95-12.47,23.35-26.6,23.9-30.59.3-2.23-.63-3.92-1.53-5.56-.97-1.76-1.88-3.42-1.38-5.69.38-1.76,1.43-2.74,2.53-3.78,1.44-1.36,2.93-2.77,2.97-5.98.02-1.26-.91-3.4-1.98-5.88-.99-2.3-2.12-4.9-2.61-7.14-.57-2.63-.16-4.32,1.25-5.16.29-.17.59-.26.88-.26,3.46,0,6.08,12.22,7.48,18.79.47,2.21.81,3.8,1.06,4.42,4.76,12.02,14.48,24.42,24.27,36.04,7.79,9.25,16.47,23.5,15.29,33.24Z"/>
  <path class="cls-1" d="M206.59,315.35c-.24,2.17-1.16,3.86-2.74,5.01-1.5,1.11-3.37,1.66-5.57,1.66-6.19,0-14.13-4.45-19.49-8.62-3.9-3.03-8.65-4.5-14.53-4.5-4.3,0-8.49.77-12.19,1.45-2.82.52-5.26.96-7.17.96-1.64,0-2.71-.33-3.36-1.03-.29-.31-.42-.64-.4-1.01.09-1.44,2.45-3.42,5.71-6.15,7.9-6.62,21.13-17.69,23.32-38.17.26-2.45.67-3.54,1.31-3.54,1.09,0,3.09,2.75,6.4,7.31,3.51,4.84,8.83,12.15,16.44,20.73,4.38,4.94,13.15,17.76,12.27,25.9Z"/>
  <path class="cls-3" d="M292.27,204c.05-.06.1-.08.18-.08.14,0,.41.08.9.49,2.83,2.34,25.89,30.31,19.12,56.84-1,3.91-3.01,6.07-5.68,6.07h0c-1.92,0-4.08-1.17-6.06-3.29-4.48-4.78-8.9-15.41-7.88-30.89.6-9.16-.07-16.93-.52-22.07-.34-3.77-.58-6.5-.06-7.07Z"/>
  <path class="cls-5" d="M283.79,188.25c.09-.11.22-.16.39-.16.62,0,1.79.69,3.34,1.72,10.15,6.77,37.11,37.61,29.51,71.96-1.41,6.37-6.14,10.49-12.05,10.49-4.17,0-8.33-2.02-11.72-5.68-6.54-7.06-9.51-19.26-8.36-34.35,1.48-19.32-.07-31.49-.91-38.03-.42-3.36-.68-5.4-.2-5.95Z"/>
  <path class="cls-1" d="M275.71,175.1c.08-.1.19-.14.36-.14.81,0,2.56,1.14,5.46,3.02,25.52,16.56,49.97,47.26,42.07,83.71-2.55,11.78-10.82,19.69-20.57,19.69-5.09,0-9.86-2.21-13.79-6.39-7.66-8.14-11.24-22.98-10.1-41.78,1.71-28.07-1.38-44.42-2.87-52.28-.62-3.31-.99-5.31-.56-5.83Z"/>
  <path class="cls-6" d="M155.66,162.79c2.09-5.81,20.57-13.78,29.42-13.78.31,0,.61,0,.9.03,1.73.12,2.5.24,2.81.34-.38.26-1.36.69-2.32,1.11-4.33,1.89-12.39,5.42-16.3,12.8-2.46,4.64-4.26,6.45-6.41,6.45-1.75,0-3.9-1.16-7.18-3.87-1.05-.87-1.35-1.87-.92-3.08Z"/>
  <path class="cls-5" d="M159.48,176.87c-1.73-4.13-5.23-5.88-8.32-7.42-2.72-1.35-5.07-2.52-5.41-5.02-.13-.95.49-2.29,1.8-3.88,5.39-6.57,20.38-15.45,26.72-15.83,1.61-.1,3.22-.15,4.8-.15,13.85,0,23.08,3.83,23.27,5.45.03.26-.39.4-.65.46-10.18,2.41-22.75,6.79-29.66,19.37-5.74,10.45-10.05,12.98-12.55,7.02Z"/>
  <path class="cls-3" d="M300.4,231.52c.26-.44.53-.71.74-.71.18,0,.36.22.45.36,4.94,7.36,5.05,19.83,3.22,23.26-.25.46-.52.72-.76.72-.31,0-.72-.4-1.12-1.1-5.08-8.91-4.35-19.4-2.53-22.53Z"/>
  <path class="cls-3" d="M342.36,293.61c-6.12,8.18-16.98,17.93-33.97,17.93-4.4,0-8.98-.68-13.63-2.03-40.53-11.72-39.2-51.69-34.76-88.24,1.33-10.92-.72-19.8-5.93-25.67-4.4-4.97-11.05-7.7-18.73-7.7-14.12,0-32.14,9.71-37.72,27.71-6.4,20.63,7.25,38.22,20.46,55.23,14.07,18.13,28.63,36.88,20.5,59.99-4.69,13.33-22.15,30.78-36.79,32.45-.82.09-1.63.14-2.42.14-7.77,0-13.28-4.41-19.12-9.08-4.54-3.66-9.22-7.4-15.18-9.17-1-.3-2.19-.44-3.64-.44-6.14,0-15.64,2.61-26.64,5.62-13.87,3.8-29.59,8.12-42.32,8.12-8.65,0-14.81-1.96-18.83-6-3.68-3.7-5.53-9.26-5.5-16.54.06-12.75,17.26-26.77,32.44-39.13,9.05-7.37,17.59-14.33,21.79-20.37,8.62-12.41,16.25-25.84,13.65-40-1.51-8.24-6.2-13.12-11.16-18.29-2.74-2.85-5.57-5.8-7.96-9.43-2.23-3.39-3.42-6.41-4.46-9.09-2.06-5.27-3.69-9.42-11.66-13.1-2.36-1.09-4.22-1.88-5.71-2.52q-5.78-2.47-8.06-8.43c-.48-1.26-1.06-2.78-1.81-4.63-2.91-7.17-5.18-8.57-8.11-8.57-.62,0-1.26.06-1.94.13-.75.07-1.53.15-2.38.15-1.86,0-4.44-.31-7.98-2.76-2.71-1.87-3.84-3.57-3.38-5.05,1.82-5.83,27.27-8.02,32.33-8.02.12,0,.2,0,.25.01l.08-.32.15.31c3.32-1.68,5.13-3.83,6.87-5.92,2.32-2.77,4.51-5.39,10.07-7.16,1.98-.63,3.65-1.11,5-1.5,7.27-2.1,7.36-2.21,10.48-11.38l.39-1.16c.58-1.71.11-2.91-.3-3.98-.54-1.38-1-2.57.86-4.75.99-1.16,4.55-2.54,7.69-3.75,2.12-.82,4.12-1.59,5.19-2.24,1.66-1.01,2.79-2.38,3.88-3.71,1.42-1.72,2.76-3.35,5.17-4.21,1.63-.58,3.64-.88,5.97-.88,5.93,0,12.89,1.85,18.49,3.34,1.28.34,2.48.66,3.57.93,18.18,4.5,35.48,12.69,52.21,20.6l1.72.82c39.75,18.79,69.8,39.8,91.85,64.23,14.8,16.4,24.36,32.38,29.21,48.84,5.7,19.33,1.61,42.91-10.18,58.67Z"/>
  <path class="cls-5" d="M86.58,450.31c-.02-.07-.03-.12-.03-.12-.69-2.86-1.3-5.81-1.68-8.97-.2-1.63-.19-3.33-.18-4.97.02-4.98.05-9.68-5.46-12.08-3.11-1.36-6.54-1.68-9.85-2-1.91-.18-3.88-.37-5.77-.75-9.45-1.92-18.65-4.99-27.35-9.15-4.01-1.92-7.85-4.04-11.56-6.1-.54-.3-1.16-.69-1.81-1.11-2.11-1.34-4.74-3.02-7.04-3.02-.82,0-1.57.23-2.2.67-1.74,1.22-2.59,3.74-3.33,5.96-.19.57-.37,1.11-.56,1.6-.33.87-.96,2-1.68,3.31-1.63,2.96-3.66,6.66-2.96,8.79.71,2.15,3.61,3.37,5.94,4.35.54.23,1.06.45,1.5.66,4.09,1.94,7.63,3.93,10.83,6.09,5.32,3.59,19.3,11.43,29.2,16.83"/>
  <path class="cls-4" d="M.25,79.76s.02,0,.02.01c0,0,0,0,0,0H.28c6.45,3.86,12.04,8.1,16.96,11.83,5.17,3.92,10.5,7.96,15.5,10.52,1.9.97,7.51,2.79,11.44,2.79,1.36,0,2.37-.21,3.02-.63,1.39-.89,2.03-1.72,1.92-2.45-.28-1.79-4.87-3.07-8.23-4-1.53-.43-2.86-.8-3.64-1.16-8.79-4.08-17.38-8.79-25.69-13.35l-.92-.5c-3.52-1.92-6.97-3.82-10.38-5.63,0,0,0,0,0,0"/>
  <path class="cls-4" d="M.25,88.1h0s8.8,6.19,12.69,9.14c5.41,4.1,11,8.34,16.56,11.19,6.33,3.25,12.49,4.83,18.81,4.83,5.5,0,12.63-1.61,15.36-5.14,1.15-1.49,1.47-3.24.96-5.21-1.22-4.69-11.7-8.23-18.64-10.57-2.41-.81-4.48-1.51-5.77-2.11-8.57-3.98-17.06-8.63-25.26-13.13l-.91-.5c-4.69-2.58-9.28-5.09-13.8-7.43"/>
  <path class="cls-1" d="M.25,96.56c2.94,2.07,5.75,4.2,8.48,6.27,5.64,4.27,11.48,8.7,17.59,11.83,7.34,3.77,14.54,5.6,22.01,5.6,8.73,0,36.13-6.89,36.16-16.61.02-6.4-12.63-10.04-20.19-12.21-1.66-.48-3.1-.89-4.07-1.24-13.69-4.96-27.28-11.23-42.77-19.72-5.86-3.22-11.58-6.35-17.21-9.17H.25s0,.01,0,.01"/>
  <path class="cls-5" d="M.25,108.81s.01,0,.02.01H.27c.84.63,1.67,1.26,2.5,1.89,5.99,4.54,12.18,9.23,19.06,12.76,7.53,3.85,13.92,5.65,20.1,5.65s12.27-1.96,18.98-4.23c3.84-1.3,8.19-2.77,13.13-4.01,2.55-.64,4.76-.71,6.21-.71.96,0,1.88.03,2.77.07.83.04,1.62.07,2.39.07,3.9,0,7-.93,10.41-5.53,2.34-3.16,3.22-5.61,4-7.77,1.16-3.23,2.16-6.02,7.47-9.82,1.38-.98,3.31-1.74,5.18-2.48,2.68-1.05,5.22-2.05,5.31-3.44.07-1.13-1.55-2.61-4.81-4.38-4.15-2.25-10.13-2.55-15.43-2.55-2.38,0-4.89.07-7.32.14-2.45.08-4.98.15-7.4.15-5.43,0-9.25-.38-12.37-1.23-17.47-4.74-33.81-13.7-48.23-21.61-7.47-4.1-14.72-8.07-21.95-11.49,0,0-.01,0-.02,0"/>
  <path class="cls-5" d="M.25,122.11s0,0,.01,0H.26c5.16,3.86,10.58,7.66,16.73,10.81,10.17,5.21,20.72,7.85,31.37,7.85,18.69,0,38.23-7.83,61.48-24.65,16.96-12.28,24.16-20.8,22.64-26.81-1.94-7.67-17.62-9.73-35.78-12.1-4.49-.59-9.13-1.19-13.63-1.91-19.91-3.14-38.13-13.13-55.75-22.8-8.83-4.84-17.84-9.78-27.07-13.85H.25"/>
  <path class="cls-3" d="M.25,336.74c11.28-3.52,25.34-15.17,26.65-43.54,1.08-23.27,18.32-42.66,32.18-58.24,12.19-13.71,21.82-24.54,17.85-33.6-6.62-15.09-42.96-45.45-76.68-64.53"/>
  <path class="cls-5" d="M.25,326.45c6.41-2.02,15.63-9.21,16.77-33.7,1.2-26.1,19.13-46.6,33.53-63.07l1.13-1.29c16.8-19.24,16.17-25.91,8.39-33.58-8.77-8.65-22.59-21.65-41.29-34.62-6.28-4.36-18.33-11.93-18.53-11.93"/>
  <path class="cls-1" d="M.25,317.73c.77-.08,1.6-.44,2.48-1.09,4.43-3.3,6.78-10.99,7.39-24.21,1.31-28.5,20.12-50.01,35.23-67.29l1.13-1.29c3.16-3.62,5.72-6.82,7.61-9.52,2.3-3.28,6.57-9.39-3.56-19.17-11.11-10.72-23.11-20.58-35.67-29.29-5.06-3.52-9.93-6.68-14.58-9.53,0,0-.02-.01-.03-.01"/>
  <path class="cls-4" d="M.25,298.11c1.45-.69,2.73-2.7,2.88-6,1.42-30.95,21.12-53.48,36.95-71.58l1.13-1.29c1.81-1.91,5.98-6.99,5.65-13.11-.2-3.71-2.04-7.07-5.48-9.99-2.1-1.78-4.04-3.45-5.89-5.04-8.16-7.01-14.61-12.55-24.62-19.49-3.59-2.5-7.14-4.85-10.59-7.08H.28s-.02,0-.03-.01"/>
  <path class="cls-4" d="M.25,269.45c.21-.54,5.05-13.09,8.41-18.99,5.65-9.94,12.79-18.86,18.38-25.52.45-.54.9-1.07,1.36-1.61,6.35-7.48,12.93-15.21,5.52-24.38-5.82-7.2-14.64-13.16-22.41-18.42-1.61-1.1-3.14-2.13-4.64-3.17-1.01-.7-2.38-1.69-3.96-2.85-.81-.6-2.66-1.94-2.66-1.94"/>
  <path class="cls-1" d="M.25,252.3c.14-.37,1.55-3.94,2.32-5.3,2.7-4.76,6.2-9.07,9.59-13.24,4.86-5.98,9.88-12.16,12.58-19.73,4.7-13.22-4.58-19.36-14.4-25.87-.91-.61-1.83-1.22-2.75-1.84-1.64-1.11-3.19-2.15-4.71-3.21-.7-.49-1.58-1.11-2.61-1.87,0,0-.01,0-.02-.01"/>
  <path class="cls-1" d="M.25,237.76s4.32-5.73,6.5-8.42c4.69-5.77,9.12-11.22,11.41-17.66,2.53-7.11-.06-9.99-11.67-17.68-.94-.61-1.88-1.24-2.83-1.88-1.18-.8-2.3-1.56-3.41-2.32"/>
  <path class="cls-4" d="M.25,226.35s0-.01.01-.02c0,0,.73-1,1.06-1.4,4.83-5.96,8.77-11.3,7.98-16.49-.48-3.13-2.66-5.95-6.67-8.6-.79-.52-2.38-1.59-2.38-1.59,0,0,0,0,0,0"/>
  <path class="cls-3" d="M135.55,450.31s-.01-.04-.02-.06c-4.22-13.75-6.72-26.51,3.69-35.92,3.56-3.22,10.49-6.69,17.82-10.36,12.14-6.08,25.89-12.96,28.83-20.76,1.47-3.91,1.11-7.48-1.06-10.63-4.93-7.13-18.02-10.38-28.1-10.38-3.11,0-5.99.28-8.56.83-9.64,2.08-17.86,3.94-25.12,5.59-19.48,4.42-31.24,7.09-41.07,7.09-8.23,0-15.27-1.83-25.12-6.53-10.21-4.87-17.69-9.51-23.7-13.23-9.3-5.76-15.44-9.57-23.75-9.57-2.77,0-5.77.43-9.14,1.32"/>
  <path class="cls-1" d="M115.05,450.31s0-.03-.01-.04c-1.02-4.03-1.87-8.16-2.38-12.35-1.48-12.2-1.06-22.24,5.78-31.56.82-1.12,1.6-2.74,2.42-4.46,1.36-2.85,2.77-5.79,4.62-6.95,1.68-1.06,3.6-1.2,5.26-1.2.77,0,1.57.03,2.35.07.8.04,1.63.08,2.45.08,1.83,0,4.2-.17,6.34-1.5,5.55-3.44,7.41-7.38,6.78-9.58-.4-1.41-1.73-2.18-3.76-2.18-1.86,0-4.24.68-6.88,1.95-1.67.8-3.2,2.27-4.67,3.68-1.83,1.75-3.72,3.56-5.93,4.17-.69.19-1.37.28-2.07.28-1.4,0-2.69-.37-3.93-.73-1.24-.36-2.53-.73-3.93-.73-.49,0-.96.04-1.44.13-2.45.46-4.08,1.97-5.8,3.57-1.42,1.32-2.89,2.69-4.85,3.37-2.18.76-5.13,1.13-9.01,1.13-5.01,0-10.57-.62-15.03-1.13-1.28-.15-2.47-.28-3.53-.39-9.28-.93-18.94-3.84-29.51-8.89-11.18-5.33-19.17-10.28-25.59-14.26-3.46-2.15-6.99-3.23-10.5-3.23-4.54,0-8.57,1.75-11.98,4.44"/>
  <path class="cls-1" d="M93.78,450.31s-.02-.07-.02-.08c0,0-.4-1.6-.59-2.41-.04-.17-.08-.35-.12-.53-.14-.63-.29-1.26-.42-1.89-.07-.34-.13-.69-.19-1.04-.09-.48-.19-.95-.27-1.43-.14-.83-.26-1.67-.36-2.52-.38-3.13-.1-6.59.17-9.94.07-.86.21-1.74.36-2.66.47-2.87.95-5.84-.9-8.05-2.23-2.66-5.94-2.85-9.22-3.02l-.34-.02c-1.19-.06-2.54-.13-3.84-.25-14.31-1.36-26.63-4.69-38.76-10.49-3.82-1.83-7.57-3.9-11.19-5.91-1.99-1.1-4.05-2.24-6.09-3.32l-.14-.07c-2.36-1.26-4.81-2.56-7.29-2.56-1.28,0-2.45.35-3.55,1.07-3.99,2.6-5.93,7.69-7.8,12.62-.94,2.46-1.84,4.79-2.96,6.78,0,.01-.01.02-.02.03"/>
  <path class="cls-1" d="M.25,429.64h0c.73.37,1.53.7,2.41,1.05.42.16.85.34,1.3.53,6.45,2.72,11.38,5.29,15.51,8.07,5.28,3.56,11.25,7.23,17.75,10.93.05.03.11.06.17.09"/>
  <path class="cls-1" d="M101,450.31c-.01-.05-.02-.09-.02-.09-.46-1.74-.9-3.5-1.29-5.28s-.71-3.57-.93-5.38c-.29-2.42-.05-5.4.2-8.54.52-6.39,1.1-13.64-3.03-17.46-3.56-3.29-8.94-3.57-13.69-3.82-1.24-.06-2.41-.12-3.54-.23-13.47-1.28-25.04-4.41-36.41-9.84-9.77-4.67-17.34-8.93-23.82-13.4-1.72-1.19-3.48-1.79-5.22-1.79-3.98,0-7.74,3.15-10.05,8.42-.98,2.23-1.94,4.42-2.94,6.59,0,0,0,.02-.01.02"/>
  <path class="cls-1" d="M.25,437.26s0,0,.01,0c5.84,2.4,11.78,5.46,15.31,7.84.62.42,1.26.84,1.9,1.26.41.27.83.54,1.25.81.24.15.47.3.7.46.5.32,1.01.65,1.52.97.16.1.32.21.49.31.68.43,1.36.86,2.05,1.28h.03c.06.04.13.08.19.12"/>
  <path class="cls-5" d="M107.87,450.31c-.02-.08-.03-.13-.03-.13-.9-3.72-1.64-7.54-2.12-11.46-.96-7.91,0-14.87,1.17-21.9.98-5.89,1.22-10.91-5.65-12.68-4.42-1.13-9.18-1.21-13.79-1.28-2.68-.05-5.44-.09-8.09-.34-12.62-1.21-23.44-4.12-34.05-9.19-11.52-5.5-19.69-10.56-26.26-14.63-2.33-1.45-4.62-2.18-6.81-2.18-4.19,0-8.53,2.82-11.98,7.51,0,0,0,0-.01.01"/>
  <path class="cls-5" d="M.25,444.6c2.58,1.16,5.1,2.46,7.51,3.93.16.09.7.42,2.76,1.67,0,0,.08.05.19.12"/>
  <path class="cls-1" d="M78.6,450.31c.08-.17.13-.28.13-.28.72-2.17.45-5.15.26-7.16l-.03-.38c-.06-.69-.09-1.49-.13-2.33-.13-3.05-.29-6.84-1.99-8.71-1.69-1.87-4.54-2.09-7.05-2.29-.38-.03-.76-.06-1.12-.09-2.09-.2-4.24-.4-6.5-.86-10.02-2.03-19.77-5.29-29-9.7-.84-.4-1.91-1.06-3.15-1.81-3.15-1.92-7.46-4.54-10.7-4.54-1.94,0-3.26.93-4.05,2.83-1,2.43-.39,4.41,1.98,6.42,1.74,1.48,3.8,2.54,5.79,3.57,1.44.75,2.93,1.52,4.3,2.44,10.42,7.02,23.76,14.56,38.58,21.82l1.96.93c.09.04.19.1.28.14"/>
  <path class="cls-5" d="M125.24,450.31s-.02-.06-.02-.06c-4.17-14.58-6.39-30.82,7.37-43.26,4.56-4.12,11.73-7.71,20.03-11.87,5.65-2.83,13.24-9.72,12.79-15.31-.24-2.95-2.67-5.18-7.24-6.62-1.83-.58-3.84-.86-6.14-.86-6.05,0-12.91,2.02-18.96,3.8-2.79.82-5.42,1.59-7.83,2.14-20.16,4.58-32.33,7.34-43.27,7.34-9.72,0-18.24-2.17-29.39-7.5-10.69-5.11-18.42-9.9-24.64-13.75-9.06-5.61-13.28-8.09-18.55-8.09-2.5,0-5.52.58-9.14,1.74"/>
  <path class="cls-1" d="M255.98,450.31s0-.07.01-.1c.03-.62,0-1.19-.14-1.7-.48-1.8-2-2.71-4.49-2.71-1.34,0-2.97.27-4.85.8-1.27.36-2.53.75-3.75,1.15-2.2.73-4.13,1.56-5.86,2.47,0,0-.06.04-.14.09"/>
  <path class="cls-1" d="M178.64,450.31s.02-.06.02-.09c0,0,2.64-12.57,2.67-19.33.03-5.57-1.01-9.46-3.1-11.55-1.21-1.22-2.8-1.84-4.72-1.84-6.12,0-13.83,6.1-16.41,8.89-9.52,10.29-10.61,16.05-8.7,23.81,0,0,.01.05.03.12"/>
  <path class="cls-1" d="M169.7,450.31c.06-.07.11-.12.11-.12.04-.04.07-.08.11-.12,1.02-1.08,1.98-2.1,2.03-4.27.02-1.04-.52-1.74-1.1-2.48-.72-.93-1.47-1.9-1.2-3.59.13-.85.9-2.16,1.78-3.67,1.63-2.79,3.67-6.27,2.54-8.32-.62-1.12-2.17-1.74-4.61-1.83h-.15c-4.88,0-9.4,9.22-9.92,12.95-.38,2.73.57,4.18,1.68,5.85.72,1.09,1.47,2.23,1.91,3.83.18.63.32,1.68.32,1.68,0,.03,0,.05,0,.08"/>
  <path class="cls-4" d="M270.12,450.31c.04-.08.06-.13.06-.13,1.69-2.93,3.56-5.85,5.66-8.71.52-.71,1.06-1.43,1.6-2.14,3.04-4.03,6.19-8.19,5.07-10.44-.64-1.28-2.58-1.9-5.95-1.9-.9,0-1.91.05-3.01.14-9.58.79-19.68,2.72-30.86,5.88-1.49.42-2.97.87-4.38,1.34-10.01,3.33-17.02,8.41-21.61,15.83,0,0-.02.05-.06.13"/>
  <path class="cls-4" d="M278.29,450.31c.04-.07.06-.12.06-.12,1.02-1.54,2.05-3.07,3.15-4.58,2.23-3.03,5.21-6.03,8.66-9.5.74-.74,1.61-1.57,2.52-2.42,4.51-4.24,6.33-7.56,5.42-9.86-1.1-2.76-6.09-4.16-14.84-4.16-2.96,0-6.32.16-10.28.49-10.04.83-20.56,2.83-32.19,6.12-1.57.45-3.15.93-4.68,1.44-13.2,4.38-22.13,11.66-27.4,22.49h-.02s-.03.06-.04.09"/>
  <path class="cls-1" d="M286.74,450.31c.04-.07.07-.12.07-.12.1-.15.21-.29.31-.44,1.93-2.62,4.74-5.45,7.99-8.72.69-.68,1.5-1.45,2.36-2.26,5.07-4.76,12.72-11.95,9.57-18.66-2.87-6.12-14.62-7.4-23.98-7.4-3.31,0-6.9.16-10.66.47-10.48.87-21.44,2.95-33.51,6.36-1.69.48-3.36.99-4.98,1.53-16.45,5.46-27.11,14.86-32.9,29.14,0,0-.01.03-.03.09"/>
  <path class="cls-5" d="M295.71,450.31c.07-.07.11-.12.11-.12,1.25-1.31,2.67-2.75,4.19-4.28,7.6-7.64,17.05-17.15,16.13-25.26-.37-3.22-2.42-6.03-6.1-8.35-6.81-4.29-21.12-6.21-32.28-6.21-2.18,0-4.17.07-5.93.22-10.94.91-22.32,3.07-34.82,6.6-1.79.51-3.56,1.05-5.28,1.62-20.65,6.86-32.61,17.7-38.39,35.69,0,0,0,.03-.02.08"/>
  <path class="cls-3" d="M304.33,450.31c.05-.07.08-.12.08-.12,5.43-6.44,11.47-12.74,17.45-18.97,5.79-6.04,8.04-11.27,6.68-15.56-1.77-5.6-9.7-9.81-23.58-12.53-9.28-1.82-18.75-2.74-28.17-2.74-13.84,0-27.86,1.98-41.66,5.88-1.86.53-3.74,1.1-5.57,1.71-23.6,7.83-37.26,20.87-43.43,42.23,0,0,0,.04-.02.09"/>
  <path class="cls-4" d="M262.96,450.31c.02-.07.03-.12.03-.12.51-1.72,1.01-3.27,1.43-4.6,1.79-5.55,2.6-8.08.38-9.03-.44-.19-1.15-.29-2.1-.29-5.75,0-18.01,3.44-18.13,3.48-1.37.39-2.74.81-4.06,1.25-6.63,2.21-11.57,5.14-15.19,9.21,0,0-.02.04-.06.09"/>
  <path class="cls-5" d="M450.25,136.83s-.03-.02-.05-.03c-4.22-2.23-34.56-16.88-46.13-16.88-1.17,0-2.29.07-3.33.21-17.79,2.42-42.8,31.04-48.48,47.05-4.97,14.04,1.86,28.72,8.47,42.93,4.57,9.81,9.29,19.96,10.05,29.78.97,12.45-12.99,42.53-19.9,55.15-1.48,2.7-1.93,4.59-1.33,5.59.45.75,1.54,1.12,3.32,1.12,3.04,0,7.76-1.07,13.22-2.32,7.99-1.82,17.94-4.09,27.4-4.09s17.07,2.35,22.55,7.18h.21s.01.2.01.2c4.76,4.41,7.22,10.67,9.59,16.72,2.75,7.01,5.34,13.64,11.22,17.39,1.16.74,3.16,1.16,5.5,1.16,2.22,0,7.63-1.25,7.63-1.25.02,0,.03-.01.05-.02"/>
  <path class="cls-1" d="M450.25,347.68c-2.29.6-4.74,1.41-7.43,2.45-9.99,5.06-15.37,17.32-20.57,29.18-2.49,5.68-4.84,11.04-7.6,15.33-16.37,25.46-34.26,29.67-54.98,34.54-10.32,2.43-20.98,4.93-32.77,10.19-7.38,3.29-12.36,7.04-14.51,10.85-.02.03-.03.06-.05.09"/>
  <path class="cls-4" d="M450.25,358c-1.05.25-2.14.56-3.35,1.17-6.59,3.64-11.37,14.51-15.58,24.11-2.66,6.06-5.16,11.76-8.35,16.72-18.54,28.84-39.19,33.69-61.04,38.83-1.66.39-3.4.76-5.09,1.12-7.2,1.53-14.65,3.12-20.68,7.03-1.7,1.1-3.02,2.18-3.99,3.23-.03.03-.06.07-.09.1"/>
  <path class="cls-4" d="M450.25,373.98c-4.39,3.46-7.74,8.47-9.86,13.28-2.81,6.41-5.47,12.46-9.08,18.08-5.45,8.48-11.58,15.73-18.22,21.55-.85.74-2.68,1.88-4.8,3.21-5.33,3.33-13.39,8.37-13.04,11.76.23,2.26,3.87,3.4,10.82,3.4,2.8,0,5.62-.18,7.68-.31,1.22-.08,2.19-.14,2.76-.14,10.85,0,20.47,1.78,29.16,5.4.06.03.13.07.2.1h4.38"/>
  <path class="cls-1" d="M450.25,384.02s-.02.03-.03.04c-1.29,1.76-2.45,3.77-3.44,6.01-2.93,6.67-5.69,12.97-9.6,19.05-4.4,6.86-9.61,13.44-13.65,18.41-.22.28-.47.56-.72.86-1.73,2.04-3.89,4.57-2.42,7.03,1.45,2.43,5.74,2.93,8.87,3.3.57.07,1.12.13,1.58.2,6.75,1.02,13.14,2.91,19.13,5.57,0,0,.11.05.28.14"/>
  <path class="cls-1" d="M450.25,399.52c-2.09,4.53-4.31,8.96-7.16,13.39-.86,1.35-2.11,2.85-3.43,4.43-3.21,3.85-6.84,8.2-6.67,12.31.12,3.01,3.01,3.51,5.81,4,.67.11,1.31.22,1.91.37,2.82.68,6.16,1.84,9.54,3.23"/>
  <path class="cls-5" d="M450.25,414.58s-.03.06-.05.09v-.04c-.09.18-.18.36-.28.52l-.3.49c-1.59,2.6-3.38,5.54-2.96,8.69.41,3,1.71,4.31,3.59,5.28"/>
  <path class="cls-1" d="M450.25,198.28s-.01,0-.01,0c-.17-.12-.34-.23-.52-.35-1.68-1.14-3.26-2.21-4.82-3.29-1.16-.81-2.73-1.95-4.37-3.15-2.36-1.72-4.63-3.58-7.04-5.54-.56-.46-1.16-.96-1.79-1.5-3.99-3.39-9.46-8.03-14.43-8.03-1.34,0-2.58.35-3.7,1.04-8.56,5.29-3.35,18.1-.23,25.76.39.94.75,1.83,1.05,2.62,2.06,5.39,4.19,10.97,5.73,16.85.29,1.11.57,2.41.88,3.78,1.38,6.23,3.28,14.77,7.99,17.8.76.48,1.55.79,2.36.9.25.03.49.05.74.05,5.72,0,11.54-8.85,15.78-15.32.88-1.34,2.38-3.5,2.38-3.5"/>
  <path class="cls-1" d="M450.25,189.82s-.03-.02-.03-.02c-.45-.31-.9-.62-1.35-.93-1.1-.76-2.57-1.83-4.24-3.05-2.21-1.61-4.42-3.41-6.75-5.32-7.09-5.79-15.12-12.35-22.27-12.35-1.39,0-2.72.25-4.05.75-12.59,4.76-10.77,18.14-8.56,25.69,1.37,4.66,3.13,9.27,4.84,13.74,2,5.22,4.06,10.61,5.5,16.12.87,3.33,1.31,6.83,1.73,10.21,1.33,10.66,2.47,19.86,16.01,19.86,1.08,0,2.25-.06,3.47-.18,1.55-.15,2.82-.39,3.9-.74,3.55-1.14,4.62-3.32,6.25-6.62.51-1.02,1.08-2.18,1.79-3.43,1.15-2.03,2.42-3.95,3.73-5.8,0,0,.02-.02.03-.04"/>
  <path class="cls-1" d="M450.25,181.25s-.01,0-.02-.01c0,0-.93-.67-1.46-1.06-2.05-1.5-4.19-3.24-6.45-5.09-7.99-6.53-17.05-13.93-26.7-13.93-2.23,0-4.42.4-6.53,1.2-6.76,2.55-12.1,7.6-14.65,13.85-2.35,5.77-2.15,12.17.56,18,5.98,12.84,12.16,26.13,13.45,42.77.15,1.94-.07,4.07-.28,6.12-.54,5.25-1.06,10.21,3.88,12.92,2.23,1.22,5.33,1.75,8.33,2.26,2.25.39,4.58.78,6.49,1.47,1.2.43,2.52,1.08,3.92,1.77,2.84,1.4,6.06,2.99,8.95,2.99.55,0,1.08-.06,1.57-.17.13-.03.26-.06.39-.1,4.28-1.28,6.52-6.92,8.5-11.9,0,0,.02-.05.05-.12"/>
  <path class="cls-4" d="M450.25,172.56c-10.9-7.9-29.84-21-42.16-21-3.21,0-5.81.91-7.72,2.7-.87.82-1.76,1.64-2.65,2.46-4.94,4.56-10.06,9.28-13.47,15.04-4.54,7.66-1.36,13.88,2.31,21.09.7,1.39,1.44,2.82,2.12,4.29,5.72,12.3,11.63,25.01,12.82,40.38.2,2.52-.35,5.54-.87,8.45-1.2,6.66-2.44,13.56,4.89,15.4,2.04.51,4.04.97,5.97,1.42,10.5,2.43,19.56,4.53,28.65,12.76l.18.16c2.32,2.1,4.03,2.96,5.33,2.66,1.8-.42,2.74-3.08,3.79-6.52.26-.84.53-1.69.81-2.53"/>
  <path class="cls-1" d="M450.25,164.54s-.01,0-.01,0c-14.52-9.33-27.54-16.13-36.74-19.09-1.41-.45-3.62-.99-6.18-.99-4.48,0-8.45,1.59-11.78,4.72-5.24,4.93-17.78,17.34-20.85,25.99-1.72,4.86,3.24,15.53,7.62,24.94,5.45,11.73,11.1,23.86,12.19,37.97.65,8.33-1.08,15.95-2.47,22.07-.14.79.02,3.35,1.29,5.02.53.69,1.54,1.64,4.09,1.85,10.03.82,25.2,2.06,38.03,13.75l.15.13c4.39,4.01,7.96,9.08,10.6,15.08.68,1.53,1.76,2.41,2.96,2.41.36,0,.72-.11,1.07-.27,0,0,.02-.01.03-.02"/>
  <path class="cls-5" d="M450.25,156s-.02-.02-.02-.02c-21.83-13.34-38.68-19.53-46.15-19.53-.53,0-.89.03-1.1.06-8.99,1.23-30.68,23.57-35.16,36.22-2.72,7.68,2.43,18.74,7.88,30.46,5.18,11.14,10.54,22.65,11.53,35.45.49,6.27-.27,12.79-2.32,19.92-2.26,7.93-2.48,12.41-.72,14.94,1.86,2.67,5.79,2.97,11.22,3.39.59.05,1.2.09,1.82.14,1.72.14,3.52.2,5.42.27,8.84.3,18.86.65,27.91,8.89l.11.1c5.02,4.39,8,12.13,10.64,18.96,2.65,6.88,4.95,12.82,8.59,12.82.11,0,.34-.04.34-.04,0,0,0,0,0,0"/>
  <path class="cls-3" d="M450.25,148.29s-.02-.01-.02-.01c-19.37-11.48-36.46-18.43-46.16-18.43-.72,0-1.39.04-1.99.12-12.45,1.7-35.45,26.35-40.49,40.55-3.62,10.22,2.08,22.47,8.12,35.44,4.94,10.61,10.04,21.58,10.94,33.19.52,6.63-4.81,28.16-11.17,45.17-.31.84-.3,1.47.02,1.94.59.85,2.31,1.25,5.41,1.25,2.09,0,4.6-.17,7.5-.36,3.62-.24,7.71-.51,11.95-.51,13.51,0,22.64,2.89,28.73,9.09,5.66,4.36,8.77,11.43,11.52,17.67,3.24,7.36,6.03,13.71,12.01,13.71.63,0,1.31-.08,2-.22.5-.11,1.6-.44,1.6-.44.01,0,.02,0,.03-.01"/>
  <path class="cls-1" d="M442.42.22c2.64.86,5.09,1.75,7.21,2.64.21.11.41.22.62.33"/>
  <path class="cls-2" d="M450.25,77.2s-.02-.01-.03-.02c-9.03-4.79-17.66-8.94-25.83-11.27-2.96-.85-6.27-1.26-10.12-1.26-7.19,0-15.55,1.43-24.41,2.94-11.27,1.92-22.91,3.91-35.89,3.91-.95,0-1.89-.01-2.83-.03l-2.2-.06c-1.81-.05-3.52-.1-5.13-.1-13.55,0-14.2,7.14-14.94,15.4-.41,4.53-.83,9.22-3.36,13.25-.93,1.48-3.22,3.2-5.87,5.19-5.15,3.86-10.99,8.25-8.36,12.1,1.81,2.64,4.03,3.21,6.85,1.76,4.62-2.38,9.84-9.85,13.66-15.3,2.44-3.48,4.36-6.22,5.54-6.93,1.25-.74,2.61-.84,3.77-.84.43,0,.87.01,1.3.03.43.01.87.03,1.3.03,1.54,0,3.17-.18,4.62-1.5,1.75-1.6,1.97-3.64,2.2-5.8.21-1.93.42-3.93,1.81-5.59,4-4.79,17.23-7.94,26.89-10.24,2.66-.63,4.96-1.18,6.66-1.67,7.92-2.27,15.78-3.42,23.36-3.42,16.71,0,30.08,5.43,41,11.95,0,0,0,0,.01,0"/>
  <path class="cls-3" d="M450.25,69.14c-8.19-4.24-16.12-7.87-23.87-10.07-3.61-1.03-7.55-1.53-12.07-1.53-7.79,0-16.45,1.48-25.61,3.04-10.97,1.87-22.32,3.81-34.69,3.81-.92,0-1.81-.01-2.67-.03-.74-.02-1.47-.04-2.18-.06-1.86-.05-3.62-.1-5.32-.1-10.51,0-17.01,2.14-21.29,13.41-2.76,7.27-5.89,15.51-13.43,20.85-2.12,1.5-4.24,2.78-6.11,3.91-4.25,2.57-7.6,4.59-7.72,7.28-.11,2.5,2.5,5.57,8.46,9.95,5.76,4.22,10.48,6.27,14.43,6.27.35,0,.7-.02,1.05-.05,5.71-.53,9.59-5.32,14.51-11.37,2.26-2.78,4.82-5.93,7.83-8.94,13.02-13.02,29.03-22.52,46.28-27.47,7.28-2.09,14.48-3.15,21.4-3.15,17,0,30.12,6.11,40.98,13.19,0,0,.02.01.02.02"/>
  <path class="cls-5" d="M450.25,61.29s-.01,0-.02-.01c-7.42-3.71-14.68-6.88-21.95-8.95-4.24-1.21-8.81-1.8-13.99-1.8-8.38,0-17.31,1.53-26.77,3.14-10.7,1.83-21.75,3.71-33.53,3.71-.85,0-1.69,0-2.5-.03-4.1-.1-7.58-.77-10.64-1.37-2.63-.51-4.89-.95-7.05-.95-5.08,0-8.82,2.69-12.93,9.3-1.99,3.21-3.46,7.06-4.87,10.78-2.53,6.65-5.14,13.53-10.95,17.63-2.01,1.43-5.81,2.51-9.84,3.66-6.91,1.97-14.74,4.2-15.78,8.75-1.29,5.72,10.75,13.74,17.22,18.05,1.21.81,2.27,1.51,2.96,2.02,7.61,5.58,13.89,9.3,19.83,9.3.81,0,1.61-.07,2.39-.21,4.72-.84,9.02-4.2,13.53-10.56,13.44-18.94,32.76-32.79,54.42-39,6.66-1.91,13.21-2.88,19.47-2.88,17.25,0,30.02,6.92,41,14.66"/>
  <path class="cls-1" d="M450.25,50.3s-.03-.01-.03-.01c-6.37-3.01-12.73-5.6-19.21-7.45-5.14-1.47-10.6-2.18-16.71-2.18-1.31,0-2.59-.01-3.85-.02-1.21-.01-2.39-.02-3.56-.02-6.77,0-12.15.36-18.08,2.16-3.08.93-5.99,2.42-8.81,3.85-4.57,2.33-9.31,4.74-14.78,4.74-.91,0-1.84-.07-2.75-.2-4.08-.59-7.09-2.96-10-5.25-3.15-2.47-6.12-4.81-10.2-4.81-.37,0-.75.02-1.13.06-2.52.26-6.87,2.71-10.7,4.86-2.63,1.48-5.12,2.88-6.91,3.54-2.58.95-4.5,1.41-5.91,1.74-3.96.94-4.38,1.04-6.41,8.75-.57,2.13-.97,4.12-1.37,6.05-1.49,7.28-2.67,13.04-10.48,18.57-5.25,3.71-11.9,5.51-20.32,5.51s-16.93-1.73-24.55-3.26c-3.96-.8-7.71-1.55-10.47-1.84-1.6-.17-4.08-.27-6.62-.27-7.9,0-15.55,2.92-16.05,6.12-.36,2.3,2.91,4.69,9.21,6.7l.94.3c32.15,10.31,54.58,23.77,77.4,46.45,6.18,6.14,10.86,9,14.74,9,.89,0,1.75-.15,2.57-.46,4.1-1.53,7.17-6.84,10.73-13,1.87-3.23,3.98-6.9,6.49-10.43,12.14-17.11,29.57-29.62,49.07-35.21,5.77-1.65,11.4-2.49,16.74-2.49,17.29,0,29.48,8.36,41,17.03,0,0,0,0,.01,0"/>
  <path class="cls-3" d="M450.25,39.37s-.02,0-.02,0c-5.44-2.4-10.94-4.51-16.52-6.1-6.03-1.72-12.39-2.56-19.43-2.56-10.06,0-20.25,1.74-30.11,3.42-9.88,1.69-20.09,3.43-30.19,3.43h-.01c-.68,0-1.35,0-2.03-.02-4.7-.11-11.92-2.91-19.57-5.88-8.78-3.41-17.86-6.93-24.31-6.93-2.11,0-3.84.4-5.13,1.18-10.78,6.5-8.1,16.47-5.51,26.11,2.43,9.02,4.94,18.35-3.81,24.54-3.51,2.48-8.28,3.69-14.59,3.69-7.3,0-15.43-1.62-22.6-3.06-4.19-.83-8.15-1.63-11.36-1.97-1.58-.17-5.81-.56-11.04-.56-9.57,0-21.82,1.27-25.85,7.3-1.69,2.53-1.74,5.75-.16,9.56.69,1.66,2.53,2.59,4.47,3.57,1.63.82,3.32,1.68,4.31,3.03,1.13,1.54,1.78,3.62,2.4,5.63.77,2.51,1.58,5.1,3.31,6.56,2.22,1.86,4.65,2.73,7.66,2.73,2.14,0,4.37-.43,6.52-.86,2.19-.43,4.46-.88,6.68-.88s4.09.43,5.83,1.33c4.15,2.14,5.87,4.98,7.54,7.73,2.02,3.35,3.94,6.51,10.22,7.98,13.91,3.25,17.71,6.64,26.9,14.84,1.17,1.05,2.43,2.17,3.81,3.38,3.33,2.92,5.77,6.23,8.13,9.43,2.07,2.81,4.21,5.71,6.94,8.34,3.32,3.2,6.48,4.64,9.54,6.03,4.24,1.94,8.26,3.76,11.92,10.05l.56.96c2.51,4.34,8.4,14.52,11.15,14.52.25,0,.45-.09.63-.29.59-.63,1.17-2.6.65-8.36-.24-2.65-2.24-5.13-4.18-7.53-2.14-2.66-4.36-5.41-4.23-8.46.16-3.66,2.4-5.49,4.57-7.25,1.5-1.23,3.06-2.49,3.94-4.39,2.24-4.8,2.78-9.14,3.31-13.34.76-6.02,1.47-11.7,6.9-18.18,9.57-11.42,22.98-20.04,37.77-24.28,4.95-1.42,9.53-2.11,14.01-2.11,15.21,0,26.05,8.21,37.52,16.91,1.14.86,2.3,1.73,3.46,2.6"/>
  <path class="cls-5" d="M332.07.22c-.09.09-.18.17-.27.26-1.55,1.75-2.1,3.42-1.63,5.01,1.44,4.86,12.25,7.84,19.37,7.84,10.12,0,20.75-1.99,32-4.11,11.41-2.14,23.21-4.36,34.71-4.36,12.65,0,23.31,2.66,32.5,8.29.49.3,1,.6,1.5.9"/>
  <path class="cls-3" d="M312.21.22c-.04.07-.07.13-.07.13-.7,1.23-1.1,2.47-1.19,3.7-.27,3.85,2.49,7.63,8.21,11.22,8.51,5.35,18.45,7.95,30.38,7.95,11.04,0,22.62-2.17,33.83-4.28,10.96-2.06,22.3-4.19,32.88-4.19s19.75,2.24,27.37,6.86c1.31.8,5.16,3.55,6.01,4.23.2.16.42.32.62.48"/>
  <path class="cls-1" d="M236.91.22s0,0,0,0c0,0-5.8,3.84-7.65,6.43-3.4,4.76-4.79,9.13-3.62,11.39.86,1.67,3.09,2.3,6.55,1.83,2.95-.4,5.7-.56,8.12-.7.71-.04,1.34-.15,1.96-.32.69-.19,1.33-.47,1.97-.84,5.18-3.03,11.53-12.26,11.76-17.79"/>
  <path class="cls-4" d="M216.69.22c-.15.32-4.36,9.05-5.46,14.65l-.16.78c-.99,4.95-2.84,14.15.84,18.18,1.51,1.66,3.85,2.46,7.16,2.46s7.1-.83,10.4-1.56c1.71-.38,3.32-.74,4.61-.91,2.43-.32,4.78-.46,7.06-.59,4.69-.27,9.12-.53,12.61-2.51,2.8-1.59,4.84-4.22,6.24-8.03,2.51-6.8,9.87-21.84,10.17-22.47"/>
  <path class="cls-4" d="M208.72.22s0,0,0,0h-.02c-1.92,3.95-3.37,8.37-4.35,13.31-1.4,7.08-4,20.26.83,26.13,2.12,2.58,5.52,3.5,10.09,2.73,7.96-1.34,16.49-2.12,25.33-2.34,2.06-.05,4.05,0,5.94.05,1.27.03,2.46.06,3.63.06,3.54,0,7.21-.27,10.02-2.24,2.32-1.63,3.98-4.35,5.07-8.31,2.96-10.79,12.85-28.96,13.08-29.39"/>
  <path class="cls-1" d="M201.01.22s0,0,0,0c0,0-2.68,7.63-3.53,11.95-1.32,6.71-2.6,16.69-1.16,26.11,1.51,9.86,5.83,11.88,11.86,11.88,2.12,0,4.59-.27,8.25-.88,9.35-1.57,18.63-2.3,29.2-2.3,2.66,0,5.38.05,8.34.14,1.02.03,1.91.05,2.72.05,4.82,0,7.62-.57,9.67-1.99,2.44-1.68,3.9-4.67,4.87-9.99,2.23-12.27,15.31-34.54,15.56-34.97"/>
  <path class="cls-5" d="M193.33.22s0,0,0,.01c0,0-2.95,11.61-3.63,18.5-.13,1.24-.26,2.5-.4,3.77-1.01,9.44-2.17,20.15,1.96,29.04,1.98,4.26,5.97,6.33,12.21,6.33,3.3,0,6.69-.55,9.68-1.04l.11-.02c1.45-.24,2.89-.48,4.32-.72,8.52-1.43,16.58-2.78,25.05-2.78,2.69,0,5.22.13,7.75.41,3.36.37,6.92,1.47,10.37,2.54,3.79,1.17,7.38,2.28,10.29,2.28,2.09,0,3.64-.58,4.72-1.79,1.7-1.9,2.35-5.37,1.97-10.61-.97-13.48,3.92-27.32,14.95-42.31.77-1.05,2.93-3.41,3.11-3.61"/>
  <path class="cls-3" d="M186.13.22s0,0,0,0c0,0-2.65,11.32-3.27,17.83-1.1,11.23-2.08,25.94.22,40.1,1.61,9.97,4.78,14.42,10.26,14.42,3.62,0,7.94-1.8,12.93-3.88,3.53-1.47,7.19-3,11.12-4.11.38-.11.75-.21,1.13-.31,11.16-2.99,23.74-3.42,37.08-1.26,3.59.58,7.21,1.58,10.71,2.55,5.04,1.39,10.25,2.83,15.5,3.06,2.72.12,4.73-.16,6.06-.82,3.68-1.83,1.82-6.6-.34-12.13-1.32-3.36-2.67-6.84-2.9-10.02-1.17-16.27,19.46-45,19.76-45.43"/>
  <path class="cls-4" d="M225.33.22s0,0,0,0c0,0-5.91,9.27-7.24,16.02l-.16.8c-.98,4.91-.78,8,.64,9.73.96,1.17,2.5,1.74,4.71,1.74,1.32,0,2.85-.19,4.68-.6,1.85-.41,3.6-.8,5.19-1.01,2.69-.37,5.29-.52,7.58-.65,2.6-.15,4.91-.84,7.1-2.12,9.21-5.39,13.07-16.43,14.3-20.93.28-1.03.83-2.87.86-2.98"/>
  <path class="cls-1" d="M163.21.22s0,.02,0,.03h0c.17,1.86-.47,2.85-1.19,3.95-.61.91-1.3,1.95-1.58,3.73-.37,2.41.45,3.74,1.32,5.15.65,1.05,1.32,2.14,1.61,3.75,1.41,7.86-2.28,22.39-5.48,29.86-3.34,7.79-8.28,12.92-13.05,17.88-3.03,3.15-4.25,6.02-3.63,8.53,1.31,5.26,10.41,8.27,17.06,10.46.56.19,1.1.36,1.62.54,1.85.62,3.71,1.43,5.5,2.21,3.07,1.34,6.25,2.72,9.55,3.24,4.55.72,7.39.51,8.45-.61.37-.39.53-.88.49-1.51-.16-2.81-4.22-7.44-8.14-11.92-3.07-3.5-5.97-6.81-6.71-8.96-3.56-10.36-4.72-22.32-3.44-35.55.21-2.18.65-4.41,1.07-6.57.51-2.62,1.05-5.32,1.17-7.93.08-1.66-.12-3.35-.31-4.99-.34-2.94-.69-5.98.55-8.9.44-1.02,1.07-1.72,1.7-2.39"/>
  <path class="cls-1" d="M22.7.22c.26.16.52.33.78.49h.03c9.68,6,20.96,12.18,33.12,18.12l1.93.95c.64.31,1.34.66,2.1,1.04,7.82,3.9,22.37,11.16,32.54,11.16,1,0,1.95-.07,2.82-.21,5.85-.95,8.72-5.16,8.52-12.52-.15-5.69-1.62-11.21-3.04-16.54-.18-.66-.52-1.98-.52-1.98-.04-.17-.09-.34-.13-.51"/>
  <path class="cls-5" d="M9.71.22c.24.15.5.31.81.49,0,0,.87.53,1.4.85,12.59,7.66,26.86,16.34,41.63,23.59l1.93.94c11.5,5.65,27.25,13.39,40.68,13.39,1.27,0,2.52-.07,3.71-.21.48-.05.97-.13,1.46-.24,4.76-1.03,9.27-4.32,11.5-8.37,2.67-4.86,1.02-9.89-.58-14.75-.15-.46-.3-.92-.45-1.38-1.42-4.41-3.96-13.83-3.96-13.83-.04-.16-.07-.32-.11-.48"/>
  <path class="cls-1" d="M.25,2.85c1.31.68,2.61,1.4,3.88,2.17l4.15,2.52c22.51,13.69,64.39,39.17,93.24,39.17,2.73,0,5.26-.24,7.52-.72,5.04-1.07,8.65-3.41,10.7-6.96,4.15-7.16,1.49-18-1.28-26.64-1.21-3.76-2.4-7.6-3.42-11.61-.05-.19-.09-.38-.14-.56"/>
  <path class="cls-5" d="M.25,13.78c1.13.85,2.89,2.22,2.89,2.22,23.34,14.19,66.76,40.61,98.38,40.61,3.42,0,6.65-.32,9.58-.94,3.46-.73,6.63-1.93,9.42-3.54,17.01-9.83,14.22-21.43,7.37-42.77-.89-2.76-2.67-8.6-2.67-8.6-.05-.18-.1-.36-.15-.54"/>
  <path class="cls-3" d="M.25,25.83c26.06,15.84,67.85,40.68,101.26,40.68,4.12,0,8.04-.39,11.65-1.16,4.47-.95,8.62-2.51,12.31-4.65,24.71-14.29,18.17-34.66,11.84-54.37-.6-1.89-1.22-3.71-1.78-5.57-.06-.18-.11-.36-.16-.54"/>
  <path class="cls-1" d="M66.9.22l.98.46c.24.12.49.25.77.39,1.83.93,4.34,2.2,6.49,2.2.85,0,1.58-.21,2.17-.61.05-.03.1-.06.14-.1.62-.49,1.28-2.02,1.28-2.02.03-.1.06-.22.09-.33"/>
  <path class="cls-5" d="M51.48.22c5.52,3.02,9.98,5.4,11.33,6.06l4.1,2.02c.77.39,1.76.91,3.06,1.61,2.67,1.44,10.79,5.79,15.67,5.79,1.15,0,2.04-.25,2.65-.74,1.22-.98,1.38-2.97.48-5.93-.32-1.04-.6-1.97-.8-2.72-.49-1.83-1.42-5.6-1.42-5.6-.04-.16-.07-.33-.11-.49"/>
  <path class="cls-1" d="M36.33.22c.3.17.59.34.89.51,6.96,3.96,14.54,7.94,22.51,11.85l1.93.95c.5.24,1.04.51,1.62.8l.51.25c.74.37,1.73.9,2.87,1.51,5.89,3.16,16.86,9.04,24.16,9.04.85,0,1.63-.08,2.33-.24,1.73-.39,3.04-1.28,3.89-2.63,2.08-3.32-.12-10.51-1.57-15.27-.29-.97-.55-1.8-.73-2.48-.32-1.17-.9-3.47-.98-3.77,0,0-.05-.21-.13-.52"/>
  <path class="cls-1" d="M148.41.22c.58,2.36,1.44,4.9,2.42,7.81.67,1.97,1.42,4.2,2.17,6.62,3.09,10,2.6,19.87-1.46,29.33-2.85,6.63-7.15,11.1-11.7,15.83-2.31,2.41-4.7,4.89-6.93,7.72-1.74,2.2-2.28,4.45-1.62,6.67,2.08,6.98,15.5,12.8,26.4,16.45,10.02,3.36,23.56,6.75,31.24,6.75,2.2,0,3.78-.28,4.71-.83,2.01-1.2,3.07-2.49,3.23-3.93.35-3.14-3.57-6.88-8.11-11.21-5.1-4.86-10.89-10.37-13.21-17.12-5.71-16.6-3.5-33.71-.94-46.76.77-3.92,1.72-7.75,2.64-11.46.49-1.97.97-3.91,1.41-5.85h0s0-.02,0-.02"/>
</svg>