<?xml version="1.0" encoding="utf-8"?>
<!-- Generator: Adobe Illustrator 28.3.0, SVG Export Plug-In . SVG Version: 6.00 Build 0)  -->
<svg version="1.1" xmlns="http://www.w3.org/2000/svg" xmlns:xlink="http://www.w3.org/1999/xlink" x="0px" y="0px"
	 viewBox="0 0 150 150" style="enable-background:new 0 0 150 150;" xml:space="preserve">
<style type="text/css">
	.st0{fill:#EB2329;stroke:#FFFFFF;stroke-width:5;stroke-miterlimit:10;}
	.st1{fill:#FFFFFF;}
	.st2{fill:none;stroke:#F1F2F2;stroke-width:5;stroke-miterlimit:10;}
	.st3{fill:#F0EFEF;}
	.st4{fill:none;stroke:#FABAA4;}
	.st5{fill:#FFFFFF;stroke:#EB2329;stroke-miterlimit:10;}
	.st6{fill:#EB2329;stroke:#EB2329;stroke-width:1.0194;stroke-miterlimit:10;}
	.st7{fill:none;stroke:#FFFFFF;}
	.st8{fill:#EB2329;}
	.st9{fill:none;stroke:#F05B43;stroke-miterlimit:10;}
	.st10{fill:#808285;}
	.st11{fill:#58595B;}
	.st12{filter:url(#Adobe_OpacityMaskFilter);}
	.st13{mask:url(#SVGID_1_);fill:#FFFFFF;stroke:#EB2329;stroke-width:0.75;stroke-miterlimit:10;}
	.st14{fill:#F8B4B6;}
	.st15{fill:#191919;}
</style>
<g id="Misc">
</g>
<g id="Resume">
	<path class="st15" d="M75,0C33.58,0,0,33.58,0,75c0,41.42,33.58,75,75,75s75-33.58,75-75C150,33.58,116.42,0,75,0z M102.68,117.34
		c-0.31,1.92-0.78,3.6-1.42,5.02c-0.65,1.42-1.47,2.56-2.46,3.42c-1,0.86-2.15,1.38-3.44,1.57c-2.26,0.33-4.56,0.12-6.92-0.63
		c-2.35-0.75-4.75-1.75-7.2-3.03c-2.44-1.27-4.94-2.68-7.47-4.22c-2.53-1.54-5.1-2.94-7.72-4.18c-2.62-1.25-5.28-2.22-7.99-2.91
		c-2.71-0.69-5.47-0.84-8.29-0.43c-0.37,0.05-1.78,0.29-2.17,0.41l15.76-76.24l14.21-1.88l-4.69,22.19h0.75c2,0,3.84-0.53,5.51-1.59
		c1.67-1.06,3.11-2.41,4.32-4.03c1.2-1.62,2.14-3.42,2.81-5.39c0.67-1.97,1.01-3.88,1.01-5.72c0-1.34-0.21-2.63-0.61-3.85
		c-0.4-1.22-1.03-2.29-1.88-3.21c-0.84-0.92-1.93-1.66-3.26-2.2c-1.33-0.55-2.93-0.82-4.81-0.82c-3.91,0-7.45,0.53-10.62,1.59
		c-3.17,1.06-5.9,2.6-8.19,4.62c-2.28,2.02-4.04,4.46-5.28,7.34c-1.24,2.88-1.85,6.15-1.85,9.8c0,1.22,0.07,2.21,0.21,2.98
		c0.14,0.77,0.29,1.38,0.45,1.83c0.16,0.45,0.3,0.8,0.45,1.06c0.14,0.25,0.21,0.47,0.21,0.66c-1.66,0-3.13-0.16-4.41-0.49
		c-1.28-0.33-2.35-0.85-3.21-1.57c-0.86-0.72-1.52-1.67-1.97-2.86c-0.45-1.19-0.68-2.66-0.68-4.41c0-2.13,0.46-4.22,1.38-6.29
		c0.92-2.06,2.19-4.02,3.8-5.86c1.61-1.85,3.5-3.55,5.68-5.11c2.18-1.57,4.5-2.91,6.99-4.06c2.49-1.14,5.08-2.03,7.79-2.67
		c2.7-0.64,5.4-0.96,8.09-0.96c3.78,0,7.04,0.43,9.78,1.29c2.74,0.86,5,2.01,6.78,3.45c1.78,1.44,3.1,3.08,3.96,4.93
		c0.86,1.85,1.29,3.75,1.29,5.72c0,1.47-0.23,2.96-0.68,4.48c-0.45,1.52-1.13,3-2.02,4.43c-0.89,1.44-1.98,2.81-3.26,4.1
		s-2.75,2.43-4.41,3.4c1.25,0.38,2.3,0.87,3.17,1.48c0.86,0.61,1.54,1.33,2.04,2.16c0.5,0.83,0.86,1.75,1.08,2.77
		c0.22,1.01,0.33,2.09,0.33,3.21c0,2-0.24,4.1-0.73,6.31c-0.49,2.2-1.03,4.39-1.62,6.54c-0.59,2.16-1.13,4.22-1.62,6.19
		c-0.49,1.97-0.73,3.72-0.73,5.25c0,1.5,0.33,2.82,1.01,3.96c0.67,1.14,1.59,1.93,2.74,2.37c-2.06,0.59-3.88,1.01-5.44,1.27
		c-1.57,0.25-2.93,0.38-4.08,0.38c-1.57,0-2.83-0.19-3.8-0.59c-0.97-0.39-1.73-0.89-2.27-1.5c-0.55-0.61-0.92-1.3-1.13-2.06
		c-0.21-0.77-0.3-1.52-0.3-2.27c0-1.62,0.26-3.51,0.8-5.65c0.53-2.14,1.12-4.36,1.76-6.66c0.64-2.3,1.23-4.57,1.76-6.83
		c0.53-2.25,0.8-4.3,0.8-6.15c0-0.97-0.1-1.85-0.3-2.65c-0.21-0.8-0.52-1.48-0.96-2.06c-0.44-0.58-1.03-1.03-1.78-1.34
		c-0.75-0.31-1.66-0.47-2.72-0.47c-0.44,0-0.92,0.02-1.45,0.07c-0.53,0.05-1.11,0.15-1.74,0.3l-10.24,45.03
		c1.7,0.13,3.43,0.45,5.19,0.97s3.57,1.11,5.4,1.77c1.83,0.66,3.7,1.34,5.58,2.03c1.88,0.69,3.79,1.3,5.72,1.82
		c1.93,0.52,3.88,0.9,5.85,1.11c1.97,0.22,3.97,0.18,5.98-0.11c1.3-0.19,2.59-0.49,3.88-0.9c1.29-0.41,2.58-1.01,3.89-1.8
		C103.11,113.29,102.99,115.42,102.68,117.34z"/>
</g>
<g id="Layer_3">
</g>
<g id="Layer_4">
</g>
</svg>
